<svg width="34" height="43" viewBox="0 0 34 43" fill="none" xmlns="http://www.w3.org/2000/svg">
<path d="M8.62656 9.0814H6.52656C5.96961 9.0814 5.43546 8.86015 5.04164 8.46632C4.64781 8.07249 4.42656 7.53835 4.42656 6.9814C4.42656 6.42444 4.64781 5.8903 5.04164 5.49647C5.43546 5.10265 5.96961 4.8814 6.52656 4.8814H29.6266V2.7814C29.6266 2.22444 29.4053 1.6903 29.0115 1.29647C28.6177 0.902646 28.0835 0.681396 27.5266 0.681396L4.42656 0.681396C3.31265 0.681396 2.24437 1.1239 1.45671 1.91155C0.669061 2.6992 0.226563 3.76749 0.226562 4.8814V38.4814C0.226562 40.7914 2.11656 42.6814 4.42656 42.6814H29.6266C30.7405 42.6814 31.8088 42.2389 32.5964 41.4512C33.3841 40.6636 33.8266 39.5953 33.8266 38.4814V11.1814C33.8266 10.6244 33.6053 10.0903 33.2115 9.69647C32.8177 9.30265 32.2835 9.0814 31.7266 9.0814H17.0266V25.8814L12.8266 21.6814L8.62656 25.8814V9.0814Z" fill="url(#paint0_linear_2052_3375)"/>
<defs>
<linearGradient id="paint0_linear_2052_3375" x1="17.0266" y1="41.6314" x2="17.0266" y2="-22.4186" gradientUnits="userSpaceOnUse">
<stop stop-color="#F2A565"/>
<stop offset="1" stop-color="#F6C595"/>
</linearGradient>
</defs>
</svg>
