<svg width="36" height="37" viewBox="0 0 36 37" fill="none" xmlns="http://www.w3.org/2000/svg">
<path d="M8.45844 26.4314L15.7734 30.4214V35.1814H3.52344C1.58094 35.1814 0.0234375 33.6239 0.0234375 31.6814V3.6814C0.0234375 2.75314 0.392186 1.8629 1.04856 1.20652C1.70494 0.550145 2.59518 0.181396 3.52344 0.181396H5.27344V12.4314L9.64844 9.8064L14.0234 12.4314V0.181396H24.5234C25.4517 0.181396 26.3419 0.550145 26.9983 1.20652C27.6547 1.8629 28.0234 2.75314 28.0234 3.6814V18.6264L25.3984 17.1914L8.45844 26.4314ZM35.0234 26.4314L25.3984 21.1814L15.7734 26.4314L25.3984 31.6814L35.0234 26.4314ZM19.2734 30.0889V33.5889L25.3984 36.9314L31.5234 33.5889V30.0889L25.3984 33.4314L19.2734 30.0889Z" fill="url(#paint0_linear_2052_3358)"/>
<defs>
<linearGradient id="paint0_linear_2052_3358" x1="17.1821" y1="36.2998" x2="17.6409" y2="0.176846" gradientUnits="userSpaceOnUse">
<stop stop-color="#94C9F0"/>
<stop offset="0.618903" stop-color="#99EBCA"/>
<stop offset="1" stop-color="#A7FCC1"/>
</linearGradient>
</defs>
</svg>
