<svg width="36" height="34" viewBox="0 0 36 34" fill="none" xmlns="http://www.w3.org/2000/svg">
<path d="M14.5234 0.0619812H21.5234C22.4517 0.0619812 23.3419 0.43073 23.9983 1.08711C24.6547 1.74348 25.0234 2.63372 25.0234 3.56198V7.06198H32.0234C32.9517 7.06198 33.8419 7.43073 34.4983 8.08711C35.1547 8.74348 35.5234 9.63372 35.5234 10.562V29.812C35.5234 30.7402 35.1547 31.6305 34.4983 32.2869C33.8419 32.9432 32.9517 33.312 32.0234 33.312H4.02344C3.09518 33.312 2.20494 32.9432 1.54856 32.2869C0.892186 31.6305 0.523438 30.7402 0.523438 29.812V10.562C0.523437 9.63372 0.892186 8.74348 1.54856 8.08711C2.20494 7.43073 3.09518 7.06198 4.02344 7.06198H11.0234V3.56198C11.0234 2.63372 11.3922 1.74348 12.0486 1.08711C12.7049 0.43073 13.5952 0.0619812 14.5234 0.0619812ZM21.5234 7.06198V3.56198H14.5234V7.06198H21.5234ZM15.3984 27.187L26.9309 15.6545L24.4634 13.187L15.3984 22.2345L11.7409 18.5945L9.27344 21.062L15.3984 27.187Z" fill="url(#paint0_linear_2052_3367)"/>
<defs>
<linearGradient id="paint0_linear_2052_3367" x1="18.0234" y1="32.6778" x2="18.0234" y2="-18.0579" gradientUnits="userSpaceOnUse">
<stop stop-color="#D394F0"/>
<stop offset="1" stop-color="#99B9F9"/>
</linearGradient>
</defs>
</svg>
