<svg width="16" height="21" viewBox="0 0 16 21" fill="none" xmlns="http://www.w3.org/2000/svg">
<path d="M1.89844 20.6814C1.38281 20.6814 0.941562 20.4951 0.574687 20.1224C0.207187 19.749 0.0234375 19.3004 0.0234375 18.7766V9.25282C0.0234375 8.72902 0.207187 8.28044 0.574687 7.90711C0.941562 7.53441 1.38281 7.34806 1.89844 7.34806H2.83594V5.4433C2.83594 4.12584 3.29313 3.00267 4.2075 2.07378C5.12125 1.14552 6.22656 0.681396 7.52344 0.681396C8.82031 0.681396 9.92594 1.14552 10.8403 2.07378C11.7541 3.00267 12.2109 4.12584 12.2109 5.4433V7.34806H13.1484C13.6641 7.34806 14.1056 7.53441 14.4731 7.90711C14.84 8.28044 15.0234 8.72902 15.0234 9.25282V18.7766C15.0234 19.3004 14.84 19.749 14.4731 20.1224C14.1056 20.4951 13.6641 20.6814 13.1484 20.6814H1.89844ZM7.52344 15.9195C8.03906 15.9195 8.48063 15.7331 8.84813 15.3604C9.215 14.9871 9.39844 14.5385 9.39844 14.0147C9.39844 13.4909 9.215 13.0423 8.84813 12.669C8.48063 12.2963 8.03906 12.11 7.52344 12.11C7.00781 12.11 6.56656 12.2963 6.19969 12.669C5.83219 13.0423 5.64844 13.4909 5.64844 14.0147C5.64844 14.5385 5.83219 14.9871 6.19969 15.3604C6.56656 15.7331 7.00781 15.9195 7.52344 15.9195ZM4.71094 7.34806H10.3359V5.4433C10.3359 4.64965 10.0625 3.97505 9.51562 3.41949C8.96875 2.86394 8.30469 2.58616 7.52344 2.58616C6.74219 2.58616 6.07812 2.86394 5.53125 3.41949C4.98438 3.97505 4.71094 4.64965 4.71094 5.4433V7.34806Z" fill="url(#paint0_linear_2052_2876)"/>
<defs>
<linearGradient id="paint0_linear_2052_2876" x1="7.52344" y1="0.681396" x2="7.52344" y2="20.6814" gradientUnits="userSpaceOnUse">
<stop stop-color="#FFA255"/>
<stop offset="1" stop-color="#FFC087"/>
</linearGradient>
</defs>
</svg>
