<svg width="21" height="21" viewBox="0 0 21 21" fill="none" xmlns="http://www.w3.org/2000/svg">
<path d="M10.0234 0.681396C4.50944 0.681396 0.0234375 5.1674 0.0234375 10.6814C0.0234375 16.1954 4.50944 20.6814 10.0234 20.6814C15.5374 20.6814 20.0234 16.1954 20.0234 10.6814C20.0234 5.1674 15.5374 0.681396 10.0234 0.681396ZM2.02344 10.6814C2.02344 9.7824 2.17944 8.9194 2.45444 8.1124L4.02344 9.6814L6.02344 11.6814V13.6814L8.02344 15.6814L9.02344 16.6814V18.6124C5.08444 18.1174 2.02344 14.7534 2.02344 10.6814ZM16.3534 15.5544C15.7004 15.0284 14.7104 14.6814 14.0234 14.6814V13.6814C14.0234 13.151 13.8127 12.6423 13.4377 12.2672C13.0626 11.8921 12.5539 11.6814 12.0234 11.6814H8.02344V8.6814C8.55387 8.6814 9.06258 8.47068 9.43765 8.09561C9.81273 7.72054 10.0234 7.21183 10.0234 6.6814V5.6814H11.0234C11.5539 5.6814 12.0626 5.47068 12.4377 5.09561C12.8127 4.72054 13.0234 4.21183 13.0234 3.6814V3.2704C15.9514 4.4594 18.0234 7.3314 18.0234 10.6814C18.0233 12.4461 17.4357 14.1605 16.3534 15.5544Z" fill="url(#paint0_linear_2052_2867)"/>
<defs>
<linearGradient id="paint0_linear_2052_2867" x1="10.0234" y1="20.2999" x2="10.0234" y2="-10.2178" gradientUnits="userSpaceOnUse">
<stop stop-color="#D394F0"/>
<stop offset="1" stop-color="#99B9F9"/>
</linearGradient>
</defs>
</svg>
