<svg width="21" height="21" viewBox="0 0 21 21" fill="none" xmlns="http://www.w3.org/2000/svg">
<path d="M10.0134 0.681396C4.49344 0.681396 0.0234375 5.1614 0.0234375 10.6814C0.0234375 16.2014 4.49344 20.6814 10.0134 20.6814C15.5434 20.6814 20.0234 16.2014 20.0234 10.6814C20.0234 5.1614 15.5434 0.681396 10.0134 0.681396ZM14.0234 14.6814C13.9309 14.7741 13.821 14.8476 13.7001 14.8978C13.5791 14.948 13.4494 14.9738 13.3184 14.9738C13.1875 14.9738 13.0578 14.948 12.9368 14.8978C12.8158 14.8476 12.7059 14.7741 12.6134 14.6814L9.32344 11.3914C9.22895 11.2988 9.15378 11.1883 9.10228 11.0665C9.05079 10.9446 9.02399 10.8137 9.02344 10.6814V6.6814C9.02344 6.1314 9.47344 5.6814 10.0234 5.6814C10.5734 5.6814 11.0234 6.1314 11.0234 6.6814V10.2714L14.0234 13.2714C14.4134 13.6614 14.4134 14.2914 14.0234 14.6814Z" fill="url(#paint0_linear_2052_1878)"/>
<defs>
<linearGradient id="paint0_linear_2052_1878" x1="9.82841" y1="20.3376" x2="10.0662" y2="0.678625" gradientUnits="userSpaceOnUse">
<stop stop-color="#94C9F0"/>
<stop offset="0.618903" stop-color="#99EBCA"/>
<stop offset="1" stop-color="#A7FCC1"/>
</linearGradient>
</defs>
</svg>
