<svg width="23" height="23" viewBox="0 0 23 23" fill="none" xmlns="http://www.w3.org/2000/svg">
<path fill-rule="evenodd" clip-rule="evenodd" d="M5.8821 1.78289C5.4642 0.816876 5.02486 0.794669 4.62839 0.783565C4.30693 0.772462 3.93189 0.772461 3.55685 0.772461C3.18181 0.772461 2.58174 0.916808 2.0674 1.4942C1.55306 2.07158 0.117188 3.47064 0.117188 6.32426C0.117188 9.16679 2.12098 11.9205 2.39958 12.3091C2.67818 12.6977 6.26786 18.727 11.9363 21.0476C16.6511 22.9797 17.6155 22.591 18.6335 22.4911C19.6515 22.3912 21.9338 21.0921 22.4053 19.7374C22.8661 18.3828 22.8661 17.228 22.7268 16.9837C22.5875 16.7394 22.2124 16.5951 21.6552 16.3064C21.098 16.0177 18.3549 14.6187 17.8405 14.4188C17.3262 14.23 16.9512 14.1301 16.5868 14.7075C16.2118 15.2849 15.1403 16.584 14.8188 16.9726C14.4973 17.3612 14.1651 17.4057 13.6079 17.117C13.0507 16.8283 11.2505 16.2176 9.11817 14.2411C7.45727 12.7088 6.33215 10.8101 6.01068 10.2327C5.68922 9.65535 5.97854 9.34445 6.25714 9.05575C6.5036 8.80037 6.81434 8.37843 7.09295 8.04532C7.37155 7.71221 7.46799 7.46794 7.65015 7.07931C7.83231 6.69068 7.74659 6.35757 7.60729 6.06888C7.46799 5.79129 6.37501 2.92656 5.8821 1.78289Z" fill="#121E41"/>
</svg>
