<svg width="26" height="22" viewBox="0 0 26 22" fill="none" xmlns="http://www.w3.org/2000/svg">
<path fill-rule="evenodd" clip-rule="evenodd" d="M2.10706 9.78934C8.9009 6.83346 13.4312 4.88475 15.6979 3.94324C22.1699 1.25502 23.5148 0.788045 24.3913 0.772625C24.5841 0.769234 25.0152 0.816946 25.2944 1.0432C25.5301 1.23425 25.595 1.49232 25.6261 1.67346C25.6571 1.85459 25.6958 2.26721 25.665 2.58963C25.3143 6.26959 23.7967 15.1999 23.0247 19.3215C22.698 21.0655 22.0548 21.6503 21.432 21.7075C20.0787 21.8319 19.051 20.8144 17.7402 19.9563C15.6891 18.6136 14.5303 17.7778 12.5393 16.4676C10.2384 14.9534 11.73 14.1212 13.0413 12.7611C13.3845 12.4052 19.3474 6.98891 19.4628 6.49757C19.4772 6.43612 19.4906 6.20706 19.3544 6.08611C19.2181 5.96516 19.017 6.00652 18.8718 6.03941C18.6661 6.08604 15.3894 8.24884 9.04171 12.5278C8.11162 13.1656 7.26918 13.4763 6.51439 13.4601C5.68228 13.4421 4.08165 12.9902 2.89174 12.604C1.43227 12.1302 0.272313 11.8797 0.373319 11.0751C0.425929 10.656 1.00384 10.2274 2.10706 9.78934Z" fill="#121E41"/>
</svg>
