<svg width="9" height="13" viewBox="0 0 9 13" fill="none" xmlns="http://www.w3.org/2000/svg">
<path d="M1.60869 12.4442L7.82067 7.12491C7.89441 7.06159 7.94651 6.99299 7.97699 6.91911C8.00795 6.84523 8.02344 6.76607 8.02344 6.68164C8.02344 6.59721 8.00795 6.51805 7.97699 6.44417C7.94651 6.37029 7.89441 6.30169 7.82067 6.23837L1.60869 0.903276C1.43665 0.755519 1.22159 0.681641 0.96353 0.681641C0.705465 0.681641 0.484267 0.760796 0.299935 0.919108C0.115604 1.07742 0.0234376 1.26212 0.0234376 1.4732C0.0234376 1.68428 0.115604 1.86898 0.299935 2.02729L5.71929 6.68164L0.299935 11.336C0.127892 11.4838 0.0418705 11.6657 0.0418705 11.8819C0.0418705 12.0984 0.134036 12.2859 0.318368 12.4442C0.5027 12.6025 0.717754 12.6816 0.96353 12.6816C1.20931 12.6816 1.42436 12.6025 1.60869 12.4442Z" fill="#101F40"/>
</svg>
