<svg width="24" height="23" viewBox="0 0 24 23" fill="none" xmlns="http://www.w3.org/2000/svg">
<path fill-rule="evenodd" clip-rule="evenodd" d="M6.10085 1.69183C5.68295 0.725812 5.24361 0.703604 4.84714 0.692501C4.52568 0.681397 4.15064 0.681396 3.7756 0.681396C3.40056 0.681396 2.80049 0.825743 2.28615 1.40313C1.77181 1.98052 0.335938 3.37957 0.335938 6.2332C0.335938 9.07572 2.33973 11.8294 2.61833 12.218C2.89693 12.6067 6.48661 18.6359 12.1551 20.9566C16.8699 22.8886 17.8343 22.5 18.8522 22.4C19.8702 22.3001 22.1526 21.001 22.6241 19.6464C23.0848 18.2917 23.0848 17.1369 22.9455 16.8927C22.8062 16.6484 22.4312 16.504 21.874 16.2153C21.3168 15.9266 18.5736 14.5276 18.0593 14.3277C17.545 14.139 17.1699 14.039 16.8056 14.6164C16.4305 15.1938 15.359 16.4929 15.0375 16.8816C14.7161 17.2702 14.3839 17.3146 13.8267 17.0259C13.2695 16.7372 11.4693 16.1265 9.33692 14.1501C7.67602 12.6178 6.5509 10.7191 6.22943 10.1417C5.90797 9.56428 6.19729 9.25338 6.47589 8.96469C6.72235 8.7093 7.03309 8.28737 7.3117 7.95426C7.5903 7.62115 7.68674 7.37687 7.8689 6.98825C8.05106 6.59962 7.96534 6.26651 7.82604 5.97782C7.68674 5.70023 6.59376 2.8355 6.10085 1.69183Z" fill="white"/>
</svg>
