<svg width="26" height="22" viewBox="0 0 26 22" fill="none" xmlns="http://www.w3.org/2000/svg">
<path fill-rule="evenodd" clip-rule="evenodd" d="M1.76331 9.69828C8.55715 6.74239 13.0874 4.79369 15.3542 3.85217C21.8262 1.16395 23.171 0.696981 24.0476 0.681561C24.2404 0.678169 24.6714 0.725882 24.9506 0.952138C25.1864 1.14318 25.2513 1.40126 25.2823 1.58239C25.3134 1.76352 25.352 2.17615 25.3213 2.49856C24.9706 6.17853 23.453 15.1088 22.6809 19.2305C22.3543 20.9745 21.711 21.5592 21.0883 21.6165C19.7349 21.7408 18.7072 20.7233 17.3964 19.8653C15.3453 18.5226 14.1866 17.6867 12.1956 16.3765C9.89466 14.8623 11.3862 14.0301 12.6975 12.67C13.0407 12.3141 19.0036 6.89784 19.119 6.4065C19.1335 6.34505 19.1469 6.116 19.0106 5.99504C18.8743 5.87409 18.6732 5.91545 18.5281 5.94835C18.3224 5.99498 15.0457 8.15777 8.69796 12.4367C7.76787 13.0745 6.92543 13.3853 6.17064 13.369C5.33853 13.351 3.7379 12.8992 2.54799 12.5129C1.08852 12.0391 -0.0714374 11.7887 0.0295689 10.9841C0.0821791 10.565 0.660091 10.1364 1.76331 9.69828Z" fill="white"/>
</svg>
