<svg width="69" height="86" viewBox="0 0 69 86" fill="none" xmlns="http://www.w3.org/2000/svg">
<g clip-path="url(#clip0_2052_3196)">
<path d="M49.93 30.0725C49.3793 28.312 48.8315 26.5544 48.2808 24.7939C47.85 23.4097 47.4476 21.787 48.2808 20.6038C48.6061 20.1443 49.0997 19.7882 49.2652 19.2511C49.4849 18.5504 49.074 17.8267 48.8686 17.123C48.4149 15.555 48.9856 13.9008 49.2652 12.2896C49.5448 10.6813 49.3765 8.7227 47.9983 7.86113C47.3278 7.4447 46.4775 7.36716 45.8527 6.88181C44.9624 6.19255 44.8112 4.93465 44.3775 3.89215C43.8411 2.60553 42.7739 1.55441 41.4871 1.04321C40.2002 0.53201 38.7051 0.563601 37.4411 1.13511L36.3083 1.99381C34.8161 6.28732 34.6677 10.9312 34.836 15.4774C35.0044 20.0237 35.4752 24.5757 35.1528 29.1133C35.0301 30.8393 34.8417 32.7434 35.8575 34.1391C36.7791 35.4056 38.4255 35.8623 39.9577 36.1552C41.4871 36.4481 43.0507 36.6578 44.6029 36.5171C46.1551 36.3764 47.7073 35.8652 48.8943 34.8485C49.6076 34.2368 50.1897 33.4154 50.3095 32.4792C50.4151 31.6664 50.1669 30.8565 49.9243 30.0754L49.93 30.0725Z" fill="#263238"/>
<path d="M47.666 29.5786L56.3486 21.767C56.3486 21.767 49.3238 22.2925 45.0609 22.7721L44.6016 18.783C44.6016 18.783 53.5039 16.7268 56.3515 15.9915C59.1962 15.2563 61.9468 15.2276 64.6489 15.1328C67.3481 15.0381 67.8104 16.5803 67.9559 17.2408C68.1014 17.9014 68.304 21.1954 65.716 24.3057C63.753 26.6636 53.2899 37.8784 53.2899 37.8784L47.6717 29.5786H47.666Z" fill="#FFBE9D"/>
<path d="M63.2761 19.8428C63.2761 19.8428 63.2104 19.9289 63.0706 20.0668C63.0021 20.1357 62.9137 20.219 62.8053 20.3051C62.6968 20.3942 62.5798 20.5004 62.4343 20.5981C62.1519 20.8077 61.7952 21.0289 61.3815 21.2385C60.9649 21.4424 60.4884 21.6348 59.9719 21.7784C59.4526 21.9191 58.9476 21.9967 58.4854 22.034C58.0231 22.0627 57.6037 22.057 57.2556 22.0197C57.0815 22.0082 56.9246 21.9795 56.7876 21.9594C56.6507 21.9392 56.5337 21.9134 56.4395 21.8904C56.2484 21.8445 56.1456 21.8129 56.1485 21.8043C56.1542 21.7756 56.5765 21.8761 57.267 21.9163C57.6122 21.9393 58.0231 21.9335 58.4796 21.899C58.9333 21.8531 59.4298 21.7727 59.9377 21.6348C60.4456 21.4912 60.9135 21.3074 61.3272 21.115C61.7381 20.914 62.0948 20.7072 62.3801 20.5119C62.9536 20.1213 63.2646 19.8227 63.2846 19.8428H63.2761Z" fill="#EB996E"/>
<path d="M1.93003 14.1966C1.93003 14.1966 0.694544 15.1616 0.155269 17.1432C-0.635097 20.0496 2.38655 22.8238 2.38655 22.8238C2.38655 22.8238 15.4804 35.4143 15.5688 35.5923C15.6573 35.7704 18.8501 26.2156 18.8501 26.2156L10.955 20.5895C10.955 20.5895 15.2436 20.713 17.6974 20.7675C20.351 20.825 23.9861 21.4022 23.9861 21.4022V16.4913C23.9861 16.4913 6.18716 12.1432 1.93003 14.1966Z" fill="#FFBE9D"/>
<path d="M3.5 20.331C3.5 20.331 3.51712 20.3023 3.55992 20.2621C3.60272 20.2219 3.6769 20.1673 3.78248 20.1185C3.99077 20.0209 4.33602 19.9605 4.74119 20.0524C5.14636 20.1357 5.57721 20.3597 6.07939 20.5005C6.58442 20.6469 7.15794 20.7302 7.76569 20.7474C8.9812 20.7733 10.0854 20.6211 10.8872 20.5723C11.2867 20.5407 11.6119 20.5234 11.8374 20.5148C12.0628 20.5062 12.1855 20.5091 12.1883 20.5177C12.1883 20.5292 12.0656 20.5464 11.8431 20.5723C11.5891 20.601 11.2724 20.6354 10.8986 20.6757C10.0997 20.7532 8.99832 20.9226 7.76284 20.8968C7.14653 20.8796 6.55589 20.7905 6.0423 20.6326C5.52585 20.4775 5.1007 20.2449 4.71836 20.1558C4.33602 20.0553 4.01074 20.0955 3.8053 20.1731C3.59987 20.2506 3.50856 20.3425 3.5 20.331Z" fill="#EB996E"/>
<path d="M66.3438 24.2885L56.3459 21.7641L47.823 27.8238C47.823 27.8238 46.3793 26.9507 45.5261 27.3471C44.673 27.7434 43.038 28.9324 43.038 28.9324L40.1847 27.4275L29.4734 28.2201L27.4818 29.9634C27.4818 29.9634 27.0652 28.9324 26.4204 29.4091C25.7727 29.8858 25.2334 29.8054 25.2334 29.8054C25.2334 29.8054 24.5914 27.9818 23.2532 27.2695C21.915 26.5573 19.0161 25.4602 18.5281 25.578C18.0374 25.6957 14.6191 22.4189 14.6191 22.4189L12.4848 20.8192C12.4848 20.8192 1.61659 22.034 1.45966 22.8238C1.30273 23.6136 4.01908 27.6974 4.57262 27.6974L6.39873 28.3005C6.39873 28.3005 6.8895 30.5205 8.53586 32.0254C10.1794 33.5303 15.7718 37.3902 15.7718 37.3902C15.7718 37.3902 13.2238 53.4269 12.0169 56.362C10.8099 59.2942 9.8655 63.0995 10.1794 66.7468C10.4932 70.3942 12.0169 80.8566 12.0169 80.8566L20.1032 78.3207L51.9974 77.37L58.0607 78.7974C58.0607 78.7974 57.6669 70.2362 57.3531 65.6383C57.0392 61.0404 56.6455 51.4482 55.3044 45.7417C53.9662 40.0352 54.2801 37.393 54.2801 37.393C54.2801 37.393 64.124 27.9846 64.9115 26.7181C65.699 25.4487 66.6634 25.1816 66.3438 24.2914V24.2885Z" fill="#FFA356"/>
<g opacity="0.3">
<path d="M48.6039 46.273C48.6039 46.273 52.0764 52.4275 52.3503 55.9111C52.6242 59.3976 49.5426 65.0409 49.5426 65.0409L46.4297 60.5033L48.6068 46.2701L48.6039 46.273Z" fill="black"/>
</g>
<g opacity="0.3">
<path d="M23.1892 45.7905C20.0734 48.6797 18.2701 52.6946 16.601 56.6119C14.9888 60.3942 13.411 64.2368 12.729 68.2977C12.0499 72.3442 12.2896 76.5458 13.4281 80.489L26.2651 75.7216L25.1866 59.7767L23.1892 45.7905Z" fill="black"/>
</g>
<path d="M21.2734 65.7417L25.191 59.7767L46.4339 60.5062L49.5469 65.0438L35.3973 74.1334L21.2734 65.7417Z" fill="#263238"/>
<path d="M30.6535 30.8393L28.1654 34.9433C28.1654 34.9433 28.1683 38.1943 27.5862 39.5728C27.0041 40.9513 23.1094 45.891 23.1094 45.891L25.1837 59.7796C25.1837 59.7796 34.5197 67.2954 46.4266 60.509L48.6037 46.2758C48.6037 46.2758 46.4637 43.3005 44.8573 41.8157C43.2509 40.331 42.2893 36.6319 41.9983 34.5814L40.954 31.3419C40.954 31.3419 33.4697 34.0989 30.6507 30.8422L30.6535 30.8393Z" fill="white"/>
<path d="M40.7563 48.6538C40.4225 48.4126 39.7406 48.4384 39.3297 48.4039C37.8688 48.0708 36.5648 46.9594 35.0526 46.9306C34.2223 46.9163 33.4262 47.2322 32.6558 47.5424C31.6628 47.9444 30.667 48.3465 29.6998 48.8089C29.4401 48.9324 29.1748 49.0674 28.9807 49.2799C28.7867 49.4924 28.6726 49.8083 28.7696 50.0811C28.8695 50.3597 29.1662 50.532 29.4601 50.5636C29.754 50.5981 30.0479 50.5177 30.3304 50.4315C31.7855 49.995 33.2436 49.3833 34.7587 49.4809C36.3708 49.5843 37.846 50.4861 39.4524 50.6383C39.8233 50.6728 40.2056 50.667 40.5509 50.5234C40.8961 50.3827 41.1929 50.0869 41.2585 49.7164C41.3298 49.3086 41.0959 48.8893 40.7592 48.6452L40.7563 48.6538ZM39.3297 48.4039L39.9831 48.493C39.7605 48.4844 39.5437 48.4528 39.3297 48.4039Z" fill="#F5F5F5"/>
<path d="M33.6034 47.0915C33.6034 47.0915 33.5292 47.1604 33.3808 47.2638C33.2324 47.3672 33.0099 47.5022 32.7246 47.6544C32.1539 47.9588 31.3179 48.2948 30.3506 48.4901C29.3805 48.6825 28.4788 48.6883 27.8397 48.628C27.5201 48.5964 27.2605 48.559 27.0836 48.5188C26.9067 48.4815 26.8125 48.4557 26.8125 48.447C26.8182 48.4212 27.2091 48.4901 27.8454 48.5246C28.4817 48.559 29.3662 48.5332 30.3221 48.3465C31.2751 48.1541 32.1025 47.8382 32.6789 47.5625C33.2553 47.2868 33.592 47.0743 33.6062 47.0944L33.6034 47.0915Z" fill="#263238"/>
<path d="M30.704 60.0151C30.6869 60.0467 30.0849 59.659 29.5969 58.9381C29.1033 58.2202 28.9607 57.5165 28.9978 57.5108C29.0406 57.4964 29.2431 58.1598 29.7196 58.852C30.1904 59.5498 30.7326 59.9778 30.704 60.0122V60.0151Z" fill="#263238"/>
<path d="M39.508 50.8364C39.508 50.8364 39.3739 50.802 39.1428 50.7187C38.9116 50.6325 38.5749 50.509 38.1584 50.3683C37.3252 50.0897 36.1496 49.7336 34.8143 49.6388C34.1466 49.5986 33.5103 49.6417 32.9397 49.7422C32.797 49.7709 32.66 49.7997 32.5259 49.8284C32.3918 49.86 32.2663 49.9031 32.1436 49.9404C31.8925 50.0036 31.6756 50.107 31.4702 50.1845C31.0707 50.3626 30.7512 50.5263 30.5429 50.6584C30.3317 50.7847 30.209 50.8508 30.2033 50.8422C30.1976 50.8336 30.3061 50.7503 30.5115 50.6095C30.7112 50.4602 31.0251 50.2821 31.4274 50.0897C31.6328 50.0064 31.8526 49.8944 32.1065 49.8226C32.232 49.7853 32.3604 49.7394 32.4945 49.702C32.6315 49.6704 32.7713 49.6417 32.914 49.6072C33.4932 49.4981 34.1438 49.4493 34.8228 49.4895C36.1839 49.5871 37.3651 49.9634 38.1926 50.2707C38.6063 50.4257 38.9373 50.5636 39.1627 50.667C39.3881 50.7704 39.5108 50.8307 39.508 50.8393V50.8364Z" fill="#263238"/>
<path d="M27.9696 35.4372C27.9696 35.4372 27.9496 35.2735 27.9297 34.9777C27.9097 34.6819 27.8812 34.2511 27.8241 33.7256C27.7899 33.4642 27.7727 33.1655 27.6957 32.8755C27.6558 32.7319 27.593 32.5883 27.4846 32.4849C27.3761 32.3786 27.2278 32.3183 27.0651 32.3097C26.737 32.2953 26.3974 32.4447 26.0864 32.6543C25.7697 32.8496 25.4159 33.1052 24.9679 33.0995H24.8281L24.9109 32.9817C24.9166 32.9731 24.9251 32.9616 24.9337 32.9501C25.8696 31.6032 26.8739 30.5033 27.6472 29.7652C28.0352 29.3947 28.3605 29.1104 28.5916 28.918C28.8228 28.7284 28.9569 28.6308 28.9626 28.6365C28.9683 28.6451 28.8484 28.7572 28.6316 28.9611C28.4119 29.165 28.098 29.4608 27.7242 29.8399C26.971 30.5952 25.9866 31.698 25.0592 33.0363C25.0507 33.0478 25.045 33.0564 25.0364 33.0679L24.9765 32.9501C25.3588 32.9559 25.6955 32.729 26.0151 32.528C26.3347 32.3183 26.7027 32.1489 27.0794 32.1719C27.2677 32.1805 27.4532 32.258 27.5816 32.3901C27.7128 32.5194 27.7784 32.6859 27.8212 32.8439C27.8954 33.1598 27.9068 33.4499 27.9354 33.7169C27.981 34.2482 27.9924 34.6819 27.9953 34.9777C27.9953 35.2764 27.9867 35.4401 27.9782 35.4401L27.9696 35.4372Z" fill="#263238"/>
<path d="M25.1881 43.0507C25.1881 43.0507 25.1453 43.1225 25.054 43.246C24.9541 43.381 24.8171 43.5619 24.6488 43.7888C24.2893 44.2569 23.7842 44.9433 23.1622 45.7934C21.9353 47.505 20.2775 49.9031 18.7168 52.7118C17.935 54.1162 17.2388 55.4803 16.651 56.744C16.0718 58.0105 15.5724 59.1621 15.1901 60.1472C14.9903 60.6354 14.8249 61.0834 14.6765 61.474C14.5253 61.8646 14.4026 62.2035 14.3027 62.4821C14.2057 62.7492 14.1258 62.9617 14.0687 63.1196C14.0145 63.2661 13.9831 63.3408 13.9774 63.3379C13.9717 63.3379 13.9945 63.2575 14.0402 63.1081C14.0916 62.9473 14.16 62.7319 14.2485 62.462C14.3398 62.1805 14.4539 61.8388 14.5966 61.4453C14.7364 61.049 14.8962 60.5981 15.0902 60.107C15.4583 59.1162 15.9491 57.9588 16.5226 56.6837C17.1046 55.4143 17.798 54.0415 18.5827 52.6343C20.1491 49.8169 21.824 47.4218 23.0738 45.7245C23.7072 44.8801 24.2265 44.2052 24.5974 43.7486C24.7772 43.5274 24.9199 43.3523 25.0254 43.223C25.1253 43.1024 25.1795 43.0421 25.1824 43.045L25.1881 43.0507Z" fill="#263238"/>
<path d="M19.4062 39.4867C19.4062 39.4867 19.4348 39.3287 19.509 39.0501C19.5461 38.9094 19.5946 38.74 19.6602 38.5447C19.7258 38.3494 19.7943 38.1254 19.8885 37.8841C20.0625 37.3959 20.3079 36.8301 20.6018 36.2127C20.9042 35.5981 21.2609 34.9347 21.6746 34.2627C22.5078 32.9186 23.3923 31.7928 24.0743 31.0174C24.4138 30.6297 24.6991 30.3224 24.9046 30.1185C25.1072 29.9146 25.2241 29.8026 25.2298 29.8112C25.2384 29.8169 25.1357 29.9404 24.9445 30.1587C24.7533 30.3741 24.4823 30.69 24.1542 31.0863C23.495 31.8761 22.6305 33.0076 21.803 34.3431C21.3922 35.0122 21.0326 35.667 20.7273 36.2759C20.4277 36.8876 20.1766 37.4447 19.9883 37.9272C19.8885 38.1656 19.8114 38.3839 19.7401 38.5763C19.6659 38.7687 19.6088 38.9353 19.566 39.0702C19.4747 39.3431 19.4177 39.4924 19.4091 39.4895L19.4062 39.4867Z" fill="#263238"/>
<path d="M20.0618 29.1363C20.0618 29.1363 19.9848 29.2598 19.8278 29.4666C19.6681 29.6705 19.4455 29.9749 19.1773 30.3511C18.6409 31.1064 17.9504 32.1891 17.3226 33.4585C16.6978 34.7308 16.2584 35.937 15.9844 36.8244C15.8475 37.2695 15.7419 37.6314 15.6763 37.8813C15.6078 38.1311 15.565 38.2718 15.5564 38.269C15.5479 38.269 15.5707 38.1254 15.6221 37.8698C15.6706 37.6142 15.759 37.2466 15.8846 36.7957C16.1328 35.8968 16.5608 34.6733 17.1914 33.3925C17.8248 32.1145 18.5324 31.0318 19.0945 30.2879C19.3742 29.9146 19.611 29.6216 19.785 29.4292C19.9562 29.2339 20.0561 29.1277 20.0618 29.1363Z" fill="#263238"/>
<path d="M16.4941 24.0645C16.4941 24.0645 16.4855 24.1076 16.4541 24.1794C16.4256 24.254 16.3799 24.3632 16.3029 24.4953C16.1545 24.7595 15.892 25.1242 15.4783 25.4832C15.0646 25.8393 14.5082 26.1839 13.8519 26.474C13.1956 26.7669 12.4481 27.0082 11.6548 27.2322C10.0656 27.6773 8.58469 27.8927 7.50899 27.976C6.97257 28.022 6.53602 28.0306 6.23357 28.0363C5.93112 28.0363 5.76562 28.0306 5.76562 28.0191C5.76562 28.0076 5.93112 27.9933 6.23071 27.976C6.53031 27.953 6.96401 27.9272 7.49758 27.8698C8.56472 27.7606 10.0342 27.5309 11.612 27.0857C12.3996 26.8617 13.1443 26.6234 13.7948 26.3448C14.4454 26.0662 14.9961 25.7388 15.4098 25.3999C16.243 24.7135 16.4627 24.0386 16.4941 24.0616V24.0645Z" fill="#263238"/>
<path d="M43.0336 28.9353C43.0336 28.9353 43.1021 29.0616 43.1962 29.2971C43.2904 29.5355 43.4216 29.8801 43.57 30.3109C43.8668 31.1753 44.232 32.3844 44.5544 33.74C44.6857 34.2885 44.7998 34.8198 44.894 35.308L44.9396 35.5378L44.777 35.3712C44.426 35.018 44.0922 34.6992 43.7412 34.4953C43.5672 34.3919 43.3874 34.3287 43.2191 34.2627C43.0507 34.2023 42.8938 34.1535 42.7483 34.1363C42.4515 34.0932 42.2461 34.2454 42.1491 34.3689C42.0464 34.4953 42.0121 34.5786 42.0007 34.5728C41.9978 34.5728 42.0036 34.5498 42.0207 34.5096C42.0349 34.4694 42.0663 34.412 42.112 34.3402C42.1633 34.2741 42.2318 34.188 42.3431 34.1277C42.4515 34.0674 42.5999 34.0329 42.7568 34.0473C42.9138 34.0587 43.0793 34.1047 43.2533 34.1621C43.4245 34.2196 43.6157 34.2828 43.8011 34.389C44.1749 34.5929 44.523 34.9174 44.8768 35.2678L44.757 35.331C44.6571 34.8456 44.5401 34.3172 44.4089 33.7687C44.0893 32.416 43.7412 31.2069 43.4702 30.3367C43.3389 29.9232 43.2276 29.5786 43.142 29.3086C43.0621 29.0674 43.0222 28.9295 43.0336 28.9266V28.9353Z" fill="#263238"/>
<path d="M48.9723 33.2058C48.9494 33.2058 48.8981 32.91 48.8096 32.4304C48.7183 31.9507 48.5814 31.2902 48.3902 30.5694C48.199 29.8485 47.9907 29.2081 47.8309 28.7457C47.6712 28.2833 47.5684 27.999 47.5884 27.9904C47.6055 27.9818 47.7453 28.2546 47.9308 28.7083C48.1163 29.1621 48.3417 29.8054 48.5357 30.5291C48.7269 31.2557 48.8496 31.9249 48.9152 32.4102C48.9808 32.8985 48.9951 33.2029 48.9751 33.2029L48.9723 33.2058Z" fill="#263238"/>
<path d="M50.524 33.6538C50.4983 33.6538 50.4555 33.2977 50.33 32.7348C50.2044 32.169 49.9762 31.4022 49.6081 30.601C49.2372 29.8026 48.7978 29.1305 48.4497 28.671C48.1016 28.2115 47.8562 27.9473 47.8761 27.9301C47.8847 27.9243 47.9503 27.9818 48.0673 28.0967C48.1843 28.2087 48.3441 28.3838 48.5324 28.6079C48.9062 29.0559 49.3656 29.7279 49.7451 30.5406C50.1188 31.3534 50.3357 32.1403 50.4356 32.7176C50.4869 33.0048 50.5154 33.2402 50.5269 33.4039C50.5383 33.5676 50.5383 33.6567 50.5269 33.6595L50.524 33.6538Z" fill="#263238"/>
<path d="M54.9394 30.8623C54.9394 30.8623 54.9252 30.9915 54.8738 31.2127C54.8253 31.4367 54.7568 31.7583 54.6912 32.1604C54.5542 32.9645 54.4344 34.0875 54.3688 35.331C54.306 36.5774 54.2975 37.7061 54.3089 38.5217C54.3146 38.9065 54.3231 39.2311 54.326 39.4895C54.3317 39.7193 54.3288 39.8456 54.3203 39.8456C54.3117 39.8456 54.2917 39.7221 54.2689 39.4924C54.2461 39.2655 54.2204 38.9324 54.2033 38.5246C54.1633 37.7061 54.1548 36.5717 54.2176 35.3224C54.286 34.0731 54.4201 32.9444 54.5856 32.1403C54.6627 31.7382 54.7483 31.4166 54.8168 31.1954C54.8852 30.9772 54.928 30.8566 54.9394 30.8594V30.8623Z" fill="#263238"/>
<path d="M64.3206 27.3815C64.3206 27.3815 64.1551 27.3729 63.8584 27.3298C63.5359 27.2781 63.1165 27.2121 62.6058 27.1316C61.55 26.9593 60.092 26.7095 58.4827 26.4252C57.6781 26.2844 56.9077 26.1523 56.2229 25.9398C55.5381 25.7359 54.9503 25.4487 54.5109 25.1299C54.0687 24.814 53.7748 24.478 53.6036 24.2281C53.5151 24.1047 53.4581 24.0013 53.4238 23.9295C53.3896 23.8577 53.3725 23.8203 53.3753 23.8175C53.401 23.7916 53.6835 24.4378 54.5708 25.0409C55.0074 25.3424 55.5866 25.6124 56.26 25.8048C56.9334 26.003 57.7009 26.1322 58.5056 26.2729C60.1148 26.5573 61.57 26.8215 62.62 27.0225C63.1251 27.123 63.5445 27.2034 63.8641 27.2666C64.158 27.3269 64.3177 27.3671 64.3177 27.3758L64.3206 27.3815Z" fill="#263238"/>
<path d="M49.5453 64.6101C49.5453 64.6101 49.5567 64.5814 49.5824 64.5326C49.6137 64.4752 49.6508 64.4005 49.7022 64.3086C49.8106 64.1162 49.959 63.8232 50.153 63.4499C50.5297 62.6974 51.0404 61.5831 51.5312 60.1615C51.768 59.4464 52.0048 58.6538 52.1675 57.7865C52.3187 56.9249 52.4471 55.9513 52.1589 55.0122C51.8165 54.0731 51.5255 53.0622 51.1888 52.034C50.8578 51.003 50.3927 49.9806 49.9133 48.9352C49.4283 47.8927 48.909 46.8962 48.3183 45.9915C48.0244 45.5378 47.7163 45.107 47.3853 44.7049C47.0572 44.3028 46.7034 43.941 46.3695 43.5676C45.699 42.8296 45.0627 42.1288 44.4664 41.4711C44.1554 41.1466 43.9585 40.7445 43.773 40.3798C43.5904 40.0065 43.4335 39.6446 43.2937 39.2914C42.7373 37.8841 42.4034 36.7009 42.2208 35.8767C42.1267 35.4631 42.0725 35.1386 42.0382 34.9203C42.0239 34.8169 42.0125 34.7336 42.0068 34.6704C42.0011 34.613 41.9983 34.5843 42.0011 34.5843C42.0011 34.5843 42.0097 34.613 42.0211 34.6676C42.0325 34.7308 42.0496 34.814 42.0696 34.9146C42.1095 35.1328 42.1752 35.4545 42.2779 35.8623C42.4776 36.6808 42.8257 37.8554 43.3935 39.2511C43.5362 39.5986 43.696 39.9605 43.8786 40.3281C44.0669 40.6928 44.2552 41.0748 44.5605 41.3907C45.1597 42.0426 45.796 42.7405 46.4694 43.4729C46.8004 43.8433 47.1628 44.2081 47.4966 44.6159C47.8304 45.0208 48.1443 45.4574 48.441 45.9111C49.0374 46.8244 49.5624 47.8267 50.0474 48.8721C50.5297 49.9174 50.9947 50.9484 51.3257 51.9881C51.6624 53.0248 51.9477 54.03 52.2873 54.9691C52.5869 55.9599 52.4414 56.9393 52.2873 57.8094C52.1189 58.6854 51.8764 59.4809 51.631 60.1989C51.1231 61.6262 50.5981 62.7319 50.2044 63.4815C50.0018 63.8519 49.8449 64.142 49.7279 64.3287C49.6737 64.4177 49.6309 64.4895 49.5966 64.5441C49.5652 64.5929 49.551 64.6159 49.5481 64.6159L49.5453 64.6101Z" fill="#263238"/>
<g opacity="0.3">
<path d="M46.0117 37.0656C45.6551 34.7595 44.8647 32.5222 43.6949 30.509C44.0059 32.1001 44.5166 33.7342 44.8276 35.3252C44.1999 34.5154 42.4052 33.5159 42 34.5814L42.1569 35.4286C43.3353 35.8249 44.3939 36.563 45.1814 37.5309C45.3184 37.7003 45.4896 37.8927 45.7036 37.864C46.0203 37.8238 46.0631 37.3815 46.0146 37.0656H46.0117Z" fill="black"/>
</g>
<g opacity="0.3">
<path d="M47.8403 27.9731C47.6291 28.4068 47.8317 28.9151 48.0058 29.3631C48.4195 30.4143 48.6963 31.5228 48.8247 32.6457C48.8732 33.0622 48.9103 33.5044 49.1642 33.8376C49.4182 34.1707 49.9774 34.2971 50.2399 33.9726C50.4054 33.7629 50.3854 33.4642 50.3483 33.2C50.0716 31.2787 49.2698 29.4349 48.0543 27.9243" fill="black"/>
</g>
<g opacity="0.3">
<path d="M53.7524 24.2943C53.8465 24.9175 54.246 25.4631 54.7396 25.848C55.2361 26.2328 55.8239 26.4769 56.4145 26.6866C58.6629 27.4907 61.1367 27.8841 63.4394 27.2552C61.7616 26.9766 60.081 26.698 58.4033 26.4166C57.5387 26.273 56.6685 26.1265 55.8439 25.825C55.0192 25.5234 54.2374 25.0524 53.6953 24.3603" fill="black"/>
</g>
<g opacity="0.3">
<path d="M25.075 29.7911C22.7096 31.273 20.7294 33.3666 19.3712 35.8163C19.1087 36.2873 18.8719 36.7727 18.6807 37.2782C18.5523 37.617 18.5095 38.1081 18.8462 38.2374C19.1658 38.358 19.4511 38.0105 19.6195 37.7118C21.203 34.9203 23.0634 32.2868 25.1634 29.8629" fill="black"/>
</g>
<g opacity="0.3">
<path d="M27.9496 37.2408C27.9354 36.0576 27.924 34.8744 27.9097 33.6911C27.904 33.1541 27.807 32.6745 27.3704 32.3701C27.0509 32.146 26.7284 32.2322 26.3746 32.3988C26.0237 32.5653 25.6784 32.798 25.3931 32.9243L25.316 32.9617C24.9423 33.47 24.6626 34.0501 24.5 34.6647C24.9109 34.6647 25.2761 34.4177 25.6499 34.2483C26.0237 34.0788 26.5144 34.0013 26.8083 34.2885C27.0052 34.4809 27.0537 34.7767 27.0908 35.0495C27.2706 36.3505 27.4475 37.6515 27.6272 38.9525C27.9468 38.4585 27.9496 37.8296 27.9439 37.2408H27.9496Z" fill="black"/>
</g>
<g opacity="0.3">
<path d="M6.125 28.068C8.33061 28.8893 10.8472 28.8233 13.0043 27.8841C14.2455 27.3442 15.4296 26.4424 15.8491 25.1472C12.8702 26.9048 9.65454 27.7147 6.21345 28.022" fill="black"/>
</g>
<path d="M9.10589 27.6917C9.08021 27.6946 9.02314 27.3069 8.8548 26.7038C8.68645 26.1007 8.37829 25.2851 7.88467 24.4666C7.3882 23.6481 6.81183 22.999 6.35815 22.5682C5.90448 22.1374 5.58776 21.9106 5.60203 21.8876C5.60773 21.879 5.69048 21.9307 5.83885 22.0283C5.98722 22.126 6.18981 22.281 6.42948 22.4907C6.90884 22.9042 7.50803 23.5562 8.01307 24.389C8.51525 25.2219 8.812 26.0605 8.95751 26.6779C9.0317 26.9881 9.0745 27.2408 9.09162 27.416C9.11159 27.5912 9.1173 27.6917 9.10589 27.6917Z" fill="white"/>
<path d="M13.8396 25.868C13.8139 25.8738 13.7398 25.5292 13.5315 25.0065C13.326 24.4838 12.9608 23.7917 12.4073 23.1369C11.8509 22.4849 11.2288 22.0111 10.7495 21.7268C10.2701 21.4396 9.942 21.3103 9.95341 21.2845C9.95627 21.2759 10.0419 21.2988 10.1902 21.3534C10.3415 21.4051 10.5526 21.4999 10.8008 21.6349C11.303 21.9019 11.9507 22.3729 12.5185 23.0421C13.0835 23.7112 13.443 24.4321 13.6256 24.972C13.7169 25.242 13.7768 25.466 13.8054 25.6239C13.8339 25.7819 13.8453 25.8681 13.8368 25.8709L13.8396 25.868Z" fill="white"/>
<path d="M17.1107 32.9042C17.1107 32.9042 16.9937 32.8611 16.794 32.7577C16.5943 32.6544 16.3089 32.4964 15.9608 32.2954C15.2675 31.8904 14.3287 31.2902 13.3415 30.5579C12.3543 29.8226 11.5097 29.0961 10.919 28.5475C10.6252 28.2718 10.3912 28.0449 10.2342 27.8841C10.0773 27.7233 9.99457 27.6285 10.0003 27.6228C10.006 27.6141 10.103 27.6946 10.2742 27.8439C10.4654 28.0133 10.705 28.223 10.9875 28.4728C11.5924 29.0013 12.4456 29.7106 13.4271 30.4401C14.4086 31.1696 15.3331 31.7813 16.0122 32.2092C16.3318 32.4102 16.6028 32.5768 16.8197 32.7118C17.0109 32.8295 17.1136 32.9013 17.1079 32.91L17.1107 32.9042Z" fill="white"/>
<path d="M20.4504 28.7974C20.4304 28.8347 19.1407 28.1656 17.5686 27.3069C15.9964 26.4482 14.7381 25.7216 14.758 25.6842C14.778 25.6469 16.0677 26.3161 17.6399 27.1748C19.2121 28.0335 20.4704 28.76 20.4504 28.7974Z" fill="white"/>
<path d="M21.8275 34.053C21.7904 34.0874 21.214 33.2345 20.1469 32.6199C19.0883 31.9909 18.0668 31.9048 18.0782 31.856C18.0782 31.8387 18.3322 31.8359 18.7345 31.9163C19.1339 31.9938 19.6789 32.1747 20.2211 32.4907C20.7603 32.8094 21.1855 33.1971 21.4508 33.5102C21.719 33.8232 21.8417 34.0444 21.8275 34.0558V34.053Z" fill="white"/>
<path d="M24.1534 31.1437C24.1278 31.1437 24.1135 30.8795 24.0051 30.4746C23.8995 30.0696 23.6684 29.5268 23.2718 29.0271C22.8723 28.5274 22.3987 28.1828 22.0306 27.9875C21.6625 27.7922 21.4057 27.7204 21.4143 27.6946C21.4143 27.6802 21.6825 27.7147 22.0762 27.8927C22.4671 28.0679 22.9722 28.4154 23.3888 28.9352C23.7996 29.455 24.025 30.0294 24.1078 30.4516C24.1934 30.8766 24.1677 31.1466 24.1534 31.1466V31.1437Z" fill="white"/>
<path d="M18.7108 41.5717C18.688 41.5832 18.571 41.3821 18.3342 41.1007C18.0973 40.8164 17.7264 40.4631 17.2413 40.1759C16.7563 39.8916 16.2655 39.7394 15.906 39.6705C15.5436 39.6015 15.3125 39.5958 15.3125 39.5699C15.3125 39.5527 15.5465 39.5211 15.9231 39.5642C16.2997 39.6073 16.8133 39.7509 17.3184 40.0438C17.8206 40.3396 18.1972 40.7245 18.4169 41.0317C18.6395 41.3419 18.7251 41.5631 18.7108 41.5688V41.5717Z" fill="white"/>
<path d="M24.9427 43.2402C24.9427 43.2603 24.6088 43.2345 24.0753 43.1541C23.5445 43.0737 22.8112 42.9329 22.018 42.7233C21.2219 42.5136 20.5172 42.2753 20.015 42.08C19.5128 41.8876 19.2104 41.744 19.2189 41.7267C19.2275 41.7066 19.5414 41.8129 20.0521 41.9795C20.5628 42.146 21.2676 42.3672 22.058 42.5768C22.8483 42.7865 23.5702 42.9416 24.0952 43.0507C24.6202 43.1569 24.9484 43.2201 24.9427 43.2402Z" fill="white"/>
<path d="M27.7294 37.5395C27.7294 37.5395 27.6324 37.5538 27.4555 37.5567C27.2786 37.5567 27.0246 37.5452 26.7136 37.5136C26.0887 37.4505 25.2299 37.2868 24.3254 36.9565C23.4238 36.6233 22.6591 36.1897 22.1426 35.8336C21.883 35.6555 21.6804 35.5004 21.5491 35.3856C21.415 35.2707 21.3437 35.2046 21.3523 35.196C21.3665 35.1759 21.6747 35.4143 22.2025 35.7445C22.7304 36.0777 23.4894 36.4884 24.3796 36.8158C25.2698 37.1432 26.1144 37.3212 26.7279 37.4103C27.3442 37.4993 27.7294 37.5165 27.7294 37.5424V37.5395Z" fill="white"/>
<path d="M29.8205 31.8244C29.8005 31.8387 29.6892 31.6837 29.4724 31.4769C29.2555 31.2701 28.916 31.026 28.4937 30.8623C28.0686 30.7015 27.652 30.6613 27.3552 30.6756C27.0556 30.6871 26.873 30.7331 26.8673 30.7072C26.8616 30.6928 27.0385 30.6096 27.3495 30.5694C27.6577 30.5291 28.0999 30.5521 28.5479 30.7216C28.9959 30.891 29.3468 31.1667 29.5494 31.4022C29.7577 31.6377 29.8348 31.8158 29.8205 31.8244Z" fill="white"/>
<path d="M19.4878 50.4574C19.4878 50.4574 19.3908 50.443 19.2282 50.3884C19.0627 50.3367 18.8315 50.2448 18.5462 50.1185C17.9813 49.8686 17.2251 49.4522 16.4747 48.8721C15.7271 48.2891 15.1337 47.6601 14.7485 47.1748C14.5544 46.9306 14.4089 46.7267 14.3148 46.5803C14.2206 46.4338 14.1721 46.3505 14.1807 46.3448C14.2006 46.3304 14.4232 46.6406 14.8255 47.1058C15.2278 47.5711 15.8242 48.1771 16.5603 48.7543C17.2993 49.3258 18.0355 49.7509 18.5833 50.0237C19.1311 50.2965 19.4878 50.4344 19.4792 50.4602L19.4878 50.4574Z" fill="white"/>
<path d="M15.3044 58.4068C15.293 58.424 15.0876 58.3034 14.7766 58.0852C14.4627 57.8669 14.0433 57.5452 13.6067 57.1575C13.1702 56.7698 12.7964 56.3936 12.5424 56.1093C12.2856 55.825 12.143 55.6354 12.1572 55.6239C12.1886 55.5952 12.8363 56.2787 13.7066 57.0455C14.574 57.8152 15.333 58.3695 15.3073 58.4068H15.3044Z" fill="white"/>
<path d="M12.7107 67.8755C12.7107 67.8755 12.4938 67.7549 12.2 67.4878C11.9061 67.2236 11.5294 66.8187 11.1785 66.3247C10.8275 65.8307 10.5622 65.3483 10.3881 64.995C10.2141 64.6389 10.1256 64.412 10.1427 64.4034C10.1884 64.3804 10.6135 65.2621 11.3012 66.2385C11.986 67.2207 12.7421 67.8411 12.7135 67.8755H12.7107Z" fill="white"/>
<path d="M54.2413 39.2023C54.2413 39.2023 54.1271 39.2913 53.9046 39.4292C53.6849 39.5699 53.351 39.7537 52.9316 39.9605C52.5122 40.1702 51.9957 40.3827 51.4108 40.5866C50.823 40.7819 50.1639 40.9657 49.462 41.0978C48.7572 41.2241 48.0781 41.2931 47.4589 41.3189C46.8398 41.339 46.2805 41.3218 45.8154 41.2787C45.3504 41.2385 44.9737 41.1839 44.7169 41.1322C44.4601 41.0834 44.3203 41.049 44.3203 41.0403C44.3203 41.0289 44.4658 41.0403 44.7255 41.0748C44.9823 41.1093 45.3589 41.1466 45.8212 41.1724C46.2834 41.204 46.8398 41.2069 47.4504 41.1811C48.0639 41.1466 48.7344 41.0777 49.4334 40.9513C50.1296 40.8192 50.7831 40.644 51.3651 40.4573C51.9472 40.2621 52.4637 40.061 52.8859 39.8657C53.3082 39.6733 53.6478 39.5067 53.876 39.3804C54.1072 39.2569 54.2356 39.1937 54.2413 39.2023Z" fill="white"/>
<path d="M45.4888 35.8451C45.503 35.8795 44.7983 36.1638 43.8738 36.2328C42.9493 36.3074 42.2075 36.1323 42.2189 36.0978C42.2246 36.0518 42.9607 36.1581 43.8624 36.0834C44.7669 36.0174 45.4774 35.802 45.4888 35.8451Z" fill="white"/>
<path d="M48.6633 32.3557C48.6633 32.3816 48.4007 32.3586 47.9899 32.393C47.579 32.4246 47.0112 32.5338 46.432 32.7865C45.8556 33.0392 45.3877 33.381 45.0824 33.6624C44.777 33.941 44.6144 34.1478 44.5944 34.1305C44.583 34.1219 44.7143 33.8922 45.011 33.5849C45.3049 33.2776 45.7757 32.91 46.372 32.6486C46.9684 32.3902 47.559 32.2925 47.9813 32.2868C48.4065 32.281 48.6632 32.3385 48.6604 32.3557H48.6633Z" fill="white"/>
<path d="M49.9192 31.2931C49.9421 31.3247 49.7081 31.5171 49.3514 31.5631C48.9948 31.6119 48.718 31.4855 48.7351 31.4511C48.7465 31.408 49.0119 31.4597 49.3343 31.4166C49.6539 31.3764 49.8993 31.2586 49.9221 31.296L49.9192 31.2931Z" fill="white"/>
<path d="M55.5647 25.6785C55.5647 25.6785 55.5076 25.7647 55.3878 25.9054C55.268 26.0461 55.0854 26.2385 54.8514 26.4711C54.3834 26.9335 53.6986 27.5395 52.8798 28.1225C52.058 28.7055 51.2648 29.1535 50.6741 29.4407C50.3803 29.5843 50.1349 29.6934 49.9665 29.7624C49.7953 29.8313 49.7012 29.8629 49.6955 29.8543C49.6869 29.8313 50.0521 29.659 50.6256 29.3459C51.202 29.0358 51.981 28.5763 52.7942 27.999C53.6073 27.4217 54.2978 26.8359 54.78 26.3936C55.2651 25.9513 55.5504 25.6641 55.5676 25.6785H55.5647Z" fill="white"/>
<path d="M60.9873 27.0656C60.9873 27.0656 60.9473 27.1948 60.8475 27.4217C60.7504 27.6486 60.5935 27.9674 60.3795 28.3522C59.9544 29.1219 59.2724 30.1357 58.3537 31.115C57.432 32.0914 56.4648 32.8353 55.7258 33.3034C55.3577 33.5389 55.0495 33.717 54.8298 33.8232C54.613 33.9352 54.4903 33.9927 54.4846 33.9812C54.4789 33.9726 54.593 33.8979 54.8013 33.7715C55.0096 33.648 55.3092 33.4585 55.6687 33.2144C56.3877 32.7261 57.335 31.9766 58.2481 31.0116C59.1583 30.0409 59.8459 29.0472 60.2911 28.2977C60.5136 27.9243 60.6848 27.6141 60.7961 27.3959C60.9102 27.1805 60.9787 27.0627 60.9873 27.0656Z" fill="white"/>
<path d="M61.2921 23.1254C61.3092 23.1254 61.2921 23.3666 61.178 23.7371C61.0667 24.1075 60.8413 24.6015 60.476 25.0668C60.1108 25.532 59.6857 25.8709 59.3547 26.0662C59.0237 26.2644 58.7954 26.3361 58.7897 26.3189C58.7612 26.2758 59.6514 25.891 60.359 24.9749C61.0809 24.0673 61.2436 23.1081 61.2892 23.1254H61.2921Z" fill="white"/>
<path d="M47.2318 28.3752C47.229 28.4011 46.9922 28.3666 46.6098 28.3752C46.2303 28.3839 45.7053 28.4499 45.1603 28.6452C44.6154 28.8434 44.1674 29.1277 43.8706 29.3632C43.5711 29.5987 43.4084 29.7767 43.3913 29.7595C43.3799 29.7509 43.514 29.547 43.8022 29.2828C44.0904 29.0185 44.5469 28.7084 45.109 28.5045C45.6739 28.3006 46.2218 28.2489 46.6098 28.269C47.0007 28.2891 47.2318 28.358 47.229 28.3752H47.2318Z" fill="white"/>
<path d="M43.6452 31.3304C43.6167 31.3649 43.2286 31.0518 42.6694 30.8135C42.113 30.5722 41.6193 30.5062 41.625 30.4631C41.625 30.4258 42.1472 30.4229 42.7293 30.6756C43.3142 30.9226 43.6737 31.3046 43.6452 31.3276V31.3304Z" fill="white"/>
<path d="M55.6145 47.3385C55.6145 47.3385 55.5574 47.3988 55.4376 47.4878C55.3178 47.5768 55.1351 47.6946 54.904 47.8267C54.4418 48.0909 53.7598 48.3925 52.9638 48.5849C52.1677 48.7744 51.4258 48.8175 50.8923 48.7917C50.6269 48.7802 50.4101 48.7572 50.2645 48.7314C50.1162 48.7084 50.0363 48.6883 50.0391 48.6797C50.042 48.6538 50.3673 48.6883 50.8951 48.6854C51.4201 48.6854 52.1506 48.6251 52.9295 48.4384C53.7085 48.2489 54.3847 47.9703 54.8555 47.7319C55.3263 47.4936 55.6031 47.3155 55.6174 47.3385H55.6145Z" fill="white"/>
<path d="M56.42 54.4263C56.42 54.4263 56.2716 54.6245 55.9578 54.8629C55.6439 55.1012 55.1674 55.3769 54.591 55.5607C54.0147 55.7417 53.4668 55.7905 53.0731 55.7761C52.6793 55.7618 52.4425 55.7043 52.4453 55.6871C52.4453 55.6383 53.4212 55.7819 54.5454 55.4171C55.6753 55.0668 56.3915 54.3832 56.42 54.4263Z" fill="white"/>
<path d="M57.2019 64.5268C57.2019 64.5268 57.1077 64.5642 56.9337 64.6073C56.7596 64.6503 56.5028 64.6963 56.1833 64.7336C55.5441 64.814 54.6453 64.8313 53.6695 64.6762C52.6937 64.5182 51.8462 64.2167 51.2641 63.9381C50.9731 63.8002 50.742 63.6768 50.5908 63.5791C50.4367 63.4843 50.3539 63.4269 50.3597 63.4183C50.3711 63.3953 50.7192 63.5906 51.307 63.8405C51.8947 64.0903 52.7336 64.3689 53.6923 64.5268C54.651 64.6791 55.5355 64.6791 56.1718 64.6274C56.8081 64.5785 57.1962 64.501 57.2019 64.5268Z" fill="white"/>
<path d="M57.6007 71.428C57.6007 71.428 57.5122 71.497 57.3382 71.5946C57.167 71.6951 56.9044 71.8244 56.5763 71.9651C55.9201 72.2494 54.9671 72.5452 53.8799 72.6773C52.7928 72.8037 51.797 72.7348 51.0951 72.6113C50.7442 72.551 50.4617 72.4878 50.2705 72.4275C50.0793 72.3729 49.9738 72.3356 49.9766 72.3269C49.9823 72.3011 50.4103 72.4131 51.1122 72.5079C51.8113 72.6027 52.7928 72.6543 53.8657 72.5309C54.9357 72.4016 55.8801 72.1259 56.5392 71.8703C57.2012 71.6147 57.5892 71.4079 57.6007 71.4309V71.428Z" fill="white"/>
<path d="M39.5823 2.90711C39.2598 2.20349 38.7206 1.56018 37.9873 1.32468C37.2568 1.08631 36.3352 1.37063 36.0156 2.07425L37.739 4.03002C37.9159 4.31147 38.1528 4.56707 38.4581 4.70492C38.7605 4.84277 39.1371 4.84277 39.4111 4.65323C39.6707 4.4723 39.8048 4.1449 39.8105 3.82612C39.8162 3.50733 39.7135 3.19717 39.5823 2.90711Z" fill="#F5F8FD"/>
<path d="M44.3856 11.7756C44.0888 8.45853 42.3483 5.23624 39.5578 3.44704C36.7672 1.65784 32.9524 1.47978 30.159 3.26324C28.3842 4.39764 27.1088 6.21844 26.3727 8.20293C25.6394 10.1874 25.9561 11.8302 25.9732 13.9468C25.9817 15.0438 26.1216 17.9904 27.0603 18.5447L41.7349 21.1955C43.6152 18.4557 44.6795 15.0926 44.3827 11.7785L44.3856 11.7756Z" fill="#263238"/>
<path d="M43.8645 9.23105C43.5364 7.26092 41.6218 5.34536 40.1324 4.02428C38.4318 2.51652 38.1922 2.58545 35.9266 2.52801C33.5384 2.4677 30.9276 2.47631 29.0616 3.9812C28.0287 4.81405 27.3582 6.01738 26.8189 7.23507C25.5748 10.0495 25.766 13.2632 26.1455 16.3189C26.525 19.3746 27.1698 22.2609 29.6551 24.0559L40.101 22.4275C42.4065 21.5688 43.174 18.918 43.8246 16.5343C44.4751 14.1506 44.2697 11.6693 43.8617 9.23105H43.8645Z" fill="#263238"/>
<path d="M26.504 11.1925C26.6495 8.30053 29.7083 5.37692 32.573 5.64688L41.8719 7.30972L41.8605 8.86343L40.9589 31.3361C33.6144 34.1592 30.6556 30.8364 30.6556 30.8364L31.1692 26.1006C31.1692 26.1006 27.4941 25.532 26.6752 20.7244C26.27 18.335 26.3414 14.4062 26.504 11.1925Z" fill="#FFBE9D"/>
<path d="M27.6739 14.8657C27.751 14.9461 28.2132 14.5929 28.8723 14.5872C29.5314 14.5728 30.0193 14.9088 30.0907 14.8255C30.1249 14.7882 30.045 14.6446 29.8339 14.4924C29.6256 14.3402 29.2689 14.1966 28.858 14.2023C28.4472 14.2109 28.1019 14.366 27.905 14.524C27.7024 14.6819 27.6368 14.8284 27.6739 14.8657Z" fill="#263238"/>
<path d="M34.2831 14.702C34.3601 14.7824 34.8224 14.4292 35.4815 14.4235C36.1406 14.4091 36.6285 14.7451 36.6998 14.6618C36.7341 14.6245 36.657 14.4809 36.443 14.3287C36.2347 14.1765 35.8781 14.0329 35.4672 14.0386C35.0563 14.0472 34.7111 14.2023 34.5142 14.3603C34.3145 14.5182 34.246 14.6676 34.2831 14.702Z" fill="#263238"/>
<path d="M31.1719 26.115C31.1719 26.115 34.5559 26.273 37.7231 24.3057C37.7231 24.3057 36.148 27.6975 31.189 27.3155L31.1719 26.115Z" fill="#EB996E"/>
<path d="M36.8242 11.9076C36.8127 11.7152 36.1565 11.6061 35.4432 11.293C34.7213 10.9944 34.1877 10.5952 34.0422 10.7187C33.9766 10.779 34.0308 10.9743 34.2248 11.2155C34.416 11.4539 34.7498 11.7296 35.1807 11.9134C35.6115 12.0972 36.0395 12.1489 36.3448 12.1201C36.6501 12.0914 36.827 11.9967 36.827 11.9076H36.8242Z" fill="#263238"/>
<path d="M29.8073 10.8795C29.6161 10.8049 29.1881 11.184 28.5975 11.4769C28.0154 11.7871 27.4561 11.9134 27.4076 12.1116C27.3905 12.2064 27.5332 12.304 27.8157 12.327C28.0924 12.35 28.5062 12.281 28.9085 12.0743C29.3108 11.8675 29.6075 11.5717 29.7473 11.3333C29.89 11.0921 29.8929 10.9197 29.8073 10.8795Z" fill="#263238"/>
<path d="M29.7208 4.30574C27.9574 5.5062 26.7391 7.48495 26.1484 9.65325L26.4395 11.4338C26.8532 10.5723 26.9046 9.6475 27.7491 8.76295C28.317 8.16847 29.367 7.60844 30.4826 7.32412C33.6698 6.5085 34.7454 5.3425 36.1521 3.24601C34.0863 2.72619 31.4841 3.10241 29.7208 4.30574Z" fill="#263238"/>
<path d="M43.4815 9.01281C42.5941 5.79627 39.6923 3.24314 36.4053 2.78363L36.1456 3.24601C35.3381 4.19661 34.5306 5.14434 33.7231 6.09495C33.5206 6.33332 33.3123 6.58604 33.2666 6.89621C33.2067 7.30977 33.4606 7.71183 33.7831 7.97605C34.5506 8.60787 35.6263 8.64808 36.6193 8.67392C37.6122 8.69977 38.6965 8.78306 39.4183 9.46657C40.3171 10.3195 40.3 11.767 39.9947 12.9703C39.6923 14.1765 39.5724 16.1208 39.698 17.3557C39.8093 18.4643 41.2644 15.7704 42.2231 16.3304C42.4914 16.4855 41.7695 20.8365 42.0491 20.7044C42.323 20.5723 42.2973 19.0071 42.3886 18.7141C42.8794 17.1375 43.373 15.555 43.6355 13.9238C43.898 12.2925 43.9209 10.601 43.4815 9.00994V9.01281Z" fill="#263238"/>
<path d="M41.5349 19.2138C41.5349 19.2138 41.5835 19.254 41.6691 19.3C41.7518 19.3459 41.8945 19.3804 42.0514 19.3344C42.371 19.2397 42.6649 18.7601 42.7134 18.2259C42.739 17.9559 42.6991 17.6946 42.6192 17.4763C42.545 17.2523 42.4138 17.0915 42.2597 17.0541C42.1056 17.0082 41.9886 17.0943 41.9487 17.1748C41.903 17.2552 41.9173 17.3155 41.903 17.3184C41.8945 17.3241 41.8431 17.2638 41.8745 17.1432C41.8916 17.0857 41.9287 17.0168 42.0029 16.9651C42.0771 16.9105 42.1826 16.8904 42.2911 16.9077C42.5165 16.9393 42.7077 17.1633 42.7961 17.4045C42.8988 17.6458 42.9473 17.9416 42.9188 18.2431C42.8617 18.8405 42.5193 19.3775 42.0856 19.4723C41.8745 19.5125 41.7061 19.4378 41.6205 19.3632C41.5349 19.2827 41.5235 19.2167 41.5349 19.2109V19.2138Z" fill="#EB996E"/>
<path d="M41.5159 5.12134C41.5159 5.12134 41.9895 5.64116 42.5659 6.61761C42.8598 7.10296 43.1508 7.71181 43.4304 8.40681C43.7043 9.10468 43.9298 9.9002 44.0867 10.7532C44.4063 12.4619 44.275 14.0559 44.0382 15.1587C44.0154 15.2994 43.9783 15.4286 43.944 15.5521C43.9098 15.6756 43.8784 15.7905 43.8499 15.8996C43.7957 16.1179 43.7243 16.2988 43.6701 16.4482C43.6159 16.5889 43.5759 16.7038 43.5417 16.7899C43.5103 16.8675 43.4932 16.9077 43.4904 16.9077C43.4904 16.9077 43.4989 16.8646 43.5246 16.7842C43.5531 16.698 43.5902 16.5803 43.6359 16.4367C43.6844 16.2873 43.7529 16.1064 43.8014 15.8853C43.8299 15.7761 43.8584 15.6613 43.8898 15.5378C43.9212 15.4143 43.9554 15.285 43.9754 15.1443C44.1951 14.0415 44.315 12.4619 43.9954 10.7675C43.8385 9.92318 43.6187 9.13053 43.3505 8.43553C43.0795 7.7434 42.7941 7.13455 42.5088 6.64633C42.4403 6.52283 42.3719 6.40796 42.3091 6.29595C42.2406 6.18969 42.175 6.08918 42.1151 5.9944C42.0551 5.89963 41.9981 5.81347 41.9467 5.73306C41.8954 5.65265 41.8411 5.58372 41.7955 5.52054C41.707 5.39704 41.6386 5.2994 41.5843 5.22473C41.5358 5.1558 41.513 5.11847 41.5159 5.11847V5.12134Z" fill="#455A64"/>
<path d="M41.7979 6.02313C41.7979 6.02313 41.7979 6.05472 41.7808 6.11503C41.7637 6.17247 41.7323 6.25863 41.6638 6.3534C41.5325 6.54869 41.2444 6.74685 40.8563 6.87896C40.4654 7.0082 39.9975 7.12307 39.4725 7.24082C38.9475 7.35283 38.3625 7.45047 37.7405 7.49642C37.1185 7.5395 36.525 7.5194 35.9886 7.44473C35.455 7.37006 34.9814 7.24082 34.599 7.09723C34.2167 6.95363 33.9228 6.79855 33.7288 6.6808C33.6289 6.62336 33.5576 6.57167 33.509 6.5372C33.4605 6.50274 33.4349 6.48264 33.4377 6.47977C33.4434 6.47115 33.549 6.54008 33.7487 6.64921C33.9485 6.75547 34.2423 6.90194 34.6247 7.03692C35.0042 7.1719 35.475 7.28965 36.0028 7.36144C36.5307 7.43037 37.1213 7.4476 37.7376 7.40452C38.9674 7.31262 40.0631 7.03692 40.8392 6.81865C41.2215 6.69516 41.504 6.51423 41.6381 6.3333C41.7779 6.15524 41.7865 6.02026 41.8008 6.026L41.7979 6.02313Z" fill="#455A64"/>
<path d="M41.2682 5.00077C41.2682 5.00077 41.2539 5.02374 41.2197 5.06108C41.1854 5.09841 41.1369 5.15585 41.0656 5.21903C40.9258 5.35114 40.7089 5.52633 40.4122 5.70151C39.8244 6.05476 38.8885 6.3477 37.8414 6.35344C36.7913 6.35918 35.864 6.14379 35.2021 5.98009C34.8711 5.89681 34.6057 5.82214 34.4231 5.76757C34.2405 5.713 34.1406 5.68141 34.1406 5.67567C34.1406 5.66992 34.2462 5.69003 34.4317 5.73311C34.6314 5.77906 34.8968 5.84224 35.2163 5.91691C35.8783 6.06338 36.8028 6.26728 37.8385 6.26154C38.8714 6.25579 39.793 5.97722 40.3808 5.64408C40.9743 5.31381 41.2539 4.98354 41.2682 5.00077Z" fill="#455A64"/>
<path d="M40.6625 4.67046C40.6625 4.67046 40.5912 4.70206 40.4542 4.74226C40.3173 4.78534 40.1204 4.83416 39.8693 4.88873C39.3728 4.99499 38.6738 5.08976 37.8948 5.08689C37.1187 5.08115 36.4197 4.97776 35.9232 4.86575C35.6749 4.81119 35.4752 4.75662 35.3411 4.71354C35.207 4.67046 35.1328 4.64462 35.1328 4.63887C35.1328 4.63313 35.2127 4.64749 35.3497 4.67908C35.4866 4.71354 35.6864 4.75662 35.9346 4.80257C36.4311 4.89735 37.1244 4.98925 37.8948 4.99499C38.6652 4.99786 39.3586 4.91458 39.855 4.82555C40.1033 4.78247 40.303 4.73939 40.4428 4.7078C40.5798 4.67621 40.6597 4.66185 40.6597 4.67046H40.6625Z" fill="#455A64"/>
<path d="M36.6827 2.6283C36.6827 2.6283 36.6667 2.68193 36.6256 2.77528C36.5846 2.86863 36.5184 2.99972 36.4271 3.15862C36.2445 3.47642 35.9456 3.8975 35.5371 4.31064C35.1264 4.72179 34.6905 5.03958 34.3551 5.24218C34.1885 5.34348 34.047 5.42094 33.9466 5.46861C33.8462 5.51826 33.7914 5.5421 33.7891 5.53813C33.7869 5.53415 33.8371 5.50237 33.9329 5.44676C34.0287 5.39313 34.1634 5.30971 34.3254 5.20444C34.6517 4.9939 35.0762 4.67412 35.4824 4.26694C35.8863 3.85976 36.1875 3.44662 36.3815 3.13479C36.4773 2.97986 36.5526 2.85274 36.6005 2.76137C36.6484 2.67199 36.6781 2.62234 36.6827 2.62432V2.6283Z" fill="#455A64"/>
<path d="M26.2635 8.51024C26.2635 8.51024 26.2778 8.48152 26.3149 8.4327C26.352 8.38388 26.4033 8.31208 26.4747 8.22305C26.6173 8.04499 26.8313 7.79226 27.1167 7.49933C27.402 7.20639 27.7672 6.87899 28.2095 6.56883C28.432 6.41662 28.6746 6.26728 28.9371 6.1323C29.1996 6.00019 29.482 5.88244 29.7788 5.7848C30.9686 5.39422 32.1214 5.35401 32.9288 5.43729C33.334 5.4775 33.6593 5.53781 33.8818 5.59238C33.9931 5.61535 34.0787 5.64407 34.1358 5.65843C34.1929 5.67566 34.2242 5.68428 34.2214 5.69002C34.2214 5.69577 34.0958 5.66992 33.8733 5.62684C33.6507 5.58376 33.3255 5.53207 32.9231 5.50048C32.1185 5.43442 30.9829 5.48324 29.8073 5.86808C28.6261 6.2443 27.733 6.97664 27.1595 7.53953C26.8684 7.82385 26.6487 8.06797 26.4975 8.24028C26.429 8.32069 26.3719 8.38388 26.3234 8.43844C26.2835 8.48439 26.2607 8.5045 26.2578 8.5045L26.2635 8.51024Z" fill="#455A64"/>
<path d="M28.4745 5.3253C28.4745 5.3253 28.5515 5.26786 28.6999 5.17596C28.7741 5.13001 28.8654 5.07544 28.9766 5.01801C29.0879 4.96057 29.2106 4.89164 29.3533 4.83133C29.4959 4.76815 29.65 4.69635 29.8241 4.63604C29.9953 4.56712 30.1836 4.51255 30.3805 4.45224C30.7771 4.34311 31.2222 4.2512 31.6958 4.20238C32.1695 4.1593 32.6232 4.16218 33.034 4.19089C33.2395 4.211 33.4335 4.22823 33.6133 4.26269C33.7959 4.28854 33.9614 4.32587 34.1126 4.36034C34.2667 4.39193 34.3979 4.43501 34.5178 4.46947C34.6376 4.50106 34.7375 4.5384 34.8174 4.56999C34.98 4.6303 35.0684 4.66763 35.0656 4.67338C35.0656 4.67912 34.9714 4.65327 34.8059 4.60445C34.7232 4.5786 34.6233 4.54701 34.5035 4.51829C34.3837 4.48957 34.2495 4.44937 34.0983 4.42352C33.9471 4.39193 33.7816 4.35747 33.6018 4.33736C33.4221 4.30577 33.2281 4.29428 33.0255 4.27418C32.6175 4.24833 32.1695 4.24833 31.7015 4.29428C31.2336 4.34311 30.7942 4.43214 30.3976 4.53552C30.2036 4.59296 30.0152 4.64466 29.844 4.70784C29.6728 4.76528 29.5159 4.83133 29.3732 4.88877C29.2277 4.94334 29.105 5.00939 28.9938 5.06108C28.8825 5.11278 28.7883 5.1616 28.7113 5.20468C28.5601 5.28509 28.4716 5.32817 28.4688 5.3253H28.4745Z" fill="#455A64"/>
<path d="M31.3401 10.2219C31.3401 10.2219 31.4257 10.2592 31.4885 10.3827C31.5513 10.5033 31.5884 10.7072 31.5142 10.914C31.44 11.1208 31.2802 11.25 31.1547 11.3046C31.0291 11.3591 30.9407 11.3505 30.9378 11.3333C30.9321 11.3103 31.0063 11.2845 31.1033 11.2127C31.1975 11.1437 31.3144 11.026 31.3744 10.8652C31.4314 10.7015 31.4172 10.5349 31.3886 10.4229C31.3601 10.308 31.3202 10.2391 31.3401 10.2247V10.2219Z" fill="#EB996E"/>
<path d="M32.3016 11.4108C32.3016 11.4108 32.2132 11.3879 32.1304 11.2759C32.0477 11.1667 31.9821 10.9772 31.9935 10.7675C32.0077 10.5579 32.0991 10.377 32.1932 10.2793C32.2874 10.1788 32.3701 10.1529 32.3787 10.1673C32.4044 10.1989 32.159 10.4057 32.1419 10.7762C32.1105 11.1438 32.3302 11.3821 32.3016 11.4108Z" fill="#EB996E"/>
<path d="M23.4942 66.2615C23.4942 66.2615 14.5091 62.2983 11.8812 62.2121C9.63565 62.1374 5.78368 63.1541 4.6766 65.5493C3.56952 67.9473 3.90906 71.2041 4.68516 72.4304C5.46126 73.6567 13.5504 77.5711 17.428 79.076C21.3057 80.5809 33.5464 83.9266 33.5464 83.9266L50.7176 82.8123C50.7176 82.8123 55.7765 78.4269 56.5526 77.5338C57.3287 76.6406 62.5074 71.7497 63.0638 70.9686C63.6174 70.1874 65.121 65.3396 63.4604 63.4442C61.7998 61.5487 60.707 60.3511 58.3245 60.5206C55.942 60.6871 54.307 60.9772 51.3025 63.1857C48.9913 64.8859 48.0554 65.5349 45.71 66.072C43.3674 66.6119 38.7651 67.9847 35.0301 67.6774C31.298 67.3701 23.4913 66.2586 23.4913 66.2586L23.4942 66.2615Z" fill="#263238"/>
<path d="M15.0625 65.7417C15.0625 65.7417 15.091 65.7503 15.1395 65.7733C15.1966 65.7991 15.2679 65.8336 15.3592 65.8767C15.559 65.9743 15.8386 66.1122 16.1953 66.2874C16.9286 66.655 17.97 67.1805 19.254 67.8267C20.5437 68.4815 22.0759 69.2655 23.7679 70.1587C25.4571 71.0605 27.3089 72.0484 29.2577 73.0881C31.9912 74.5499 34.542 75.914 36.682 77.057L36.7362 77.0858L36.7105 77.1403C35.6976 79.1794 34.8559 80.8767 34.2624 82.0743C33.9685 82.6601 33.7374 83.1225 33.5748 83.4499C33.4977 83.6021 33.4378 83.7199 33.3921 83.8118C33.3493 83.8922 33.3294 83.9353 33.3265 83.9353C33.3237 83.9353 33.3379 83.8893 33.375 83.806C33.4178 83.7141 33.472 83.5906 33.5434 83.4356C33.7003 83.1053 33.9229 82.6372 34.2025 82.0455C34.7846 80.8422 35.612 79.1363 36.605 77.0858L36.6306 77.169C34.485 76.0289 31.9312 74.6705 29.1949 73.2173C27.249 72.1777 25.3886 71.1955 23.7137 70.2793C22.0274 69.3804 20.498 68.5878 19.2141 67.9215C17.9386 67.2581 16.9029 66.721 16.1753 66.3419C15.8243 66.1581 15.5476 66.0117 15.3507 65.9083C15.2622 65.8594 15.1938 65.8221 15.1367 65.7934C15.0882 65.7675 15.0654 65.7503 15.0654 65.7503L15.0625 65.7417Z" fill="#455A64"/>
<path d="M48.6058 66.5803C48.6058 66.5803 48.5858 66.5976 48.5459 66.6263C48.4974 66.6607 48.4346 66.7009 48.3576 66.7526C48.1921 66.8646 47.9467 67.0226 47.6271 67.2208C46.9851 67.6142 46.0521 68.18 44.8423 68.7802C43.6382 69.3804 42.1516 70.018 40.4254 70.4689C39.5608 70.6929 38.6392 70.8652 37.6719 70.96C36.7047 71.049 35.6975 71.0634 34.6703 71.0059C32.613 70.8796 30.6842 70.4775 28.9722 69.9922C27.2574 69.5068 25.7537 68.9439 24.5011 68.4471C23.2513 67.9502 22.2498 67.5166 21.5593 67.215C21.2226 67.0657 20.9573 66.9479 20.7661 66.8646C20.6834 66.8244 20.6149 66.7957 20.5607 66.7699C20.515 66.7469 20.4922 66.7354 20.4922 66.7325C20.4922 66.7325 20.5179 66.7383 20.5664 66.7555C20.6206 66.7756 20.6919 66.8043 20.7775 66.8359C20.9715 66.9135 21.2398 67.0226 21.5793 67.1633C22.2755 67.4476 23.2799 67.8669 24.5353 68.3523C25.7908 68.8348 27.2945 69.3862 29.0036 69.8658C30.7127 70.3425 32.633 70.7389 34.676 70.8652C35.6975 70.9227 36.6961 70.9112 37.6548 70.8221C38.6135 70.7302 39.5294 70.5637 40.3883 70.3454C42.106 69.9031 43.5869 69.2828 44.7938 68.6941C46.0036 68.1082 46.9452 67.5568 47.5929 67.1777C47.9096 66.9881 48.1578 66.8417 48.3376 66.7325C48.4175 66.6866 48.4803 66.6492 48.5316 66.6177C48.5773 66.5918 48.6001 66.5803 48.6001 66.5832L48.6058 66.5803Z" fill="#455A64"/>
<path d="M36.4018 75.7216C36.4018 75.7216 36.3704 75.624 36.339 75.4402C36.3076 75.2592 36.2762 74.9921 36.2534 74.6647C36.2021 74.0071 36.2078 73.0938 36.2705 72.0886C36.3362 71.0863 36.4246 70.1817 36.4731 69.5269C36.5273 68.8721 36.5502 68.4672 36.573 68.4672C36.5844 68.4672 36.5901 68.5706 36.5901 68.7544C36.593 68.9382 36.5901 69.2052 36.5758 69.5355C36.5502 70.1932 36.4788 71.1007 36.4132 72.1001C36.3476 73.0996 36.3276 74.0042 36.3533 74.659C36.3761 75.3138 36.4218 75.7187 36.3989 75.7216H36.4018Z" fill="#455A64"/>
<path d="M44.8582 66.8388C44.8639 66.8618 44.5101 66.968 43.9508 67.1719C43.3887 67.373 42.6269 67.6803 41.8137 68.0909C41.0034 68.5016 40.3014 68.9382 39.8078 69.2713C39.3113 69.6044 39.0146 69.8256 39.0003 69.8083C38.9946 69.7997 39.0603 69.7365 39.1887 69.6274C39.3142 69.5183 39.5054 69.3661 39.7479 69.188C40.2301 68.8319 40.9292 68.3781 41.7481 67.9617C42.567 67.5481 43.3431 67.2523 43.9166 67.0743C44.2019 66.9852 44.4359 66.9192 44.6014 66.8847C44.764 66.8474 44.8553 66.8302 44.8582 66.8417V66.8388Z" fill="#455A64"/>
<path d="M55.1166 62.3011C55.1166 62.3011 55.0481 62.3528 54.9111 62.439C54.7627 62.5309 54.563 62.6544 54.3091 62.8123C54.0437 62.9674 53.727 63.1713 53.3646 63.4126C52.9965 63.6481 52.5828 63.9209 52.132 64.2368C51.2218 64.8514 50.1661 65.6297 48.9991 66.497C47.8378 67.3729 46.5738 68.3523 45.247 69.3833C43.923 70.4172 42.6533 71.3936 41.492 72.2695C40.3222 73.1369 39.2636 73.9123 38.3477 74.524C37.894 74.837 37.4774 75.107 37.1065 75.3425C36.7384 75.5809 36.4188 75.779 36.1535 75.9312C35.8967 76.0806 35.6912 76.1983 35.54 76.2874C35.4002 76.3678 35.3232 76.408 35.3203 76.4022C35.3203 76.3965 35.3888 76.3505 35.5229 76.2615C35.6713 76.1667 35.871 76.0432 36.1221 75.8824C36.3846 75.7216 36.6985 75.5177 37.0608 75.2736C37.4261 75.0352 37.8398 74.7595 38.2878 74.4407C39.1951 73.8175 40.2451 73.0363 41.4093 72.1633C42.5677 71.2816 43.8317 70.3023 45.1557 69.2684C46.4796 68.2374 47.7493 67.2609 48.9163 66.3879C50.089 65.5263 51.1505 64.7566 52.0721 64.1507C52.5258 63.8405 52.948 63.5734 53.319 63.3436C53.687 63.1081 54.0095 62.9129 54.2777 62.7635C54.5373 62.617 54.7428 62.4993 54.894 62.4131C55.0367 62.3356 55.1108 62.2954 55.1137 62.3011H55.1166Z" fill="#455A64"/>
<path d="M62.2514 68.5045C62.2514 68.5045 62.2514 68.5274 62.2372 68.5676C62.22 68.6165 62.2029 68.6768 62.1801 68.7514C62.1259 68.9123 62.0517 69.1506 61.9233 69.4464C61.6779 70.0409 61.2585 70.8853 60.5737 71.8158C60.2313 72.281 59.8261 72.7664 59.3439 73.246C58.8645 73.7256 58.3224 74.2081 57.7061 74.6561C56.482 75.5636 54.9783 76.339 53.3177 76.9048C51.66 77.4792 50.0364 77.8612 48.5698 78.2345C47.1032 78.605 45.7764 78.9238 44.6551 79.1593C43.5337 79.3948 42.6207 79.5527 41.9872 79.6446C41.6705 79.6906 41.4251 79.7222 41.2568 79.7394C41.1798 79.748 41.117 79.7537 41.0656 79.7595C41.0228 79.7624 41 79.7624 41 79.7595C41 79.7595 41.02 79.7509 41.0628 79.7423C41.1141 79.7336 41.1769 79.7222 41.2511 79.7078C41.428 79.6762 41.6705 79.636 41.9787 79.5843C42.6093 79.4752 43.5195 79.3029 44.6351 79.0559C45.7508 78.8089 47.0747 78.4786 48.5413 78.1024C50.005 77.7204 51.6257 77.3356 53.2749 76.7641C54.9241 76.2012 56.4136 75.4373 57.6319 74.5441C58.2454 74.1047 58.7847 73.628 59.264 73.157C59.7434 72.686 60.1514 72.2092 60.4966 71.7526C61.1871 70.8393 61.618 70.0093 61.8776 69.4235C62.0146 69.1334 62.0973 68.8979 62.1601 68.74C62.1887 68.6682 62.2115 68.6107 62.2315 68.5619C62.2486 68.5217 62.2571 68.5016 62.26 68.5016L62.2514 68.5045Z" fill="#455A64"/>
<path d="M63.0587 68.4212C63.0758 68.4269 63.0358 68.6452 62.916 68.9841C62.7962 69.323 62.5879 69.7767 62.2854 70.2334C61.9801 70.69 61.6406 71.0547 61.3724 71.2931C61.1042 71.5315 60.9187 71.6492 60.9073 71.6377C60.8759 71.6033 61.5692 71.0519 62.1656 70.153C62.7705 69.2598 63.0159 68.4068 63.0587 68.4212Z" fill="#455A64"/>
<path d="M32.5029 83.4528C32.5029 83.4528 32.5057 83.3465 32.5371 83.157C32.5685 82.9674 32.6227 82.6975 32.6997 82.3615C32.851 81.6952 33.1049 80.779 33.4644 79.7997C33.8268 78.8175 34.2291 77.9617 34.5458 77.3557C34.7056 77.0542 34.8397 76.8101 34.9367 76.6464C35.0337 76.4827 35.0937 76.3936 35.1022 76.3994C35.1222 76.4109 34.9282 76.7871 34.6371 77.4017C34.3432 78.0163 33.958 78.875 33.5985 79.8514C33.239 80.825 32.9736 81.7296 32.7967 82.3873C32.6198 83.045 32.52 83.4557 32.5 83.4528H32.5029Z" fill="#455A64"/>
<path d="M11.0704 64.926C11.0647 64.9117 11.2645 64.814 11.6154 64.7336C11.9635 64.6532 12.4657 64.6073 13.0107 64.6791C13.5557 64.7537 14.0265 64.9347 14.3403 65.107C14.657 65.2793 14.8254 65.4258 14.814 65.4401C14.794 65.4832 14.055 64.9634 12.9907 64.8255C11.9264 64.6704 11.079 64.9749 11.0704 64.926Z" fill="#455A64"/>
<path d="M18.1021 79.2109C17.4259 79.2109 16.5813 79.7365 16.1505 80.2592C15.7196 80.7819 15.4542 81.4223 15.2003 82.0513C15.0034 82.5452 14.8065 83.1024 15.0034 83.5963C15.1889 84.0645 15.6911 84.3402 16.1875 84.4062C16.684 84.4723 17.1834 84.3689 17.677 84.2856C22.83 83.4125 28.1572 84.6877 33.3245 83.9036L18.0993 79.2109H18.1021Z" fill="#455A64"/>
<path d="M55.8046 80.1702C54.9885 79.0415 53.4135 78.806 52.0296 78.8807C50.9368 78.941 49.8497 79.1334 48.8025 79.4551C48.2547 79.6245 47.6869 79.8284 47.122 79.7251C46.6283 79.6332 46.2089 79.3144 45.7267 79.1736C44.8507 78.918 43.9348 79.277 43.036 79.435C40.7391 79.8342 38.4479 78.8778 36.3136 77.9416L33.7656 82.9272C36.2052 84.0157 38.3652 84.5068 40.9303 85.1357C43.2044 85.6929 45.584 85.5005 47.9266 85.5838C49.2648 85.6326 50.6087 85.7704 51.9383 85.6067C53.268 85.443 54.6119 84.9347 55.4793 83.9066C56.3467 82.8784 56.5921 81.2615 55.8046 80.1702Z" fill="#455A64"/>
<path d="M23.9901 16.4941C23.9901 16.4941 24.7262 15.7216 24.7862 15.3798C25.0002 14.1966 25.3654 13.5992 25.9589 13.2374C25.9589 13.2374 26.7378 14.5671 26.8177 16.833C26.8748 18.4499 26.9033 19.6733 26.9033 19.6733C26.9033 19.6733 27.7108 21.5975 27.3285 22.5826C26.9461 23.5676 26.4268 23.223 25.7078 22.9243C24.9887 22.6256 24.7348 21.4711 24.7348 21.4711L23.9844 21.4051V16.4941H23.9901Z" fill="#FFBE9D"/>
<path d="M25.9572 13.2402C25.9572 13.2402 25.9829 13.2661 26.0199 13.3264C26.057 13.3838 26.1113 13.4729 26.1683 13.5935C26.2853 13.829 26.428 14.188 26.545 14.6475C26.6648 15.107 26.759 15.6641 26.8274 16.2816C26.8588 16.5918 26.8931 16.9163 26.9273 17.2552C26.9644 17.5912 26.9758 17.9502 26.973 18.3092C26.973 18.6682 26.973 19.0157 27.0129 19.3459C27.05 19.6762 27.1442 19.9835 27.2412 20.2793C27.3382 20.5722 27.4352 20.8537 27.5008 21.1294C27.5721 21.3993 27.5864 21.675 27.5522 21.9134C27.4894 22.3901 27.3268 22.752 27.167 22.9674C27.0043 23.1885 26.8331 23.2173 26.836 23.2086C26.8303 23.1972 26.9787 23.1541 27.1185 22.9329C27.2554 22.7175 27.3981 22.3586 27.4466 21.8991C27.5179 21.4367 27.3125 20.9082 27.1128 20.3224C27.0129 20.0266 26.9102 19.7078 26.8702 19.3632C26.8246 19.0214 26.8246 18.6653 26.8246 18.3063C26.8246 17.9473 26.8189 17.6027 26.7818 17.2667C26.7504 16.9306 26.7219 16.6061 26.6905 16.2959C26.6277 15.6785 26.545 15.1271 26.4422 14.6704C26.3395 14.2138 26.214 13.8577 26.1141 13.6165C26.0142 13.3752 25.9429 13.2489 25.9543 13.2402H25.9572Z" fill="#EB996E"/>
<path d="M25.4244 16.7411C25.4159 16.7813 25.0307 16.744 24.5627 16.6578C24.0948 16.5716 23.7181 16.4682 23.7267 16.428C23.7353 16.3878 24.1205 16.4252 24.5884 16.5113C25.0563 16.5975 25.433 16.7009 25.4244 16.7411Z" fill="#EB996E"/>
<path d="M35.2892 67.9387C35.2892 67.9387 35.2378 67.9387 35.1465 67.933C35.0353 67.9215 34.9012 67.9042 34.7385 67.887C34.3847 67.8439 33.8711 67.775 33.2405 67.6831C31.9765 67.5022 30.2331 67.2294 28.3129 66.8991C26.3926 66.5659 24.6578 66.2357 23.408 65.9829C22.7832 65.8566 22.2753 65.7503 21.9272 65.6699C21.7674 65.6326 21.6361 65.601 21.5277 65.5751C21.4364 65.5522 21.3879 65.5378 21.3907 65.532C21.3907 65.5263 21.4421 65.532 21.5334 65.5464C21.6418 65.5636 21.7759 65.5866 21.9386 65.6125C22.3124 65.6785 22.8145 65.7675 23.428 65.8767C24.7063 66.1036 26.4325 66.4109 28.3385 66.7497C30.2503 67.0714 31.9765 67.3615 33.2576 67.5768C33.8711 67.6802 34.3733 67.7635 34.7499 67.8267C34.9126 67.8554 35.0438 67.8813 35.1551 67.9014C35.2464 67.9186 35.2949 67.933 35.2949 67.9387H35.2892Z" fill="#455A64"/>
<path d="M43.0938 12.7405C43.0938 12.7405 43.8927 14.748 43.887 15.5378C43.8813 16.3276 43.3506 18.3264 43.3506 18.3264L43.0966 12.7405H43.0938Z" fill="#FFBE9D"/>
<path d="M44.597 18.7802L43.4842 18.6193C43.4842 18.6193 43.1903 15.6613 43.2189 15.1989C43.2788 14.2684 43.0705 11.5659 42.711 11.2127C41.9549 10.4717 42.1232 15.1989 42.1232 15.1989C42.1232 13.9582 42.0519 12.3844 41.875 12.0599C41.5697 11.5056 41.2187 12.1202 41.2187 12.1202C41.2187 12.1202 40.5967 16.9364 40.5539 17.9731C40.5111 19.0099 40.4283 21.879 40.6281 22.4476C40.8392 23.0507 40.5967 23.2431 41.2672 23.1972C41.9377 23.1512 45.647 22.6974 45.647 22.6974L44.8253 18.7256" fill="#FFBE9D"/>
<path d="M41.2189 12.1202C41.2189 12.1202 41.2189 12.2896 41.1989 12.5969C41.1761 12.9042 41.1333 13.3465 41.0733 13.8921C40.9563 14.9835 40.7481 16.4855 40.5426 18.1455C40.4428 18.9754 40.3572 19.7681 40.3001 20.4889C40.2544 21.2098 40.166 21.8703 40.3115 22.3873C40.3657 22.6572 40.5369 22.8209 40.7252 22.9272C40.9078 23.0306 41.0847 23.088 41.2303 23.1196C41.5242 23.1857 41.6954 23.1569 41.6954 23.1713C41.6954 23.1742 41.6554 23.1885 41.5727 23.1943C41.4928 23.2029 41.3701 23.2 41.2189 23.177C41.0676 23.1512 40.8822 23.1024 40.6824 22.999C40.5826 22.9473 40.4827 22.8784 40.3942 22.7807C40.3029 22.6831 40.2487 22.5481 40.2088 22.416C40.0433 21.8674 40.126 21.1983 40.1631 20.4774C40.2116 19.7537 40.2944 18.9582 40.3942 18.1253C40.5997 16.4625 40.8251 14.9634 40.9678 13.8778C41.0362 13.3551 41.0962 12.9186 41.139 12.5912C41.1789 12.2867 41.2074 12.1202 41.216 12.1202H41.2189Z" fill="#EB996E"/>
<path d="M41.9818 16.5631C41.9504 16.5343 42.0702 16.3505 42.1044 16.0921C42.1444 15.8365 42.0816 15.624 42.1187 15.6067C42.1529 15.5837 42.2956 15.8078 42.25 16.1151C42.2072 16.4223 42.0046 16.5947 41.9818 16.5631Z" fill="#EB996E"/>
<path d="M42.0749 12.9473C42.1149 12.9416 42.2176 13.4269 42.2261 14.0358C42.2376 14.6446 42.1463 15.1328 42.1092 15.13C42.0664 15.1242 42.0892 14.6389 42.0778 14.0386C42.0692 13.4384 42.0321 12.9531 42.0749 12.9473Z" fill="#EB996E"/>
<path d="M43.2394 15.8336C43.2023 15.8336 43.1595 15.1587 43.111 14.323C43.0653 13.4872 43.0882 12.8037 43.131 12.8066C43.168 12.8066 43.2108 13.4815 43.2594 14.3172C43.305 15.1529 43.2822 15.8365 43.2394 15.8336Z" fill="#EB996E"/>
<path d="M44.9377 18.8319C44.9377 18.8721 44.3756 18.8922 43.6823 18.875C42.9889 18.8577 42.4297 18.8089 42.4297 18.7687C42.4297 18.7285 42.9918 18.7084 43.6851 18.7256C44.3785 18.7428 44.9377 18.7917 44.9377 18.8319Z" fill="#EB996E"/>
<path d="M32.3267 16.9996C32.0128 17.0197 31.2167 17.0513 30.6318 16.9077C30.589 16.8962 30.5548 16.9421 30.5776 16.9823C30.6803 17.1661 30.9229 17.5395 31.2567 17.6429C31.5905 17.7463 32.1441 17.2954 32.3638 17.0886C32.398 17.057 32.3723 16.9996 32.3267 17.0024V16.9996Z" fill="#E0A585"/>
<path d="M33.5166 21.5946C33.5166 21.5946 31.679 21.4855 29.6503 22.2609C29.5676 22.2925 29.4734 22.2494 29.4478 22.1633C29.4021 22.0139 29.4164 21.7871 29.813 21.6463C29.8415 21.6348 29.8558 21.6033 29.8444 21.5774C29.7074 21.2902 29.6675 20.9083 29.9728 20.7158C30.2695 20.5292 30.6461 20.5263 30.9857 20.5435C31.3452 20.5636 31.6962 20.6613 32.03 20.7962C32.3125 20.9111 32.5835 21.0576 32.8518 21.2098C32.9773 21.2816 33.1086 21.3534 33.2312 21.4338C33.3197 21.4912 33.4082 21.5889 33.5194 21.5946H33.5166Z" fill="#E0A585"/>
</g>
<defs>
<clipPath id="clip0_2052_3196">
<rect width="68" height="85" fill="white" transform="translate(0.0234375 0.681396)"/>
</clipPath>
</defs>
</svg>
