<svg width="91" height="101" viewBox="0 0 91 101" fill="none" xmlns="http://www.w3.org/2000/svg">
<g clip-path="url(#clip0_2052_2964)">
<path d="M73.5818 73.3021L79.3917 80.6229C79.3917 80.6229 88.8165 77.2019 90.0234 78.4493L76.1713 90.1747L66.6485 79.1375L73.5818 73.2992V73.3021Z" fill="#192E35"/>
<path d="M74.601 83.651C74.3965 83.9521 74.4657 84.4081 74.7595 84.626C75.0533 84.8439 75.5199 84.7751 75.7302 84.4797C75.9404 84.1844 75.8742 83.6338 75.5573 83.4503C75.2434 83.2668 74.699 83.3757 74.5636 83.7141" fill="#E1E0E0"/>
<path d="M76.1713 90.1776L75.2553 89.0277L88.8799 78.2142C88.8799 78.2142 89.7239 77.959 90.0234 78.4522L76.1713 90.1776Z" fill="#385A65"/>
<path d="M79.5561 80.362C79.6108 80.4308 79.2998 80.7491 79.15 81.2452C78.9887 81.7384 79.0664 82.1771 78.9829 82.2029C78.908 82.2431 78.6661 81.7556 78.8562 81.1534C79.0405 80.5512 79.5187 80.2874 79.5561 80.3591V80.362Z" fill="white"/>
<path d="M81.5223 79.7311C81.5943 79.7827 81.3984 80.1469 81.4128 80.6258C81.4128 81.1047 81.6174 81.4631 81.5482 81.5176C81.4935 81.5807 81.1104 81.228 81.1046 80.6315C81.0931 80.0351 81.4676 79.6709 81.5252 79.734L81.5223 79.7311Z" fill="white"/>
<path d="M83.8249 80.7634C83.7759 80.8294 83.3928 80.5741 83.2517 80.058C83.1076 79.5418 83.3006 79.1289 83.3784 79.1604C83.4648 79.1834 83.4274 79.5562 83.5512 79.9777C83.6636 80.4021 83.8882 80.7032 83.8249 80.7663V80.7634Z" fill="white"/>
<path d="M78.0459 78.8422C78.0689 78.9282 77.6801 79.0974 77.32 79.4472C76.9513 79.7885 76.7641 80.1699 76.6806 80.1412C76.5999 80.1269 76.6777 79.6308 77.1069 79.2236C77.5332 78.8135 78.0344 78.7619 78.0459 78.8422Z" fill="white"/>
<path d="M60.9513 60.7623C60.9513 61.4075 63.9297 91.098 63.9297 91.098L53.8711 92.2279C53.8711 92.2279 51.368 77.2535 50.9791 74.4949C50.5903 71.7335 49.2883 66.7898 49.2883 66.7898L27.8289 64.7309C27.8289 64.7309 38.3541 50.4534 39.3795 50.3932C40.4021 50.333 60.9571 60.7623 60.9571 60.7623H60.9513Z" fill="#192E35"/>
<path d="M78.3409 77.3568C78.3409 77.3568 60.5396 53.3325 59.5113 52.0736C58.483 50.8147 57.2991 49.4785 53.5862 49.4785C49.8733 49.4785 39.832 50.1868 39.832 50.1868L34.5262 47.7809L15.2645 50.7373C15.2645 50.7373 14.5531 59.859 15.8176 61.9838C17.0821 64.1058 24.5857 64.6564 26.1671 64.7367C27.7456 64.8141 52.2151 61.5078 52.2151 61.5078C52.2151 61.5078 57.0111 68.1347 59.3125 70.6811C60.9544 72.4963 69.7139 83.6883 69.7139 83.6883L78.3438 77.3568H78.3409Z" fill="#192E35"/>
<path d="M69.6845 83.8833L78.5391 77.3855L78.4555 77.2708C78.2769 77.0299 60.6399 53.2292 59.6231 51.9847C58.661 50.8062 57.4627 49.338 53.5885 49.338C50.0254 49.338 40.5256 50.0004 39.8602 50.0463L34.5487 47.6375L34.5055 47.6432L15.1315 50.6169L15.1228 50.7287C15.094 51.1044 14.4229 59.9192 15.6961 62.0584C17.0672 64.3639 25.2333 64.8342 26.1608 64.8801C27.6989 64.969 50.3192 61.9093 52.1512 61.6627C52.6696 62.3767 57.0537 68.3928 59.2083 70.7786C60.8271 72.5708 69.5146 83.6654 69.601 83.7772L69.6874 83.8862L69.6845 83.8833ZM78.1416 77.3252L69.7393 83.4905C68.829 82.3291 60.9567 72.2898 59.4186 70.5865C57.1488 68.0745 52.3787 61.4906 52.3298 61.4247L52.2808 61.3559L52.1973 61.3673C47.7412 61.9724 43.2822 62.5574 38.8233 63.1337C36.0407 63.4922 33.2928 64.0542 30.493 64.275C26.6274 64.579 22.6495 64.5962 18.8905 63.5295C17.9025 63.2484 16.5083 62.8613 15.9438 61.9122C14.7916 59.9766 15.3274 51.9102 15.4022 50.8606L34.5083 47.9271L39.8084 50.3301H39.8458C39.9467 50.3215 49.9246 49.619 53.5914 49.619C57.2582 49.619 58.4795 51.0298 59.4042 52.1625C60.3806 53.3583 76.8108 75.5244 78.1444 77.3252H78.1416Z" fill="#385A65"/>
<path d="M53.8966 58.451C53.8621 58.4281 53.3407 59.1679 52.7329 60.1056C52.1251 61.0404 51.6614 61.8175 51.696 61.8405C51.7305 61.8634 52.2519 61.1236 52.8597 60.1859C53.4674 59.2511 53.9312 58.474 53.8966 58.451Z" fill="#385A65"/>
<path d="M63.115 85.9852L62.6023 95.3019C62.6023 95.3019 71.9407 98.9494 72.0156 100.681L53.837 100.34L54.0387 85.7931L63.1179 85.9881L63.115 85.9852Z" fill="#192E35"/>
<path d="M56.9983 94.4129C56.644 94.5018 56.3934 94.8918 56.4683 95.2474C56.5432 95.603 56.9378 95.861 57.295 95.7779C57.6493 95.6947 57.9661 95.2359 57.8509 94.8918C57.7357 94.5477 57.2547 94.2695 56.9321 94.4359" fill="#E1E0E0"/>
<path d="M53.8356 100.34L53.9134 98.8748L71.3142 99.7494C71.3142 99.7494 72.1179 100.116 72.0142 100.681L53.8356 100.34Z" fill="#385A65"/>
<path d="M62.8979 95.2159C62.8921 95.3048 62.4485 95.3363 62.0078 95.6116C61.5585 95.8754 61.3252 96.2539 61.2445 96.2195C61.1638 96.1994 61.305 95.6747 61.8465 95.3506C62.3852 95.0209 62.918 95.1356 62.8979 95.2187V95.2159Z" fill="white"/>
<path d="M64.7885 96.036C64.8058 96.122 64.4198 96.2654 64.1116 96.6325C63.7919 96.9909 63.7083 97.3952 63.619 97.3895C63.5355 97.401 63.4837 96.8819 63.8754 96.4317C64.2643 95.9787 64.7856 95.95 64.7856 96.036H64.7885Z" fill="white"/>
<path d="M65.8329 98.3272C65.7523 98.3444 65.637 97.8999 65.8732 97.421C66.1066 96.9393 66.53 96.7557 66.5645 96.8303C66.6135 96.9049 66.3399 97.1572 66.1498 97.5558C65.951 97.9486 65.9193 98.3214 65.83 98.3272H65.8329Z" fill="white"/>
<path d="M62.7831 93.0796C62.7456 93.1599 62.3395 93.0308 61.8383 93.0538C61.3342 93.0681 60.9425 93.2287 60.8964 93.1512C60.8474 93.0853 61.2334 92.767 61.8268 92.7469C62.4173 92.7211 62.8292 93.0107 62.786 93.0796H62.7831Z" fill="white"/>
<path d="M26.3795 26.7589L25.7487 32.5714L33.0795 47.2102C33.0795 47.2102 38.9988 48.4261 40.5312 49.9975L35.4357 50.3703C30.4007 50.5882 25.5269 52.3317 21.5029 55.4573C19.7689 56.8051 18.369 58.2618 18.1097 59.5837C17.3464 63.4836 16.177 62.8843 16.177 62.8843L11.7324 57.1922L8.61863 51.0327L2.37091 26.9051L8.39971 23.6103L9.75352 21.6489L18.6743 22.8848L20.4516 24.6312L26.3767 26.7589H26.3795Z" fill="#024269"/>
<path d="M41.1869 42.3526L37.4423 40.7927L31.5575 32.5743C31.5575 32.5743 28.8297 27.1403 26.3813 26.7589C23.9329 26.3775 25.7505 32.5714 25.7505 32.5714L29.5239 43.2387L35.6103 47.4798L39.8072 47.1156L42.5234 44.813L41.1898 42.3526H41.1869Z" fill="#024269"/>
<path d="M25.7926 28.7805C25.7926 28.7805 25.8099 28.8493 25.8559 28.9726C25.9107 29.1103 25.9798 29.2881 26.0662 29.5089C26.2592 29.9906 26.5242 30.6616 26.8526 31.4817C27.5122 33.1478 28.3936 35.4619 29.3643 38.0198C30.3351 40.5776 31.2309 42.8889 31.9193 44.5463C32.2621 45.375 32.5444 46.0432 32.7489 46.502C32.8468 46.7199 32.9246 46.8948 32.9851 47.0296C33.0398 47.15 33.0715 47.2102 33.0773 47.2102C33.083 47.2102 33.06 47.1414 33.0139 47.0181C32.9592 46.8805 32.89 46.7027 32.8036 46.4819C32.6106 46.0001 32.3456 45.3291 32.0172 44.509C31.3576 42.843 30.4762 40.5289 29.5055 37.9681C28.5377 35.4103 27.6389 33.099 26.9534 31.4416C26.6106 30.6129 26.3283 29.9447 26.1238 29.4859C26.0259 29.268 25.9481 29.0931 25.8876 28.9583C25.8329 28.8379 25.8012 28.7776 25.7955 28.7776L25.7926 28.7805Z" fill="#192E35"/>
<path d="M18.4469 28.5397C18.4469 28.5397 18.5362 28.402 18.6716 28.1439C18.8156 27.8572 19.0057 27.4873 19.2333 27.0428H19.1353C19.3312 27.4729 19.5617 27.9833 19.8641 28.5253C20.1665 29.0644 20.5554 29.6408 21.0854 30.1311L21.2266 30.2602L21.2122 30.0709C21.2122 30.0709 21.2122 30.0508 21.2122 30.0422C21.1027 28.5626 20.9299 27.2292 20.7714 26.2686C20.6937 25.7897 20.6217 25.4026 20.5641 25.1359C20.5093 24.8692 20.4719 24.7229 20.4632 24.7258C20.4517 24.7258 20.469 24.8778 20.5064 25.1473C20.5468 25.4427 20.6015 25.8269 20.6649 26.2858C20.7945 27.2464 20.9529 28.5769 21.0624 30.0537C21.0624 30.0652 21.0624 30.0738 21.0624 30.0824L21.1891 30.0222C20.6735 29.549 20.2933 28.9899 19.9851 28.4594C19.6798 27.9289 19.4407 27.4242 19.2333 26.9969L19.1814 26.8937L19.1325 26.9969C18.9222 27.4528 18.7494 27.8285 18.614 28.121C18.4959 28.3877 18.4325 28.5368 18.444 28.5425L18.4469 28.5397Z" fill="#192E35"/>
<path d="M8.98288 24.0605C8.98288 24.0605 9.00881 24.1035 9.06642 24.1781C9.13555 24.2641 9.22196 24.3674 9.32566 24.4935C9.55609 24.7631 9.89311 25.1531 10.3252 25.6176C11.1864 26.5524 12.4308 27.7998 13.8998 29.0701C14.5652 29.6494 15.222 30.1827 15.8326 30.6559L15.9449 30.7419V30.6014C15.9651 29.5031 16.1754 28.5597 16.3943 27.8572L16.3223 27.883C16.7745 28.141 17.1432 28.3532 17.4169 28.5081C17.6732 28.6515 17.8144 28.726 17.8201 28.7174C17.8259 28.7088 17.6934 28.6199 17.4457 28.4622C17.1778 28.2959 16.8177 28.0722 16.3741 27.7969L16.3223 27.7654L16.3021 27.8227C16.0602 28.5253 15.8355 29.4802 15.8067 30.5957L15.919 30.5412C15.3141 30.0652 14.6631 29.5289 14.0006 28.9526C12.5374 27.6851 11.2844 26.4549 10.4058 25.5402C9.96512 25.0842 9.6137 24.7086 9.37174 24.4476C9.25941 24.3301 9.16723 24.2297 9.08946 24.1494C9.02321 24.0835 8.98864 24.0491 8.98288 24.0519V24.0605Z" fill="#192E35"/>
<path d="M9.5261 22.4088L8.91831 10.0755C8.53233 6.21288 10.468 2.77182 14.3566 2.49654L14.7167 2.4908C18.3489 2.44492 21.408 5.18056 21.745 8.77933C22.059 12.1286 22.3643 15.8306 22.3672 17.6315C22.3672 21.3564 18.637 21.9815 18.637 21.9815C18.6284 21.9815 18.7378 24.244 18.7983 25.3337L18.0148 28.1726L9.52321 22.4088H9.5261Z" fill="#F9BF9D"/>
<path d="M18.6336 21.9901C18.6336 21.9901 16.2774 22.1593 13.7455 20.6194C13.7455 20.6194 14.9524 23.4038 18.6797 23.0196L18.6336 21.9901Z" fill="#F49A6C"/>
<path d="M20.6322 12.1803C20.6466 12.4613 20.419 12.705 20.1252 12.7222C19.8314 12.7423 19.5808 12.5301 19.5693 12.2491C19.5549 11.9681 19.7824 11.7243 20.0762 11.7043C20.37 11.6842 20.6206 11.8964 20.6322 12.1774V12.1803Z" fill="#192E35"/>
<path d="M20.9685 10.3048C20.9023 10.3737 20.4961 10.0812 19.92 10.0898C19.3468 10.0898 18.9292 10.3909 18.8658 10.322C18.8341 10.2905 18.9004 10.1643 19.0818 10.0296C19.2604 9.89478 19.5686 9.76288 19.9258 9.76001C20.283 9.76001 20.5854 9.88331 20.7611 10.0152C20.9397 10.1471 21.0002 10.2733 20.9685 10.3048Z" fill="#192E35"/>
<path d="M15.6244 12.2921C15.6388 12.5731 15.4112 12.8168 15.1174 12.8341C14.8236 12.8541 14.573 12.6419 14.5615 12.3609C14.5471 12.0799 14.7746 11.8361 15.0684 11.8189C15.3622 11.7989 15.6128 12.0111 15.6244 12.2921Z" fill="#192E35"/>
<path d="M15.3357 10.5113C15.2695 10.5801 14.8604 10.2877 14.2872 10.2991C13.714 10.2991 13.2963 10.6002 13.233 10.5314C13.2013 10.4999 13.2675 10.3737 13.449 10.2389C13.6276 10.1041 13.9358 9.97223 14.293 9.96649C14.6502 9.96649 14.9526 10.0927 15.1283 10.2246C15.3069 10.3565 15.3674 10.4827 15.3357 10.5142V10.5113Z" fill="#192E35"/>
<path d="M17.4521 14.8815C17.4492 14.8499 17.8064 14.784 18.3825 14.7008C18.5294 14.6836 18.6677 14.6521 18.6907 14.5517C18.7253 14.4456 18.6619 14.2879 18.587 14.1187C18.4459 13.766 18.2961 13.3989 18.1377 13.0118C17.5155 11.4347 17.0604 10.1385 17.1237 10.1156C17.1871 10.0927 17.7459 11.3487 18.3681 12.9258C18.5179 13.3158 18.6619 13.6857 18.7973 14.0384C18.8549 14.2047 18.9528 14.3911 18.8808 14.6119C18.8434 14.7209 18.7368 14.8012 18.6417 14.8299C18.5467 14.8585 18.466 14.8614 18.394 14.8671C17.8122 14.9073 17.4492 14.913 17.4492 14.8815H17.4521Z" fill="#192E35"/>
<path d="M15.4995 8.71913C15.4246 8.86538 14.8629 8.71913 14.186 8.7134C13.5062 8.69332 12.9416 8.81949 12.8725 8.67038C12.8408 8.59869 12.9531 8.46679 13.1922 8.34348C13.4284 8.22304 13.7914 8.12555 14.1975 8.13128C14.6036 8.13989 14.9637 8.24885 15.1941 8.38076C15.4275 8.5098 15.534 8.64744 15.5023 8.71913H15.4995Z" fill="#192E35"/>
<path d="M20.9693 8.62448C20.8541 8.75639 20.3817 8.63595 19.82 8.64455C19.2583 8.63595 18.783 8.76212 18.6707 8.62735C18.6217 8.56139 18.6908 8.42949 18.8953 8.30045C19.097 8.17141 19.4369 8.06244 19.8228 8.06244C20.2088 8.06244 20.5487 8.17141 20.7475 8.29758C20.9491 8.42662 21.0182 8.55853 20.9693 8.62161V8.62448Z" fill="#192E35"/>
<path d="M9.25232 12.7022C9.18895 12.6764 6.67431 11.9795 6.78664 14.5231C6.90186 17.0666 9.44243 16.4271 9.44531 16.3554C9.44531 16.2809 9.25232 12.7022 9.25232 12.7022Z" fill="#F9BF9D"/>
<path d="M8.62435 15.4235C8.62435 15.4235 8.58114 15.455 8.50625 15.4952C8.43424 15.5324 8.31038 15.5611 8.175 15.5181C7.90135 15.4321 7.65364 15.0163 7.62195 14.5575C7.60467 14.3252 7.64499 14.1044 7.717 13.918C7.78613 13.7287 7.90135 13.594 8.03673 13.5624C8.16923 13.5251 8.27005 13.6026 8.30462 13.6714C8.34207 13.7402 8.32767 13.7918 8.34207 13.7976C8.35071 13.8033 8.39391 13.7517 8.37087 13.6485C8.35934 13.5997 8.32478 13.5395 8.26429 13.4936C8.20092 13.4477 8.10875 13.4248 8.01657 13.4391C7.8207 13.4621 7.65075 13.6513 7.5701 13.8549C7.47792 14.0614 7.42896 14.3109 7.44912 14.5718C7.48945 15.0851 7.77461 15.5525 8.14907 15.6414C8.33054 15.6787 8.47744 15.6185 8.55234 15.5554C8.63011 15.4894 8.63876 15.4321 8.63011 15.4263L8.62435 15.4235Z" fill="#F49A6C"/>
<path d="M48.5798 29.5347L31.5649 31.0631C31.4065 31.0774 31.274 31.1864 31.2279 31.3355L27.4458 43.4251C27.4084 43.5426 27.3191 43.6373 27.201 43.6774L20.6652 45.4467C20.5126 45.4983 20.4089 45.6388 20.406 45.7994C20.3973 46.0546 20.6364 46.2496 20.887 46.1894L27.9182 44.7069L43.732 42.7426C43.876 42.7254 43.997 42.6336 44.0517 42.4988L48.9802 30.0594C49.0867 29.7899 48.8707 29.506 48.5826 29.5318L48.5798 29.5347Z" fill="#E1E0E0"/>
<path d="M48.5836 29.5348C48.5836 29.5348 48.6355 29.5205 48.7363 29.5434C48.8285 29.5692 48.9869 29.6639 49.0186 29.8703C49.0387 29.9736 48.9926 30.0825 48.9466 30.1944C48.9034 30.3062 48.8544 30.4324 48.8025 30.5643C48.6988 30.8338 48.5779 31.1435 48.4425 31.4905C47.8923 32.8899 47.1002 34.9172 46.1064 37.4493C45.6081 38.7167 45.0579 40.1075 44.4674 41.6129C44.3926 41.8022 44.3177 41.9914 44.2428 42.1807L44.1304 42.4703C44.1016 42.565 44.0296 42.6854 43.9259 42.7456C43.8741 42.7772 43.8165 42.7972 43.756 42.8058L43.5975 42.8259L43.2807 42.866C43.0675 42.8919 42.8544 42.9205 42.6412 42.9463C41.78 43.0553 40.8899 43.1671 39.9768 43.2818C36.3186 43.7378 32.26 44.2453 27.9307 44.7873H27.9365C26.7382 45.0396 25.5169 45.2977 24.2783 45.5587C23.659 45.6906 23.0339 45.8225 22.406 45.9544C22.092 46.0204 21.7781 46.0863 21.4612 46.1551L20.9859 46.2555C20.9139 46.2698 20.8102 46.2985 20.7152 46.2756C20.6201 46.2584 20.5308 46.2096 20.4646 46.1408C20.3551 46.029 20.3119 45.8626 20.3493 45.7135C20.3839 45.5615 20.502 45.4354 20.646 45.3838C22.8813 44.7787 25.0647 44.188 27.1818 43.6145H27.176C27.2826 43.5772 27.3575 43.494 27.3863 43.3679L27.5073 42.9807C27.5879 42.7227 27.6686 42.4675 27.7492 42.2122C27.9106 41.7018 28.069 41.1943 28.2245 40.6924C28.5385 39.6888 28.8496 38.7024 29.152 37.7389C29.7569 35.809 30.3388 33.9566 30.889 32.2045C30.9581 31.9866 31.0272 31.7686 31.0935 31.5507C31.1338 31.4417 31.1453 31.3414 31.2144 31.2181C31.2836 31.1062 31.4017 31.0288 31.5313 31.0087C31.9778 30.9686 32.4214 30.9284 32.8534 30.8912C33.7204 30.8137 34.5587 30.7392 35.3681 30.6704C36.9869 30.527 38.4847 30.3951 39.8472 30.2775C42.5692 30.0424 44.7497 29.8531 46.2562 29.7241C47.0022 29.661 47.5812 29.6151 47.9787 29.5807C48.1717 29.5664 48.3186 29.5549 48.4252 29.5463C48.526 29.5406 48.5779 29.5406 48.5779 29.5406C48.5779 29.5406 48.526 29.5492 48.4281 29.5606C48.3244 29.5721 48.1746 29.5864 47.9845 29.6065C47.587 29.6438 47.0109 29.7011 46.262 29.7728C44.7584 29.9133 42.5779 30.1169 39.8558 30.3721C38.4934 30.4983 36.9955 30.636 35.3767 30.7851C34.5673 30.8596 33.7291 30.9371 32.8649 31.0145C32.4329 31.0546 31.995 31.0948 31.5486 31.1349C31.4564 31.1492 31.37 31.2037 31.321 31.2869C31.2778 31.3614 31.2519 31.4876 31.2144 31.5909C31.1482 31.8059 31.0791 32.0239 31.0099 32.2447C30.4626 33.9996 29.8865 35.852 29.2845 37.7819C28.9821 38.7483 28.6768 39.7347 28.3628 40.7383C28.2072 41.2402 28.0488 41.7477 27.8875 42.2581C27.8069 42.5133 27.7262 42.7714 27.6484 43.0266L27.5275 43.4138C27.4986 43.5543 27.3806 43.7062 27.225 43.755H27.2192C25.105 44.3285 22.9187 44.9221 20.6864 45.5271H20.6921C20.5942 45.5587 20.5135 45.6447 20.4905 45.7479C20.4674 45.8512 20.4962 45.963 20.5683 46.0376C20.6143 46.0834 20.6748 46.1178 20.7382 46.1293C20.8045 46.1437 20.8621 46.1293 20.9485 46.1092L21.4238 46.0089C21.7406 45.9429 22.0546 45.877 22.3685 45.8082C22.9965 45.6762 23.6215 45.5443 24.2408 45.4124C25.4794 45.1515 26.7008 44.8934 27.9019 44.6411H27.9048H27.9077C32.237 44.1077 36.2985 43.6059 39.9566 43.1528C40.8697 43.041 41.7598 42.932 42.6211 42.8259C42.8371 42.8001 43.0503 42.7743 43.2634 42.7485L43.5803 42.7083C43.6897 42.694 43.7877 42.694 43.8625 42.6452C43.9432 42.5965 43.9864 42.5277 44.021 42.4273L44.1362 42.1406C44.2111 41.9484 44.2889 41.7592 44.3609 41.5728C44.96 40.0731 45.513 38.6823 46.0171 37.4177C47.0282 34.8943 47.8347 32.8726 48.3935 31.4761C48.5347 31.1292 48.6585 30.8223 48.7651 30.5528C48.8198 30.4209 48.8688 30.2976 48.9149 30.1858C48.961 30.0739 49.0071 29.9736 48.9898 29.8789C48.9638 29.6839 48.8198 29.5893 48.7305 29.5606C48.6355 29.532 48.5807 29.5434 48.5836 29.5377V29.5348Z" fill="#192E35"/>
<path d="M32.2081 31.0057C32.2081 31.0057 32.2023 31.0574 32.1821 31.1491C32.1533 31.2581 32.1188 31.3929 32.0756 31.5534C31.9805 31.9033 31.8365 32.4108 31.6492 33.0331C31.2805 34.2776 30.7448 35.9924 30.1399 37.8792C29.5379 39.7575 28.9906 41.4551 28.5873 42.7111C28.3943 43.3133 28.2359 43.8093 28.1178 44.1764C28.0631 44.3341 28.0199 44.466 27.9853 44.5721C27.9536 44.661 27.9335 44.7097 27.9277 44.7069C27.9219 44.7069 27.9335 44.6553 27.9536 44.5635C27.9824 44.4545 28.017 44.3198 28.0602 44.1592C28.1553 43.8093 28.2993 43.3018 28.4865 42.6795C28.8552 41.435 29.391 39.7202 29.9987 37.8334C30.6008 35.9551 31.148 34.2575 31.5513 33.0015C31.7443 32.3994 31.9027 31.9033 32.0208 31.5362C32.0756 31.3785 32.1188 31.2466 32.1533 31.1405C32.185 31.0516 32.2052 31.0029 32.2109 31.0057H32.2081Z" fill="#192E35"/>
<path d="M38.735 35.9436C38.4873 35.935 38.3087 36.0039 38.0696 36.2533C37.8997 36.4311 37.7758 36.6949 37.8853 36.9157C37.963 37.0763 38.1387 37.1738 38.3173 37.191C38.4959 37.2054 38.6745 37.148 38.83 37.0591C39.0432 36.9358 39.2333 36.7265 39.242 36.4799C39.2506 36.2333 39.0202 35.9408 38.7379 35.9465L38.735 35.9436Z" fill="white"/>
<path d="M19.7295 43.7032L24.5284 44.056L24.5312 48.6297L19.1073 49.2749L19.7295 43.7032Z" fill="#F9BF9D"/>
<path d="M4.49517 25.7954C2.12743 26.7675 -0.0732346 28.8608 0.0707893 31.5735C0.283943 35.5938 1.2345 44.2223 1.45629 46.4446C1.74434 49.3466 2.73233 51.7897 7.02133 51.9474C11.3103 52.1052 17.6214 51.0671 17.6214 51.0671C17.6214 51.0671 19.8941 52.2113 20.5221 50.9524C20.6891 50.6169 21.8125 43.8581 21.8125 43.8581C21.8125 43.7692 21.2566 43.124 20.4616 42.7283C19.56 42.2809 18.4625 42.6222 17.9642 43.4968L9.60223 43.2272L7.94308 35.3988" fill="#024269"/>
<path d="M7.94139 35.3988C7.94139 35.3988 7.94714 35.4447 7.96443 35.5336C7.98171 35.6282 8.00764 35.7601 8.0422 35.9322C8.11421 36.2878 8.22079 36.8039 8.35617 37.4721C8.63558 38.8198 9.04461 40.7783 9.55733 43.2387L9.56597 43.2731H9.60341C11.3173 43.3333 13.2933 43.3993 15.4796 43.4738C16.0268 43.491 16.5856 43.5111 17.1589 43.5312C17.3029 43.5369 17.4469 43.5398 17.5909 43.5455L17.8098 43.5541H17.9193L17.9481 43.5599H17.9625H17.9683C17.9567 43.5685 18.0748 43.4997 18.0259 43.5255L18.0547 43.4767C18.2045 43.2387 18.4061 43.0265 18.6509 42.8745C19.1377 42.5677 19.7916 42.4989 20.3418 42.7455C20.6183 42.8659 20.8804 43.0351 21.1224 43.2272C21.2434 43.3219 21.3614 43.4251 21.4738 43.5341C21.5285 43.5885 21.5832 43.6459 21.6322 43.7032C21.6581 43.7319 21.6812 43.7635 21.7042 43.7921C21.7244 43.8151 21.7503 43.8696 21.7474 43.8581V43.8466C21.4824 45.418 21.203 47.0697 20.8919 48.7788C20.8113 49.2061 20.7306 49.6362 20.65 50.0721C20.6068 50.2871 20.5636 50.5079 20.5117 50.7201C20.4858 50.832 20.4685 50.918 20.3994 51.0069C20.3677 51.047 20.3475 51.0987 20.3101 51.1331L20.1949 51.2392C19.8579 51.4944 19.3768 51.5001 18.9447 51.4227C18.504 51.3481 18.0662 51.1904 17.6572 50.9983L17.6341 50.9868H17.6111C15.9116 51.2592 14.1171 51.4858 12.288 51.6578C11.0206 51.7754 9.7676 51.8585 8.529 51.8786C7.29616 51.893 6.06044 51.8872 4.92266 51.5403C4.35809 51.3625 3.82808 51.0958 3.37585 50.7345C2.92362 50.3732 2.55781 49.9201 2.30145 49.4125C1.78296 48.3946 1.60725 47.2676 1.50644 46.1808C1.04844 41.8107 0.630777 37.8764 0.345612 34.5672C0.2736 33.7385 0.213106 32.9528 0.161259 32.2044C0.135334 31.8316 0.112295 31.4674 0.120935 31.1204C0.126698 30.9455 0.152622 30.7763 0.167025 30.6072C0.198709 30.4408 0.233276 30.2774 0.267843 30.1197C0.43779 29.4859 0.72007 28.9354 1.04556 28.4766C1.37105 28.0149 1.72824 27.6421 2.06813 27.3267C2.7652 26.7102 3.39602 26.346 3.82809 26.1166C4.04412 25.999 4.21407 25.9244 4.32928 25.8728C4.4445 25.8183 4.49923 25.7897 4.49923 25.7897C4.49923 25.7897 4.43875 25.8097 4.32353 25.8585C4.20831 25.9072 4.0326 25.9789 3.81369 26.0908C3.37586 26.3116 2.73639 26.67 2.03068 27.2837C1.68503 27.5962 1.31921 27.9719 0.987957 28.4364C0.656704 28.8981 0.362888 29.4544 0.187181 30.0996C0.152615 30.263 0.115173 30.4265 0.0834885 30.5957C0.066206 30.7677 0.0402832 30.9398 0.0316429 31.1176C0.0230007 31.476 0.0431633 31.8373 0.066206 32.2101C0.112293 32.9585 0.169905 33.7471 0.239037 34.5758C0.5098 37.8879 0.915939 41.825 1.36817 46.1951C1.46899 47.2848 1.64182 48.4318 2.17471 49.4785C2.43971 49.9975 2.81993 50.4735 3.28656 50.8463C3.75319 51.2191 4.30336 51.4972 4.88234 51.6779C6.0518 52.0335 7.29904 52.0392 8.53476 52.0249C9.77624 52.0019 11.035 51.9188 12.3053 51.8041C14.1401 51.632 15.9347 51.4026 17.6399 51.1331L17.5938 51.1273C18.023 51.3281 18.4608 51.4858 18.9246 51.5632C19.3739 51.6406 19.8924 51.6464 20.2899 51.3481L20.4224 51.2248C20.4685 51.1847 20.4916 51.1273 20.5261 51.0786C20.601 50.9897 20.6356 50.852 20.6557 50.7488C20.7076 50.528 20.7508 50.3101 20.794 50.095C20.8747 49.6591 20.9553 49.229 21.036 48.8017C21.3442 47.0898 21.6207 45.4381 21.8828 43.8667V43.8581C21.8626 43.7663 21.8367 43.7577 21.8137 43.7147C21.7878 43.6803 21.7618 43.6488 21.7359 43.6172C21.6812 43.5541 21.6265 43.4968 21.5688 43.4394C21.4536 43.3247 21.3326 43.2215 21.2059 43.124C20.9524 42.929 20.6874 42.757 20.3936 42.6279C19.8031 42.367 19.1032 42.4415 18.5847 42.7713C18.3226 42.9319 18.1065 43.1584 17.9481 43.4136L17.9193 43.4624C17.8675 43.4939 17.9856 43.4308 17.974 43.4366H17.9683H17.9539H17.9251L17.8156 43.4337L17.5967 43.428C17.4527 43.4222 17.3086 43.4194 17.1646 43.4136C16.5914 43.3964 16.0326 43.3792 15.4853 43.362C13.299 43.2961 11.3259 43.2358 9.60917 43.1842L9.65238 43.2215C9.12237 40.7611 8.69895 38.8083 8.4109 37.4635C8.264 36.7982 8.15166 36.282 8.07388 35.9293C8.03356 35.7601 8.00475 35.6282 7.98459 35.5336C7.96443 35.4447 7.95003 35.4017 7.95003 35.4017L7.94139 35.3988Z" fill="#192E35"/>
<path d="M5.00508 26.4492C4.98779 26.4693 5.30177 26.7646 5.72519 27.3095C5.93259 27.5847 6.17166 27.9202 6.40498 28.3102C6.63541 28.7031 6.86585 29.1504 7.07036 29.6322C7.47651 30.6043 7.6983 31.5362 7.80776 32.2187C7.92298 32.9012 7.94603 33.3284 7.97483 33.3284C7.98635 33.3284 7.98635 33.2195 7.98059 33.0245C7.98059 32.8295 7.95467 32.5485 7.91434 32.2015C7.83081 31.5104 7.62054 30.5613 7.21151 29.5748C7.00412 29.0845 6.76792 28.6314 6.52596 28.2385C6.28112 27.8457 6.03052 27.5131 5.80872 27.2406C5.58116 26.974 5.3853 26.7704 5.24128 26.6385C5.09725 26.5065 5.01372 26.4406 5.00508 26.4463V26.4492Z" fill="#192E35"/>
<path d="M6.00463 46.7285C6.03056 46.7343 6.09392 46.4418 6.28691 46.0088C6.47703 45.5758 6.82844 45.0109 7.35269 44.5119C7.87981 44.0158 8.46743 43.6975 8.91102 43.5283C9.35749 43.3591 9.6513 43.3104 9.64842 43.2846C9.64842 43.2731 9.57064 43.2789 9.43814 43.2961C9.30276 43.3104 9.10977 43.3534 8.87646 43.428C8.64314 43.4997 8.37525 43.6172 8.09297 43.7749C7.81356 43.9384 7.52263 44.1477 7.25187 44.4001C6.98111 44.6581 6.75932 44.9363 6.58073 45.2059C6.4079 45.4783 6.2754 45.7392 6.19186 45.9657C6.10545 46.1923 6.05072 46.3815 6.03056 46.5163C6.00463 46.6511 5.99887 46.7228 6.00751 46.7257L6.00463 46.7285Z" fill="#192E35"/>
<path d="M17.5606 50.8291C17.5836 50.8205 17.4684 50.419 17.3733 49.7509C17.2725 49.0828 17.2005 48.1508 17.2235 47.1214C17.2351 46.6052 17.2811 46.1177 17.3388 45.6761C17.4079 45.2374 17.4828 44.8417 17.5836 44.5205C17.7679 43.8724 17.9926 43.514 17.9667 43.4997C17.9581 43.4939 17.9004 43.5828 17.8025 43.7463C17.7478 43.8265 17.7017 43.9355 17.647 44.0588C17.5865 44.1821 17.5317 44.3255 17.4799 44.489C17.3647 44.813 17.2783 45.2116 17.2005 45.656C17.1342 46.1034 17.0853 46.5966 17.0709 47.1185C17.0478 48.1594 17.1371 49.1 17.2667 49.771C17.3272 50.1065 17.3964 50.3732 17.4511 50.5567C17.5087 50.7373 17.5461 50.8377 17.5577 50.8348L17.5606 50.8291Z" fill="#192E35"/>
<path d="M44.5875 37.8764C44.6221 37.8764 45.6965 37.7732 45.9558 38.2406C46.215 38.708 46.2438 38.9632 46.1372 39.2413C46.0335 39.5166 45.5151 40.1073 45.5151 40.1073L45.3422 40.4314C45.3422 40.4314 45.6879 41.1253 45.5151 41.696C45.3422 42.2666 44.818 42.6107 44.818 42.6107C44.818 42.6107 44.7316 44.0101 43.8818 44.0187C43.8818 44.0187 43.6629 44.8101 42.8794 44.79C42.0959 44.77 41.7042 44.9707 40.8343 44.5234C39.9644 44.076 38.9562 43.6287 38.7344 43.1814C38.5127 42.734 39.2875 42.6853 39.2875 42.6853C39.2875 42.6853 38.867 41.5325 40.2236 41.6845C40.2236 41.6845 40.071 40.4945 40.9409 40.3511C41.8108 40.2077 43.5794 40.3109 43.5794 40.3109L44.2765 39.4736C44.2765 39.4736 43.7695 39.3302 43.7407 38.8829C43.7119 38.4356 44.1872 37.885 44.5904 37.8707L44.5875 37.8764Z" fill="#F9BF9D"/>
<path d="M26.8422 42.4301C26.9286 42.4587 27.9742 42.9204 28.6713 42.8344C29.3684 42.7484 34.7692 39.7948 35.5556 39.5654C36.3391 39.3331 37.6756 39.5654 36.7193 40.5776C35.763 41.5899 32.799 43.2387 32.7414 43.3276C32.6838 43.4136 32.5685 43.8868 32.5685 43.8868L35.5901 42.7484C35.5901 42.7484 37.7966 41.6501 38.1451 42.3125C38.4937 42.9778 37.9723 43.3534 37.4192 43.5283C36.8662 43.7032 36.2584 43.8868 36.2584 43.8868C36.2584 43.8868 35.619 45.0625 34.9795 45.5241C34.34 45.9858 31.4365 47.8383 30.944 48.0418C30.4514 48.2454 24.4946 48.71 24.3794 48.624C24.2642 48.5379 24.3794 44.1993 24.3794 44.1993L26.4706 42.3182L26.848 42.4329L26.8422 42.4301Z" fill="#F9BF9D"/>
<path d="M18.9141 17.6171C17.9462 17.4135 16.9496 17.3132 15.9529 17.316C15.9414 17.3906 15.9299 17.534 15.927 17.6114C16.9294 17.6286 17.9347 17.5626 18.9141 17.62V17.6171ZM18.9141 17.6171C17.9577 17.577 17.0158 17.4221 16.0854 17.3246C16.0854 17.3246 16.2237 17.4795 16.2208 17.4738C16.2352 17.4422 16.0826 17.6085 16.0826 17.6028C17.0187 17.5139 17.9664 17.5168 18.9112 17.6171H18.9141Z" fill="#4F535D"/>
<path d="M8.32207 12.5674C8.72822 12.4814 9.41377 12.8714 9.57508 13.2499C9.73638 13.6313 9.7623 14.0557 9.92361 14.437C10.0849 14.8184 10.4623 15.1683 10.8684 15.0851C11.1478 15.0278 11.3552 14.7725 11.4359 14.5001C11.5165 14.2277 11.4963 13.9352 11.4675 13.6513C11.3466 12.4183 11.1219 11.1938 11.1075 9.95793C11.0931 8.71915 11.3062 7.44022 11.9889 6.40504C12.6716 5.36985 13.89 4.63003 15.1257 4.76193C15.9438 4.85083 16.6841 5.29816 17.4963 5.43294C18.4584 5.59352 19.4896 5.28383 20.2011 4.61856C20.2933 4.53253 20.7109 4.27445 20.7109 4.27445C20.7109 4.21136 20.6677 3.66079 20.4575 3.45433C18.8818 1.92019 15.9812 1.42411 13.8295 1.90012C11.6778 2.37613 9.63269 3.82138 8.65909 5.78852C7.68262 7.75565 7.87849 10.5343 8.32784 12.5645" fill="#263239"/>
<path d="M8.405 12.3466C8.29842 11.0533 7.68488 9.86045 7.3882 8.59872C7.09151 7.337 7.20385 5.81147 8.23505 5.02002C8.58647 4.74761 9.01854 4.58702 9.34692 4.2888C9.67817 3.98771 9.87692 3.57765 10.1275 3.20773C10.8995 2.06645 12.2245 1.31228 13.6042 1.23199C14.5577 1.17464 15.5082 1.42125 16.4645 1.38684C17.9768 1.33522 19.4285 0.586794 20.9379 0.695761C21.4391 0.733039 21.972 0.887887 22.2744 1.28648C22.5769 1.68506 22.5106 2.37041 22.0526 2.574C22.3003 2.19549 22.9312 2.22703 23.2221 2.574C23.513 2.92098 23.49 3.45147 23.2682 3.84433C23.0464 4.23718 22.6633 4.51534 22.2687 4.73614C20.9667 5.46449 19.3968 5.70823 17.9364 5.40714L15.128 3.78124L11.8817 4.40063L8.75353 6.3563L9.95469 12.0455L8.40212 12.3495L8.405 12.3466Z" fill="#263239"/>
<g filter="url(#filter0_f_2052_2964)">
<ellipse cx="8.99967" cy="1.65065" rx="8.99967" ry="1.65065" transform="matrix(0.999877 -0.0156852 0.0159129 0.999873 13.8125 65.9827)" fill="#CECECE"/>
</g>
</g>
<defs>
<filter id="filter0_f_2052_2964" x="1.83594" y="53.8354" width="42" height="27.3131" filterUnits="userSpaceOnUse" color-interpolation-filters="sRGB">
<feFlood flood-opacity="0" result="BackgroundImageFix"/>
<feBlend mode="normal" in="SourceGraphic" in2="BackgroundImageFix" result="shape"/>
<feGaussianBlur stdDeviation="6" result="effect1_foregroundBlur_2052_2964"/>
</filter>
<clipPath id="clip0_2052_2964">
<rect width="90" height="100" fill="white" transform="matrix(-1 0 0 1 90.0234 0.681396)"/>
</clipPath>
</defs>
</svg>
