<svg width="90" height="115" viewBox="0 0 90 115" fill="none" xmlns="http://www.w3.org/2000/svg">
<g clip-path="url(#clip0_2052_3026)">
<path d="M25.7586 38.455C26.3475 45.0437 26.9365 51.6293 27.5224 58.2181L3.10656 58.4941C3.51167 50.2272 3.70176 41.8982 2.42099 33.7212C2.03769 31.2737 1.5609 28.6029 2.7887 26.447C3.87939 24.533 6.067 23.5217 8.19228 22.9137C11.106 22.0824 14.1724 21.7846 17.1951 22.0359C18.8748 22.1755 20.6136 22.5198 21.9412 23.5528C25.8365 26.5835 25.8333 34.0687 25.7586 38.4519" fill="#FEFDFD"/>
<path d="M3.72156 25.5598C1.57447 27.5606 -0.525885 31.6025 0.153457 39.7423L11.4904 39.3918L11.3127 28.2616C11.294 27.1356 10.7705 26.0747 9.87926 25.3736C8.05314 23.9374 5.41991 23.9746 3.72156 25.5567V25.5598Z" fill="#FEFDFD"/>
<g opacity="0.2">
<path d="M3.38281 49.0608C3.4576 49.1291 3.39839 49.0764 3.4763 49.1384C5.98488 51.2044 9.68386 51.62 12.5602 50.131C13.6695 49.5572 14.6636 48.7289 15.8416 48.3257C17.5181 47.7549 19.338 48.1147 21.0769 48.4187C22.8157 48.7227 24.8943 48.9368 26.4773 48.1364L26.2966 45.6424L3.47007 46.0239" fill="black"/>
</g>
<path d="M0.15625 39.7423C0.15625 39.7423 0.224807 39.7516 0.35569 39.7547C0.508386 39.7547 0.695361 39.7516 0.922847 39.7485C1.44326 39.7361 2.14753 39.7144 3.0045 39.6927C4.76206 39.6368 7.18962 39.5469 9.86959 39.4383C10.3401 39.4197 10.8045 39.398 11.2439 39.3794H11.3342V39.2863C11.3467 36.9505 11.356 34.8876 11.3623 33.3707C11.3592 32.6479 11.3529 32.0555 11.3529 31.6181C11.3467 31.4288 11.3436 31.2737 11.3405 31.1466C11.3373 31.038 11.3311 30.9821 11.3249 30.9821C11.3186 30.9821 11.3124 31.038 11.3062 31.1466C11.2999 31.2737 11.2937 31.4288 11.2844 31.6181C11.2719 32.0555 11.2563 32.6479 11.2376 33.3707C11.2127 34.8845 11.1815 36.9505 11.1441 39.2832L11.2345 39.1901C10.7951 39.2088 10.3308 39.2274 9.86024 39.246C7.18027 39.3577 4.75271 39.4693 2.99827 39.5562C2.1413 39.6027 1.43703 39.643 0.91973 39.6741C0.692244 39.6896 0.50527 39.7051 0.35569 39.7144C0.227924 39.7268 0.159366 39.7361 0.159366 39.7423H0.15625Z" fill="#263239"/>
<path d="M5.57812 23.7947C5.58436 23.835 6.08607 23.6768 6.89941 23.7668C7.70029 23.8474 8.81902 24.2445 9.68845 25.1317C10.5548 26.0251 10.9505 27.1263 11.1001 27.9173C11.2559 28.7176 11.2154 29.2326 11.2528 29.2326C11.2653 29.2326 11.284 29.1054 11.2964 28.8759C11.3058 28.6432 11.2964 28.3082 11.2341 27.8956C11.1157 27.0798 10.7293 25.9289 9.82868 24.9983C8.92186 24.0708 7.74703 23.6768 6.915 23.6303C6.4943 23.6024 6.15463 23.6365 5.92714 23.6861C5.69966 23.7358 5.57813 23.7823 5.58124 23.7916L5.57812 23.7947Z" fill="#263239"/>
<path d="M2.35938 39.6741L2.45909 46.6785C2.5557 48.8499 4.57814 50.4164 6.71589 49.9759L20.8294 46.2442L21.9419 41.0793L8.75391 43.4585L8.52954 39.4848L2.35938 39.6741Z" fill="#F9BF9D"/>
<path d="M6.96835 45.9154C6.94966 45.9154 6.90603 45.7479 6.92784 45.4718C6.94654 45.1957 7.04626 44.8111 7.28933 44.4543C7.52928 44.0976 7.85337 43.8618 8.09955 43.7408C8.34885 43.6168 8.52336 43.592 8.52959 43.6106C8.55452 43.654 7.88141 43.8711 7.42644 44.5474C6.96835 45.2205 7.02133 45.9247 6.97147 45.9154H6.96835Z" fill="#F49A6C"/>
<path d="M63.7699 10.6442C63.514 10.2989 62.9452 10.6157 62.7624 11.0016C62.5796 11.3874 62.4943 11.8788 62.1042 12.0657C61.5924 12.3094 60.8123 11.8707 60.4955 12.3378C60.2517 12.6952 60.6092 13.1785 60.5077 13.5968C60.3248 14.3441 59.0208 14.1614 58.6511 14.8356C58.4317 15.2377 58.6592 15.725 58.8339 16.1474C59.0086 16.5698 59.0776 17.1547 58.6836 17.3984C58.2976 17.6339 57.7045 17.3618 57.3795 17.6745C56.9448 18.0929 57.5948 18.8077 57.4607 19.3885C57.3632 19.8149 56.8757 20.0261 56.441 20.1236C56.0063 20.217 55.5229 20.282 55.2344 20.6191C54.6007 21.3583 55.531 22.4995 55.2669 23.4377C55.1085 24.0023 54.5154 24.4815 54.6535 25.0501C54.8322 25.7771 56.0307 25.8787 56.2013 26.6097C56.3476 27.2311 55.6326 27.9378 56.0266 28.4415C56.4085 28.9329 57.2657 28.4739 57.8142 28.7786C58.4439 29.1319 58.3261 30.2935 59.0289 30.4641C59.3417 30.5412 59.6708 30.3544 59.9876 30.3991C60.7636 30.5128 60.9708 31.8368 61.7549 31.784C62.2139 31.7556 62.5714 31.2195 63.0183 31.3292C63.453 31.4347 63.5221 32.0521 63.8999 32.2917C64.489 32.6654 65.1715 31.8937 65.8702 31.8612C66.3049 31.8409 66.7275 32.1211 67.154 32.044C67.5643 31.9668 67.8487 31.5769 67.9381 31.1748C68.0234 30.7727 67.9584 30.3544 67.9097 29.9483C67.6537 27.7023 68.0518 25.3872 69.0512 23.3565" fill="#EC7849"/>
<path d="M18.4966 102.224L17.0195 108.335C17.0195 108.335 22.7627 111.883 22.6006 113.037L10.5938 110.612L12.504 100.995L18.4966 102.224Z" fill="#192E35"/>
<path d="M13.4129 107.069C13.1667 107.085 12.9548 107.314 12.9611 107.559C12.9673 107.804 13.1979 108.021 13.4441 108.009C13.6903 107.997 13.9552 107.733 13.9209 107.488C13.8866 107.246 13.603 107.004 13.3662 107.075" fill="#E1E0E0"/>
<g opacity="0.6">
<path d="M10.5938 110.615L10.8244 109.653L22.2516 112.339C22.2516 112.339 22.7378 112.678 22.6006 113.04L10.5938 110.615Z" fill="white"/>
</g>
<path d="M17.2283 108.316C17.2159 108.375 16.9167 108.341 16.5895 108.471C16.2592 108.592 16.0597 108.815 16.0099 108.781C15.9569 108.76 16.1158 108.428 16.5147 108.279C16.9105 108.127 17.2533 108.266 17.2283 108.319V108.316Z" fill="white"/>
<path d="M18.3752 109.088C18.3752 109.147 18.1041 109.197 17.8548 109.402C17.5992 109.6 17.4933 109.858 17.4372 109.842C17.3811 109.842 17.4092 109.492 17.7239 109.24C18.0355 108.986 18.3877 109.033 18.3752 109.088Z" fill="white"/>
<path d="M18.788 110.733C18.7319 110.733 18.7101 110.425 18.9251 110.137C19.1401 109.845 19.4424 109.777 19.4549 109.83C19.4767 109.886 19.2648 110.019 19.0903 110.261C18.9126 110.497 18.8441 110.739 18.7849 110.733H18.788Z" fill="white"/>
<path d="M17.4089 106.886C17.3746 106.936 17.1222 106.799 16.7856 106.756C16.4491 106.703 16.1686 106.762 16.1499 106.706C16.125 106.656 16.421 106.492 16.8168 106.551C17.2125 106.607 17.4494 106.849 17.412 106.886H17.4089Z" fill="#192E35"/>
<path d="M14.3953 103.83L14.4016 110.118C14.4016 110.118 20.8241 112.222 20.9394 113.385L8.69571 113.838L8.28125 104.041L14.3984 103.834L14.3953 103.83Z" fill="#192E35"/>
<path d="M10.5969 109.727C10.3632 109.802 10.2074 110.072 10.2728 110.308C10.3352 110.543 10.6125 110.701 10.8493 110.633C11.0862 110.565 11.2794 110.245 11.189 110.016C11.0986 109.789 10.7652 109.619 10.5533 109.743" fill="#E1E0E0"/>
<g opacity="0.6">
<path d="M8.69531 113.835V112.845L20.4342 112.783C20.4342 112.783 20.9889 113 20.9422 113.385L8.69843 113.838L8.69531 113.835Z" fill="white"/>
</g>
<path d="M14.5994 110.047C14.5994 110.106 14.3003 110.143 14.0136 110.348C13.7207 110.543 13.5804 110.807 13.5243 110.785C13.4682 110.776 13.5461 110.416 13.8952 110.177C14.2442 109.935 14.6088 109.994 14.5994 110.047Z" fill="white"/>
<path d="M15.8997 110.531C15.9153 110.587 15.6598 110.698 15.4666 110.959C15.264 111.213 15.2235 111.486 15.1643 111.486C15.1082 111.499 15.0552 111.151 15.3014 110.832C15.5445 110.512 15.8966 110.475 15.8997 110.531Z" fill="white"/>
<path d="M16.6907 112.032C16.6377 112.048 16.5411 111.753 16.6844 111.421C16.8247 111.089 17.102 110.95 17.1269 110.999C17.1612 111.046 16.9867 111.229 16.8745 111.502C16.7561 111.772 16.7499 112.026 16.6907 112.032Z" fill="white"/>
<path d="M14.4361 108.617C14.4143 108.673 14.1369 108.601 13.7972 108.636C13.4607 108.663 13.202 108.788 13.1678 108.738C13.1304 108.698 13.3797 108.465 13.7785 108.431C14.1743 108.39 14.4641 108.57 14.4361 108.62V108.617Z" fill="#192E35"/>
<path d="M4.75312 58.2556L4.97749 63.2158L7.1869 82.4826C7.1869 82.4826 6.77556 91.8973 6.50445 97.2111C6.26761 101.827 7.35518 109.799 7.35518 109.799L15.1458 109.452L16.7288 82.6315L17.7074 65.9053L20.3749 58.1936L4.75 58.2525L4.75312 58.2556Z" fill="#323F5C"/>
<path d="M25.7175 58.2056L25.032 85.2368L18.0609 105.775L17.7524 107.01L13.0469 106.098L14.3557 58.1684L25.7175 58.2056Z" fill="#323F5C"/>
<path d="M17.6272 66.1066C17.6272 66.1066 17.6334 66.1438 17.6366 66.2182C17.6366 66.2989 17.6428 66.4075 17.6459 66.5471C17.649 66.8449 17.6553 67.2698 17.6646 67.8127C17.6833 68.9108 17.674 70.5022 17.6521 72.4689C17.5929 76.3991 17.3997 81.8277 16.9853 87.8147C16.5802 93.8016 16.0784 99.2084 15.7107 103.123C15.5237 105.074 15.3711 106.653 15.262 107.758C15.2059 108.297 15.1623 108.722 15.1342 109.017C15.1186 109.157 15.1062 109.262 15.0968 109.343C15.0875 109.417 15.0812 109.454 15.0781 109.454C15.0781 109.454 15.0781 109.417 15.0781 109.343C15.0844 109.262 15.0906 109.154 15.0999 109.014C15.1249 108.716 15.1591 108.294 15.2028 107.751C15.2994 106.647 15.4365 105.065 15.6048 103.114C15.9476 99.1991 16.4306 93.7892 16.8357 87.8053C17.2501 81.8246 17.4621 76.3991 17.5462 72.4689C17.5836 70.5053 17.6054 68.9139 17.6054 67.8158C17.6085 67.2729 17.6116 66.848 17.6147 66.5502C17.6147 66.4106 17.6179 66.302 17.621 66.2213C17.621 66.1469 17.6241 66.1097 17.6272 66.1097V66.1066Z" fill="#222C3D"/>
<path d="M10.6547 58.4848C10.6547 58.4848 10.6609 58.5872 10.636 58.7702C10.611 58.9532 10.5549 59.2169 10.449 59.5302C10.2433 60.1568 9.79147 60.9913 9.02175 61.6675C8.25204 62.3438 7.36079 62.6819 6.7095 62.806C6.38229 62.8711 6.11429 62.8928 5.92732 62.8928C5.74034 62.8928 5.64062 62.8835 5.64062 62.8773C5.64062 62.8494 6.05197 62.8587 6.68768 62.7067C7.32028 62.5609 8.17725 62.2135 8.92515 61.559C9.67305 60.9044 10.1249 60.101 10.3524 59.4961C10.583 58.8881 10.6297 58.4786 10.6547 58.4848Z" fill="#222C3D"/>
<path d="M17.8872 59.341C17.8965 59.5612 17.7251 59.7474 17.5039 59.7567C17.2826 59.766 17.0957 59.5954 17.0863 59.3751C17.077 59.1549 17.2483 58.9687 17.4696 58.9594C17.6909 58.9501 17.8778 59.1207 17.8872 59.341Z" fill="#385A65"/>
<path d="M24.9051 62.7998C24.9051 62.7998 24.6589 62.6447 24.3317 62.3127C24.0076 61.9808 23.6056 61.4659 23.2815 60.83C22.9606 60.1941 22.7861 59.5674 22.7113 59.1083C22.6365 58.6492 22.6427 58.3607 22.6583 58.3607C22.6832 58.3607 22.7113 58.643 22.811 59.0897C22.9107 59.5364 23.0946 60.1444 23.4093 60.7679C23.724 61.3914 24.1042 61.9002 24.4034 62.2476C24.7057 62.595 24.9145 62.7874 24.8989 62.806L24.9051 62.7998Z" fill="#222C3D"/>
<path d="M17.6279 29.4963C15.5307 29.5707 10.6974 23.8412 10.5758 21.7567L9.84663 9.20581C9.54436 5.8401 11.2583 2.85904 14.6457 2.6512H14.9604C18.1234 2.63879 20.766 5.04598 21.0308 8.18214C21.277 11.1012 21.5139 14.3273 21.4983 15.8938C21.4702 19.1354 18.2138 19.6535 18.2138 19.6535C18.2075 19.6535 18.2387 20.4042 18.2823 21.3565C18.382 23.4907 19.6441 29.4187 17.5001 29.4963H17.6279Z" fill="#F9BF9D"/>
<path d="M18.2131 19.6504C18.2131 19.6504 16.1595 19.7776 13.9688 18.4189C13.9688 18.4189 14.9971 20.854 18.2474 20.55L18.2162 19.6535L18.2131 19.6504Z" fill="#F49A6C"/>
<path d="M10.1256 11.6037C10.0696 11.5789 7.88507 10.9522 7.96297 13.1702C8.04088 15.3882 10.2596 14.8515 10.2628 14.7864C10.2628 14.7212 10.1256 11.6037 10.1256 11.6037Z" fill="#F9BF9D"/>
<path d="M9.55324 13.9706C9.55324 13.9706 9.51585 13.9985 9.4504 14.0326C9.38808 14.0636 9.27901 14.0884 9.16059 14.0481C8.92376 13.9706 8.71185 13.6045 8.68692 13.2075C8.67446 13.0058 8.70874 12.8135 8.7773 12.6522C8.83962 12.4878 8.93934 12.3699 9.05776 12.3451C9.17306 12.3141 9.26031 12.3823 9.29148 12.4444C9.32264 12.5064 9.31017 12.5498 9.32264 12.5529C9.32887 12.5591 9.36938 12.5126 9.34757 12.4226C9.33822 12.3792 9.31017 12.3265 9.25408 12.2861C9.19799 12.2458 9.12008 12.2241 9.03906 12.2365C8.86767 12.2551 8.71809 12.4164 8.64641 12.5933C8.56539 12.7732 8.51865 12.9903 8.53423 13.2168C8.56539 13.6635 8.80846 14.0729 9.13566 14.1536C9.29459 14.1877 9.42236 14.1381 9.4878 14.0822C9.55324 14.0264 9.56571 13.9737 9.55636 13.9706H9.55324Z" fill="#F49A6C"/>
<path d="M36.1535 43.6354L14.5859 47.8945L19.547 42.5559L38.7711 39.6617L36.1535 43.6354Z" fill="#F9BF9D"/>
<path d="M39.0915 37.8097C39.0915 37.8097 38.7799 37.6174 38.4277 38.3774C38.0756 39.1374 37.6767 41.2003 37.6767 41.2003L36.8509 41.8362C36.8509 41.8362 37.4368 40.6977 37.3464 40.31C37.256 39.9222 36.639 40.0649 36.4333 40.7008C36.2308 41.3368 35.5078 42.652 35.5078 42.652C35.5078 42.652 36.0812 43.7067 36.156 43.6385C36.2308 43.5702 37.7484 43.1266 37.7484 43.1266L38.1223 42.832C38.1223 42.832 39.1569 42.59 39.1476 42.2984C39.1382 42.0068 40.5686 40.4372 40.5094 40.1859C40.4502 39.9346 40.1261 38.5697 40.1261 38.5697C40.1261 38.5697 40.4626 36.4914 40.2476 36.3363C40.0326 36.1812 39.2348 35.9268 39.0915 37.8128V37.8097Z" fill="#F9BF9D"/>
<path d="M38.9718 37.8066C38.9718 37.8066 39.0029 37.8066 39.0497 37.8128C39.0964 37.8128 39.1588 37.8625 39.1806 37.9493V37.94C39.165 38.1603 39.1619 38.4953 39.1681 38.9048C39.1743 39.3111 39.193 39.795 39.1588 40.3038C39.1432 40.6698 39.0092 40.98 38.8689 41.2716C38.7412 41.5508 38.6228 41.8114 38.5137 42.0471C38.3143 42.4907 38.2021 42.7699 38.2208 42.7792C38.2395 42.7885 38.3859 42.5248 38.6103 42.0937C38.7287 41.861 38.8565 41.6066 38.9936 41.3305C39.0653 41.1879 39.1401 41.0328 39.2024 40.8621C39.2647 40.6915 39.2959 40.5023 39.3115 40.3131C39.3457 39.7888 39.3177 39.3049 39.2959 38.8986C39.2772 38.5356 39.2616 38.2161 39.2491 37.94V37.9338C39.2117 37.819 39.112 37.7663 39.0528 37.7756C38.9936 37.7818 38.9718 37.8035 38.9718 37.8066Z" fill="#F49A6C"/>
<path d="M39.9967 41.0235C40.0403 41.0235 40.1026 40.4775 40.1369 39.7982C40.1712 39.1188 40.1681 38.5667 40.1244 38.5667C40.0839 38.5667 40.0185 39.1126 39.9842 39.792C39.9499 40.4713 39.9531 41.0235 39.9967 41.0235Z" fill="#F49A6C"/>
<path d="M36.7791 40.2045C36.7791 40.2045 36.8258 40.2107 36.8975 40.2014C36.9661 40.1952 37.0845 40.1797 37.1686 40.2417C37.2559 40.3007 37.2621 40.4496 37.2216 40.614C37.1811 40.797 37.1437 40.98 37.1032 41.1754C37.0596 41.3647 37.0191 41.5477 36.9754 41.7276C36.9256 41.892 36.8664 42.0378 36.8227 42.165C36.7292 42.4163 36.7043 42.5869 36.7261 42.59C36.7479 42.5962 36.8071 42.4442 36.9225 42.2053C36.9785 42.0843 37.0502 41.9417 37.1094 41.771C37.1562 41.5973 37.206 41.4081 37.2528 41.2065C37.2902 41.011 37.3244 40.8249 37.3618 40.6419C37.3774 40.5519 37.3868 40.462 37.3712 40.372C37.3587 40.2821 37.3026 40.1952 37.231 40.1549C37.0783 40.0742 36.9567 40.127 36.8882 40.1456C36.8165 40.1735 36.7791 40.1983 36.7822 40.2076L36.7791 40.2045Z" fill="#F49A6C"/>
<path d="M32.0193 41.5508C32.0193 41.5508 32.0754 41.0762 31.5737 40.797C31.0751 40.5209 30.0218 39.9036 30.0218 39.9036L26.9118 39.7609L21.1343 41.2623L21.0938 45.0375C21.0938 45.0375 24.076 45.0685 24.7647 45.0096C25.4534 44.9537 27.3481 44.2558 27.3481 44.2558C27.3481 44.2558 30.5921 44.5195 30.7354 44.3333C30.8819 44.1472 31.0751 43.9363 30.8663 43.8184C30.6544 43.7005 28.1458 43.1732 28.1458 43.1732L29.8037 42.9715C29.8037 42.9715 32.2593 43.3717 32.4338 43.2879C32.6083 43.2042 32.8264 42.8878 32.6613 42.6644L32.4961 42.4411C32.4961 42.4411 32.6301 41.9758 32.2125 41.8145L31.9788 41.7493L32.0193 41.5446V41.5508Z" fill="#F9BF9D"/>
<path d="M27.6016 42.072C27.5985 42.0875 27.8821 42.165 28.3526 42.1619C28.8169 42.1774 29.4682 42.072 30.1413 42.2364C30.4748 42.3232 30.7802 42.4721 31.07 42.5776C31.3598 42.6862 31.6278 42.7668 31.8553 42.8227C32.3102 42.9343 32.6 42.956 32.6032 42.9374C32.6063 42.9157 32.3258 42.8568 31.8833 42.7234C31.6621 42.6551 31.4034 42.5683 31.1198 42.4535C30.8363 42.3418 30.5309 42.1867 30.1787 42.0937C29.8235 42.0037 29.4745 41.9975 29.1659 42.0099C28.8574 42.0223 28.5801 42.0471 28.3495 42.0595C27.8883 42.0875 27.6047 42.0502 27.6016 42.072Z" fill="#F49A6C"/>
<path d="M27.836 41.1941C27.8328 41.2127 28.0915 41.2716 28.5091 41.2499C28.9235 41.2344 29.4938 41.1506 30.0765 41.3833C30.6655 41.5973 31.1984 41.8083 31.5879 41.9416C31.9775 42.0781 32.2236 42.1557 32.2299 42.1371C32.2361 42.1185 32.0055 42.0099 31.6253 41.8455C31.242 41.6842 30.7185 41.4608 30.1233 41.2437C29.8241 41.1351 29.5094 41.0793 29.2289 41.0886C28.9485 41.0917 28.7054 41.1289 28.4997 41.1475C28.0915 41.1941 27.8391 41.1723 27.836 41.1941Z" fill="#F49A6C"/>
<path d="M20.8203 45.447C20.8203 45.447 20.9574 45.4656 21.2036 45.4749C21.481 45.478 21.83 45.4842 22.2476 45.4935C22.6994 45.4935 23.2229 45.4966 23.7963 45.4997C24.0893 45.4997 24.3946 45.4997 24.7094 45.4997C24.8901 45.4904 25.0335 45.4346 25.1955 45.3942C25.3544 45.3477 25.5134 45.3043 25.6754 45.2578C26.3392 45.0623 26.9655 44.8638 27.5327 44.6839H27.5078C28.3679 44.7273 29.0971 44.7552 29.6144 44.7707C29.8512 44.7738 30.0506 44.78 30.2158 44.7831C30.356 44.7831 30.4308 44.78 30.4308 44.7707C30.4308 44.7614 30.356 44.7521 30.2189 44.7366C30.0537 44.7211 29.8543 44.7056 29.6206 44.6839C29.1064 44.6436 28.3772 44.597 27.5171 44.5443H27.5047L27.4922 44.5474C26.9219 44.7211 26.2956 44.9103 25.6349 45.1089C25.4729 45.1554 25.3139 45.2019 25.1581 45.2453C25.0023 45.2826 24.8403 45.3415 24.7032 45.3477C24.3884 45.3508 24.083 45.3539 23.7901 45.3601C23.2167 45.3694 22.6963 45.3787 22.2444 45.388C21.83 45.4004 21.481 45.4129 21.2036 45.4191C20.9574 45.4315 20.8203 45.4408 20.8203 45.4532V45.447Z" fill="#F49A6C"/>
<path d="M72.2023 90.6654L72.6105 111.375L67.5715 111.911L64.1094 90.8267L66.8299 87.4207L72.2023 90.6654Z" fill="#F9BF9D"/>
<path d="M66.9572 110.888V111.226C66.9572 111.226 61.2264 113.593 61.1797 114.681L72.6132 114.492V110.701C70.9273 111.514 68.9298 111.638 66.9572 110.888Z" fill="#385A65"/>
<path d="M72.6138 114.492L72.5609 113.583L61.6197 114.098C61.6197 114.098 61.1149 114.328 61.1772 114.684L72.6107 114.495L72.6138 114.492Z" fill="#192E35"/>
<path d="M73.7151 12.0411L69.4271 10.3194L68.3053 10.4435C65.7811 10.4435 64.0235 13.2043 63.9986 15.2424C63.9706 17.5038 64.0235 20.2677 64.3757 21.9366C65.0862 25.293 67.7132 25.5939 67.7132 25.5939C67.7132 25.5877 67.682 26.509 67.654 27.635C67.6041 29.6576 69.262 31.314 71.2937 31.2706C73.2321 31.2303 74.7839 29.6607 74.7902 27.7312L74.8432 13.1919C74.8245 12.5746 74.3321 12.0721 73.712 12.038L73.7151 12.0411Z" fill="#F9BF9D"/>
<path d="M67.7093 25.5939C67.7093 25.5939 70.0029 25.628 72.1998 24.1577C72.1998 24.1577 71.106 26.5648 67.6875 26.4159L67.7093 25.5939Z" fill="#F49A6C"/>
<path d="M64.9586 15.0904C65.0459 15.1927 65.3637 15.0655 65.7533 15.0407C66.1397 15.0035 66.4731 15.0749 66.5448 14.9601C66.5759 14.9042 66.5167 14.8019 66.3703 14.7088C66.2238 14.6157 65.9839 14.5444 65.7159 14.5661C65.4479 14.5878 65.2235 14.6964 65.0926 14.8112C64.9617 14.926 64.9212 15.0376 64.9586 15.0873V15.0904Z" fill="#551B0C"/>
<path d="M70.9512 14.8608C70.8702 14.9694 70.5461 14.8608 70.1566 14.8608C69.7671 14.8484 69.4399 14.9415 69.362 14.8298C69.3277 14.7771 69.3775 14.6685 69.5209 14.5661C69.6611 14.4638 69.898 14.38 70.166 14.3831C70.4339 14.3893 70.6677 14.4824 70.8017 14.5878C70.9419 14.6964 70.9855 14.805 70.9512 14.8577V14.8608Z" fill="#551B0C"/>
<path d="M76.3371 18.9183C76.3371 18.9183 76.443 18.8624 76.602 18.7228C76.764 18.5833 76.9759 18.3568 77.1878 18.0404C77.6179 17.4169 77.9887 16.3746 77.9264 15.2082C77.8609 14.0419 77.4371 13.0523 77.0756 12.3947C76.8918 12.0628 76.7266 11.8084 76.602 11.6378C76.4804 11.4672 76.4025 11.3772 76.3963 11.3834C76.3714 11.3989 76.6394 11.7805 76.9759 12.4474C77.3093 13.1113 77.702 14.0853 77.7643 15.2175C77.8266 16.3467 77.4839 17.3579 77.0912 17.9815C76.7017 18.6143 76.3121 18.8935 76.3371 18.9183Z" fill="#455A64"/>
<path d="M77.9062 15.5105C77.9062 15.5105 77.9013 15.4655 77.8813 15.3814C77.8614 15.3004 77.824 15.1803 77.7641 15.0332C77.6419 14.7421 77.4075 14.3428 77.021 13.9796C76.642 13.6074 76.1109 13.2982 75.5049 13.049C74.899 12.7939 74.2158 12.5868 73.5475 12.2205C72.8742 11.8663 72.2782 11.416 71.7696 10.9568C71.2634 10.4915 70.8469 10.0112 70.5228 9.58194C70.1986 9.15268 69.9642 8.77445 69.8071 8.51029C69.7348 8.38421 69.6774 8.28215 69.6301 8.2011C69.5902 8.13206 69.5652 8.09604 69.5627 8.09604C69.5602 8.09604 69.5777 8.13806 69.6126 8.21311C69.65 8.28515 69.6999 8.39622 69.7747 8.5343C69.9243 8.80747 70.1512 9.1947 70.4704 9.63297C70.7896 10.0712 71.206 10.5635 71.7122 11.0348C72.2209 11.5031 72.8243 11.9624 73.5051 12.3196C74.1808 12.6918 74.8716 12.8959 75.4725 13.1451C76.076 13.3882 76.5996 13.6824 76.9761 14.0426C77.3602 14.3908 77.597 14.7721 77.7267 15.0542C77.8539 15.3394 77.8913 15.5165 77.9013 15.5105H77.9062Z" fill="#455A64"/>
<path d="M75.4504 21.4226C75.4504 21.4226 75.5578 21.2681 75.6 20.943C75.6478 20.6207 75.6037 20.1252 75.3353 19.5986C75.078 19.0637 74.5771 18.5574 73.9914 18.0613C73.4044 17.5679 72.7792 17.0038 72.2408 16.3061C71.7023 15.6084 71.2751 14.8825 70.9733 14.1839C70.6675 13.4867 70.469 12.8252 70.3466 12.2633C70.2171 11.7015 70.1803 11.2337 70.1431 10.9145C70.1337 10.7646 70.1258 10.6397 70.1181 10.5425C70.1119 10.4565 70.106 10.412 70.1018 10.4134C70.099 10.4121 70.0938 10.4579 70.093 10.544C70.0938 10.6412 70.0947 10.7661 70.0958 10.9189C70.1177 11.2409 70.1448 11.7143 70.2645 12.2817C70.3801 12.8505 70.5674 13.5204 70.872 14.2274C71.1724 14.9357 71.6039 15.6741 72.1466 16.3773C72.6879 17.0833 73.3298 17.6556 73.9196 18.1435C74.5053 18.6327 74.999 19.1251 75.2576 19.6364C75.5259 20.1421 75.5851 20.6209 75.5512 20.9363C75.5215 21.2571 75.4294 21.4157 75.4434 21.4226L75.4504 21.4226Z" fill="#263238"/>
<path d="M74.477 18.909C74.4645 18.6577 74.7263 18.0497 74.9756 17.997C75.6394 17.8605 76.8422 17.8543 76.9388 19.5418C77.0697 21.8466 74.7169 21.5023 74.7107 21.4371C74.7045 21.3844 74.5175 19.7807 74.477 18.909Z" fill="#F9BF9D"/>
<path d="M75.0625 20.522C75.0625 20.522 75.103 20.5469 75.1747 20.5748C75.2432 20.6027 75.3585 20.6151 75.477 20.5624C75.7169 20.46 75.9008 20.0598 75.8883 19.6442C75.8821 19.4332 75.826 19.2378 75.7418 19.0765C75.6608 18.9121 75.5455 18.8004 75.4209 18.7849C75.2962 18.7632 75.2152 18.8407 75.1903 18.909C75.1622 18.9741 75.1809 19.0207 75.1685 19.0238C75.1622 19.03 75.1155 18.9865 75.1311 18.8904C75.1373 18.8438 75.1622 18.788 75.2152 18.7415C75.2682 18.6918 75.3492 18.667 75.4364 18.6701C75.6172 18.6701 75.7855 18.8283 75.879 19.0051C75.9818 19.182 76.0472 19.4053 76.0566 19.6411C76.069 20.1064 75.854 20.5562 75.5237 20.6709C75.3648 20.7237 75.2245 20.6802 75.1498 20.6306C75.075 20.5779 75.0594 20.5282 75.0687 20.522H75.0625Z" fill="#F49A6C"/>
<path d="M68.044 19.9513C67.8321 19.9637 67.293 19.9854 66.9004 19.8892C66.8723 19.883 66.8505 19.914 66.863 19.9389C66.9315 20.0598 67.0967 20.3111 67.3211 20.3794C67.5454 20.4476 67.9194 20.1467 68.069 20.0102C68.0908 19.9885 68.0752 19.9513 68.044 19.9513Z" fill="#F4A887"/>
<path d="M69.0741 21.7194C69.0741 21.7194 67.8837 22.0669 66.4315 21.8652C66.3723 21.8559 66.3162 21.8994 66.3131 21.9583C66.3068 22.0607 66.3474 22.2065 66.6309 22.2406C66.6527 22.2406 66.6652 22.2623 66.6621 22.2809C66.6154 22.4887 66.6465 22.7431 66.8771 22.8207C67.1015 22.8982 67.3508 22.8424 67.5689 22.7803C67.8026 22.7121 68.0177 22.5973 68.2171 22.4577C68.3854 22.3398 68.5443 22.2034 68.6939 22.0669C68.7656 22.0017 68.8404 21.9335 68.9089 21.8652C68.9588 21.8156 69.0024 21.7381 69.0741 21.7163V21.7194Z" fill="#F3A685"/>
<path d="M35.8781 39.7671C36.037 39.9284 36.0744 40.2852 35.9809 40.4868C35.8874 40.6884 35.7067 40.8373 35.5166 40.9552C35.205 40.6357 34.9432 40.2665 34.75 39.8633" fill="#F49A6C"/>
<path d="M37.2345 39.3731C37.4277 39.491 37.5555 39.826 37.515 40.0463C37.4745 40.2665 37.3342 40.4526 37.1847 40.6171C36.8014 40.3844 36.4586 40.0897 36.1719 39.7485" fill="#F49A6C"/>
<path d="M67.9689 29.1457C67.9689 29.1457 57.7196 37.1738 55.8716 37.4375C54.0237 37.7011 45.3761 36.6589 41.8298 36.5472L41.3281 39.5096C41.3281 39.5096 51.1225 42.8195 54.6844 42.9529C58.2462 43.0832 60.2905 42.1278 60.2905 42.1278L66.9499 35.3374L67.9658 29.1457H67.9689Z" fill="#F9BF9D"/>
<path d="M42.0535 36.5782C42.0535 36.5782 37.4758 35.9299 36.7653 36.2835C36.0548 36.6372 34.0105 38.3557 34.0105 38.3557C34.0105 38.3557 33.3312 40.2634 33.7581 40.3534C34.185 40.4434 34.6306 39.7361 34.6306 39.7361L35.2103 38.6752L37.7656 38.0548L42.0099 38.427L42.0535 36.5782Z" fill="#F9BF9D"/>
<path d="M41.3244 39.5096C41.2589 39.5903 39.6229 40.3751 38.7909 40.3534C37.9588 40.3317 37.0084 39.6865 36.2916 39.7826C35.5749 39.8819 34.0916 39.9967 33.9108 39.7392C33.7301 39.4848 33.6802 39.187 33.9233 38.9575C34.1663 38.7279 35.3661 38.5015 36.2324 38.2688C37.0987 38.0362 37.5163 37.6794 37.5163 37.6794L42.5553 38.2316L42.842 39.7981L41.3244 39.5065V39.5096Z" fill="#F9BF9D"/>
<path d="M39.149 37.6298C39.149 37.6298 39.0555 37.6112 38.8841 37.6112C38.7158 37.6174 38.4665 37.6329 38.1705 37.6981C37.5691 37.8066 36.7869 38.1199 35.9237 38.4084C35.4874 38.5511 35.0698 38.6473 34.6772 38.7C34.4809 38.731 34.2721 38.7776 34.1194 38.9141C33.9667 39.0506 33.9168 39.246 33.9324 39.4104C33.9449 39.5779 34.0352 39.7144 34.1412 39.7919C34.244 39.8695 34.3562 39.9005 34.4435 39.9067C34.6242 39.916 34.7084 39.8509 34.7052 39.8447C34.7021 39.8292 34.6118 39.8726 34.4528 39.8447C34.3032 39.823 34.0571 39.6865 34.0477 39.4042C34.0415 39.2708 34.0913 39.1157 34.2098 39.0195C34.3282 38.9172 34.5058 38.8768 34.699 38.852C35.0948 38.8055 35.5373 38.7093 35.9735 38.5666C36.8523 38.275 37.6158 37.9493 38.1985 37.8128C38.7782 37.6608 39.1521 37.6639 39.1521 37.636L39.149 37.6298Z" fill="#F49A6C"/>
<path d="M35.8438 38.5759C35.8593 38.6162 36.2208 38.4922 36.5854 38.2037C36.95 37.9183 37.1557 37.5988 37.1214 37.574C37.084 37.546 36.8347 37.8066 36.4857 38.0765C36.1398 38.3495 35.8251 38.5325 35.8469 38.5759H35.8438Z" fill="#F49A6C"/>
<path d="M76.7948 89.9861L86.0843 94.1056L84.9687 99.0409C84.9687 99.0409 73.2859 95.5759 69.456 94.8035C65.6355 94.0342 59.4435 93.054 57.6953 89.3625L76.7979 89.983L76.7948 89.9861Z" fill="#F9BF9D"/>
<path d="M84.0781 99.1309L84.4022 99.2177C84.4022 99.2177 85.147 105.279 86.1754 105.614L89.0267 94.726L85.3994 93.7209C85.7297 95.5356 85.3184 97.462 84.0781 99.1309Z" fill="#385A65"/>
<path d="M89.0283 94.7229L88.1432 94.5305L85.7344 105.037C85.7344 105.037 85.8185 105.577 86.1769 105.611L89.0283 94.7229Z" fill="#192E35"/>
<path d="M57.7422 89.5052C57.7422 89.5052 57.7609 89.5983 57.8419 89.7658C57.9167 89.9333 58.06 90.1629 58.2875 90.4265C58.7394 90.957 59.5309 91.5867 60.578 92.2443C61.1108 92.567 61.7341 92.8492 62.4166 93.1005C63.1021 93.3642 63.8687 93.5224 64.6571 93.724C66.2402 94.1211 67.9791 94.5771 69.8021 95.0548C73.445 96.0133 76.7388 96.8788 79.1446 97.5085C80.3319 97.8094 81.2979 98.0545 81.9835 98.2282C82.3076 98.3057 82.5662 98.3678 82.7594 98.4112C82.937 98.4515 83.0305 98.4701 83.0336 98.4639C83.0336 98.4577 82.9433 98.4298 82.7688 98.3802C82.5787 98.3274 82.3231 98.2561 82.0022 98.1661C81.3197 97.98 80.3599 97.7194 79.1788 97.3968C76.7918 96.7516 73.4979 95.8551 69.8488 94.8966C68.0258 94.4189 66.2869 93.9691 64.6976 93.5782C63.903 93.3797 63.1426 93.2277 62.4664 92.9733C61.7871 92.7283 61.1669 92.4553 60.6403 92.1451C59.5901 91.503 58.7955 90.8919 58.3374 90.3831C57.8699 89.8744 57.764 89.4928 57.7453 89.5052H57.7422Z" fill="#F49A6C"/>
<path d="M72.4982 49.8487L72.2894 51.6696C72.2894 51.6696 75.5054 57.7217 75.5054 60.9696C75.5054 64.2174 76.9887 90.0698 76.9887 90.0698C76.9887 90.0698 59.5409 91.0593 57.696 89.3625L55.8512 87.6688L49.6094 85.9751L59.3476 50.6025V48.7072L72.4982 49.8487Z" fill="#9AECCB"/>
<path d="M60.5588 58.6089C60.5588 58.6089 60.5494 58.6337 60.5401 58.6802C60.5307 58.7361 60.5183 58.8074 60.5058 58.8912C60.4778 59.0928 60.4373 59.3627 60.3874 59.707C60.2846 60.4298 60.1412 61.4535 59.9636 62.7098C59.599 65.2442 59.0568 68.7402 58.3587 72.5805C57.6576 76.4239 56.9315 79.8858 56.3799 82.386C56.1026 83.6237 55.8751 84.6319 55.7161 85.3454C55.6414 85.6835 55.5821 85.9534 55.5385 86.1519C55.5229 86.2357 55.5074 86.3039 55.4949 86.3628C55.4855 86.4094 55.4824 86.4342 55.4855 86.4373C55.4855 86.4373 55.498 86.4156 55.5105 86.3691C55.5261 86.3132 55.5448 86.245 55.5697 86.1612C55.6195 85.9658 55.6912 85.699 55.7785 85.364C55.9561 84.6691 56.2023 83.6641 56.4921 82.417C57.0748 79.923 57.8165 76.4611 58.5177 72.6146C59.2157 68.7681 59.7423 65.269 60.0758 62.7284C60.2441 61.4597 60.3687 60.4298 60.4466 59.7194C60.484 59.3751 60.512 59.099 60.5339 58.9005C60.5401 58.8136 60.5463 58.7454 60.5526 58.6864C60.5557 58.6368 60.5557 58.612 60.5526 58.612L60.5588 58.6089Z" fill="#385A65"/>
<path d="M73.0936 61.8474C73.0936 61.8474 73.0624 61.9157 73.0219 62.0521C72.9783 62.2041 72.9191 62.4027 72.8443 62.6477C72.6885 63.1813 72.4672 63.9258 72.1992 64.8378C71.6477 66.6835 70.853 69.2241 69.8776 71.9973C68.9022 74.7705 67.9331 77.2521 67.207 79.0358C66.8455 79.9137 66.5526 80.6303 66.3376 81.1452C66.241 81.3841 66.1631 81.5733 66.1039 81.7191C66.0509 81.8525 66.026 81.9207 66.0322 81.9238C66.0384 81.9238 66.0727 81.8587 66.135 81.7315C66.2005 81.5888 66.2877 81.3996 66.3968 81.17C66.6212 80.6799 66.9359 79.9664 67.313 79.0793C68.0671 77.3049 69.0518 74.8264 70.0303 72.05C71.0057 69.2737 71.7848 66.7269 72.3083 64.8688C72.5701 63.9413 72.7726 63.1875 72.9035 62.6633C72.9658 62.4151 73.0126 62.2135 73.05 62.0615C73.0811 61.9219 73.0967 61.8505 73.0905 61.8474H73.0936Z" fill="#385A65"/>
<path d="M67.6828 27.8429C67.767 27.6443 61.494 32.6262 60.7055 35.052C59.9171 37.4778 59.7831 44.476 59.7831 44.476L59.3438 48.9678L71.8711 49.8487L72.2076 48.9678L73.1331 46.4644L74.4233 42.683C74.4233 42.683 77.5115 37.909 78.1223 35.8523C78.8826 33.2994 77.6205 30.6843 77.6205 30.6843L74.7879 27.5016L67.6859 27.8429H67.6828Z" fill="#9AECCB"/>
<path d="M74.7819 27.7312C74.7819 27.7312 75.4768 26.4469 75.0468 25.8886C74.7071 25.445 68.6772 26.0003 67.4431 26.2608C66.7202 26.4128 67.4556 28.0166 67.4556 28.0166L74.7788 27.7312H74.7819Z" fill="#9AECCB"/>
<g opacity="0.3">
<path d="M71.1692 33.7802C70.6426 35.1327 71.3873 39.3359 71.4995 40.3379C71.6148 41.3399 71.8984 42.3108 72.1913 43.2755C72.3284 43.7253 72.4562 44.2403 72.2007 44.6342C71.7893 45.267 70.7298 45.0871 70.2188 45.6455C71.1723 46.0891 72.2724 46.2163 73.3038 46.0022C73.4846 45.965 73.6747 45.9092 73.7931 45.7665C73.8835 45.6579 73.9146 45.5121 73.9427 45.3725C74.2387 43.9021 74.3696 42.3759 74.086 40.8994C73.8024 39.4259 72.3877 35.8865 71.2004 34.9621" fill="black"/>
</g>
<path d="M70.9506 35.6383C70.9101 35.6507 71.1002 36.3332 71.5521 37.0776C72.0008 37.8252 72.5181 38.3123 72.5461 38.2843C72.5835 38.2533 72.1286 37.726 71.6923 36.9939C71.2498 36.268 70.9974 35.6197 70.9506 35.6383Z" fill="#192E35"/>
<path d="M67.4484 27.8646C67.4484 27.8646 67.5481 27.9018 67.7351 27.9421C67.9221 27.9825 68.1932 28.029 68.5329 28.0755C69.2091 28.1655 70.1564 28.2306 71.1973 28.181C72.2412 28.1283 73.1761 27.9701 73.8399 27.8119C74.1733 27.7343 74.4382 27.6599 74.6189 27.5978C74.7997 27.5389 74.8994 27.5016 74.8963 27.4892C74.89 27.4644 74.4818 27.5699 73.8149 27.6971C73.148 27.8274 72.2225 27.9639 71.1879 28.0166C70.1564 28.0662 69.2185 28.0228 68.5422 27.9608C67.866 27.8987 67.4515 27.8367 67.4453 27.8615L67.4484 27.8646Z" fill="#192E35"/>
<path d="M63.0385 39.9222C63.0666 39.9129 62.9575 39.5779 62.8734 39.0226C62.7861 38.4674 62.755 37.6856 62.9014 36.845C63.0541 36.0012 63.3533 35.2785 63.6275 34.7883C63.8986 34.2951 64.1168 34.019 64.0949 34.0004C64.0856 33.9942 64.0264 34.0563 63.9204 34.1772C63.8145 34.2982 63.6774 34.4843 63.5278 34.7294C63.2255 35.2133 62.8983 35.9516 62.7425 36.814C62.5898 37.6794 62.6428 38.4829 62.7612 39.0412C62.8173 39.3204 62.8796 39.5438 62.9388 39.6927C62.9949 39.8416 63.0292 39.9222 63.0417 39.9191L63.0385 39.9222Z" fill="#192E35"/>
<g opacity="0.3">
<path d="M71.3344 28.0786C72.3223 27.9918 73.4815 27.8739 74.4444 27.6381C73.011 28.4012 71.2628 28.7983 69.6517 28.5936C69.0502 28.5191 68.4145 28.3485 68.0156 27.8925C68.938 28.2523 70.3497 28.1624 71.3375 28.0755L71.3344 28.0786Z" fill="black"/>
</g>
<g opacity="0.3">
<path d="M64.2667 41.3491C63.1417 40.1828 62.587 38.4922 62.8051 36.8915C62.6337 37.5181 62.5995 37.8624 62.5745 38.5108C62.5496 39.1591 62.6275 39.7795 63.0108 40.3038C63.3941 40.828 63.6185 41.1444 64.2667 41.3491Z" fill="black"/>
</g>
<path d="M72.9966 31.0535C74.3397 29.9398 76.3808 30.0918 77.4466 31.4692C77.4902 31.5281 77.5338 31.587 77.5743 31.6491C78.2256 32.62 80.0175 47.7425 79.3039 49.5541C78.5902 51.3656 77.5494 51.2354 77.5494 51.2354C77.5494 51.2354 72.8501 51.1826 69.469 50.4071C66.0879 49.6316 62.3203 48.3567 62.3203 48.3567L62.9436 44.6932C62.9436 44.6932 71.2203 45.7851 73.4952 45.5245L72.6257 38.1634C72.6257 38.1634 70.6469 35.7624 71.2141 33.563C71.4821 32.5176 72.2549 31.6646 72.9903 31.0535H72.9966Z" fill="#F9BF9D"/>
<path d="M60.3357 42.4411L58.4785 41.1972L57.1416 40.0742C57.1416 40.0742 56.9764 40.6295 57.394 41.2561C57.8116 41.8827 58.5065 42.8195 58.5065 42.8195L60.3357 42.438V42.4411Z" fill="#F9BF9D"/>
<path d="M57.5677 41.6904C57.5833 41.678 57.4617 41.5477 57.334 41.2809C57.2093 41.0203 57.0909 40.5799 57.2124 40.0928L57.1003 40.127C57.496 40.462 57.9479 40.8466 58.4309 41.2592H58.434L58.4371 41.2654C58.4683 41.2871 58.5026 41.3088 58.5368 41.3305C58.9513 41.6035 59.344 41.8672 59.7086 42.1061C60.0669 42.3449 60.3941 42.5558 60.6871 42.7078C61.2604 43.0243 61.6188 43.2135 61.6282 43.1918C61.6406 43.1732 61.301 42.9498 60.7463 42.6086C60.4627 42.4442 60.1448 42.2239 59.7896 41.9789C59.4281 41.7338 59.0354 41.4701 58.6272 41.1941C58.5929 41.1723 58.5587 41.1475 58.5275 41.1289L58.5337 41.1351C58.0445 40.7319 57.5895 40.3534 57.1875 40.0215L57.1003 39.9501L57.0753 40.0556C56.9538 40.6016 57.1065 41.0514 57.2561 41.3181C57.334 41.4546 57.4088 41.5477 57.468 41.6066C57.5241 41.6656 57.5583 41.6935 57.5646 41.6904H57.5677Z" fill="#F49A6C"/>
<path d="M61.0097 45.5617C60.9474 45.4376 56.0611 40.0153 54.8551 38.6814C54.6993 38.5077 54.4438 38.4612 54.2319 38.5666C53.9265 38.7217 53.8486 39.1219 54.0792 39.3763L60.3366 46.3031L61.0066 45.5648L61.0097 45.5617Z" fill="#192E35"/>
<path d="M55.807 43.1949C55.6076 42.925 55.9067 42.3945 56.1841 42.2487C56.4614 42.1029 57.5646 42.7109 57.5646 42.7109L57.9666 42.7482C57.9666 42.7482 60.1137 42.317 60.1853 42.3511C60.2134 42.3666 61.0454 42.7078 61.7341 43.2817C61.9585 43.4678 62.1392 43.6974 62.2982 43.9425C62.4633 44.1906 62.8622 44.6032 63.7971 44.8265L62.8871 48.5087C62.8871 48.5087 60.8927 48.0403 60.74 48.0403C60.5905 48.0403 58.917 47.9038 58.6958 47.8665C58.4745 47.8293 57.5303 47.5377 56.8167 47.0073C56.0999 46.4768 56.4365 46.027 56.4365 46.027C55.6948 45.5276 56.2745 45.0313 56.2745 45.0313L56.0688 44.6807C55.7634 44.1193 56.3804 43.8091 56.3804 43.8091C56.3804 43.8091 56.0096 43.471 55.8101 43.2011L55.807 43.1949Z" fill="#F9BF9D"/>
<path d="M57.2926 44.3364C57.305 44.2961 57.0713 44.1906 56.8064 44.0262C56.5415 43.8649 56.339 43.7036 56.3078 43.7346C56.2798 43.7626 56.4418 43.9797 56.7254 44.1534C57.009 44.3271 57.2801 44.3737 57.2894 44.3364H57.2926Z" fill="#F49A6C"/>
<path d="M56.6676 45.3384C56.6926 45.3074 56.6178 45.2019 56.4962 45.1026C56.3747 45.0034 56.2563 44.9506 56.2313 44.9816C56.2064 45.0127 56.2812 45.1181 56.4027 45.2174C56.5243 45.3167 56.6427 45.3694 56.6676 45.3384Z" fill="#F49A6C"/>
<path d="M56.882 46.1542C56.8851 46.1139 56.7605 46.0673 56.6171 46.0115C56.4707 45.9557 56.3491 45.9091 56.3242 45.9433C56.2993 45.9743 56.3959 46.0891 56.5642 46.1511C56.7324 46.2162 56.8789 46.1945 56.882 46.1542Z" fill="#F49A6C"/>
<path d="M57.5625 42.7109C57.5594 42.7575 58.0673 42.8226 58.6937 42.8692C59.3201 42.9126 59.8187 42.9684 59.8311 42.9312C59.8436 42.8816 59.3388 42.7513 58.7093 42.7078C58.0798 42.6613 57.5687 42.6675 57.5656 42.7078L57.5625 42.7109Z" fill="#F49A6C"/>
<path d="M73.3928 45.4563C73.3585 45.4842 73.7294 45.9619 74.2217 46.5172C74.7141 47.0755 75.141 47.5005 75.1722 47.4726C75.2065 47.4447 74.8356 46.967 74.3433 46.4117C73.8509 45.8533 73.424 45.4283 73.3928 45.4563Z" fill="#F49A6C"/>
<path d="M71.2908 35.4553C71.3064 35.4522 71.269 35.2909 71.2409 34.9931C71.2129 34.6984 71.1911 34.2641 71.3001 33.7492C71.4092 33.2342 71.671 32.651 72.0948 32.0927C72.503 31.5281 73.1044 31.0194 73.843 30.6967C74.5784 30.3772 75.3793 30.309 76.0368 30.5541C76.7068 30.7588 77.2023 31.1807 77.4641 31.6398C77.7321 32.0927 77.838 32.5145 77.9097 32.803C77.9782 33.0915 78.0032 33.2559 78.0187 33.2528C78.025 33.2528 78.0219 33.2094 78.0187 33.1318C78.0125 33.0543 78.0032 32.9364 77.9751 32.7906C77.9221 32.4959 77.8318 32.0616 77.5669 31.5839C77.4329 31.3451 77.2459 31.1031 76.9935 30.8984C76.7411 30.6936 76.4326 30.5292 76.0898 30.4145C75.4073 30.1508 74.5473 30.2159 73.7838 30.5509C73.0203 30.886 72.3939 31.4195 71.9795 32.0058C71.5557 32.5828 71.2908 33.1908 71.1942 33.7274C71.0945 34.2641 71.135 34.7077 71.1848 35.0024C71.2098 35.1513 71.2347 35.2661 71.2596 35.3405C71.2814 35.4181 71.2939 35.4553 71.3001 35.4553H71.2908Z" fill="#192E35"/>
<path d="M59.8359 51.0461C63.6783 51.7596 67.6359 52.0977 71.5219 51.5828C67.6484 52.2125 63.6533 51.8713 59.8359 51.0461Z" fill="#385A65"/>
<path d="M25.5482 5.81838C25.5139 5.6881 25.4204 5.57953 25.3051 5.51128C25.0527 5.35928 24.7629 5.37479 24.4793 5.36859C23.7781 5.34998 23.0832 5.16385 22.4631 4.84124C22.6812 4.73267 22.8869 4.60238 23.0614 4.43177C23.4229 4.08124 23.6348 3.54149 23.4759 3.06377C23.4447 2.97381 23.3948 2.88075 23.3045 2.85283C23.1611 2.8063 23.0334 2.94589 22.9336 3.05757C22.6002 3.42051 22.2948 3.57251 21.8024 3.51977C21.4971 3.48565 21.2041 3.4143 20.9642 3.2623C20.9548 3.253 20.9455 3.24059 20.9361 3.23128C20.8239 3.1134 20.7118 2.99863 20.6027 2.88696C19.78 2.05871 19.0726 1.48173 18.3403 1.17773C17.2683 0.727936 15.464 0.532507 14.3359 0.811691C13.2078 1.09398 12.1857 1.99047 12.0174 3.13512C11.3911 2.59847 10.4437 2.58916 9.67401 2.89006L9.65531 2.88075C8.79523 3.17545 8.29975 4.06883 8.03798 4.9343C8.0224 4.98083 8.00994 5.03047 7.99747 5.077C7.70143 5.52989 7.30566 5.91765 6.83199 6.18443C6.74786 6.23096 6.65437 6.28989 6.6419 6.38296C6.62944 6.47602 6.71046 6.55667 6.78525 6.61251C6.98781 6.76141 7.22776 6.86067 7.47394 6.9072C7.39292 7.11194 7.29943 7.31357 7.18413 7.50279C7.08441 7.6641 6.96911 7.85953 7.05013 8.03014C7.11246 8.16043 7.28073 8.21936 7.4272 8.19765C7.57366 8.17904 7.70143 8.09838 7.82919 8.02394C7.73259 8.25038 7.63287 8.47683 7.53627 8.70328C7.84477 8.75912 8.16575 8.74051 8.46802 8.65055C8.63942 9.46638 8.76095 10.9709 8.96351 11.523C9.54936 11.5385 9.69271 11.4765 9.98875 11.5789C10.3689 11.7092 10.2162 12.3823 10.718 12.1962C10.9735 12.1 11.3724 11.1477 11.4596 10.8933C12.0424 9.1934 12.2511 7.3694 12.0673 5.58263C12.4257 5.21038 12.8588 4.90638 13.3294 4.69545L13.292 4.72957C14.1988 4.42867 15.224 4.13087 16.0779 4.56206C16.7385 4.89708 17.1218 5.58883 17.6142 6.1441C18.546 7.19259 19.6055 7.76026 21.0109 7.83781C21.1262 8.81185 21.1449 10.4001 21.1823 11.3059L21.9801 9.50051V9.50671C22.0455 9.40124 22.0985 9.29577 22.1483 9.1872L22.167 9.15618C22.2481 8.97936 22.326 8.80875 22.4288 8.63814C22.4288 8.63814 22.435 8.64434 22.4382 8.64745C22.9274 9.08483 23.6597 8.4334 23.2795 7.89985C23.2048 7.79438 23.1113 7.70132 23.0084 7.62067C23.2328 7.83471 23.5662 7.94018 23.8623 7.85022C24.1583 7.76336 24.392 7.46867 24.3702 7.16157C24.3546 6.95063 24.2082 6.7614 24.0181 6.67765C24.417 6.71177 24.8252 6.63112 25.1742 6.43879C25.4048 6.31161 25.6292 6.10067 25.5544 5.81528L25.5482 5.81838Z" fill="#671413"/>
<path d="M13.0318 3.51666C13.0318 3.51666 12.8947 3.60042 12.7046 3.80825C12.5145 4.01609 12.2995 4.37593 12.1967 4.87225C12.1437 5.11732 12.1094 5.3934 12.1032 5.69119C12.0969 5.98899 12.1188 6.3054 12.1375 6.64042C12.1561 6.97544 12.1748 7.32907 12.1499 7.69511C12.1375 7.87813 12.1125 8.06425 12.072 8.25038C12.0284 8.4334 11.9785 8.63193 11.8383 8.78703C11.7261 8.91421 11.5391 8.97005 11.3802 8.93593C11.2182 8.90491 11.0748 8.81805 10.972 8.70017C10.7663 8.45511 10.7196 8.14801 10.6697 7.87813L10.7383 7.88744C10.6261 8.1294 10.5077 8.36825 10.3363 8.55748C10.168 8.7498 9.93738 8.87389 9.70366 8.8925C9.58836 8.9018 9.46994 8.88319 9.37022 8.83046C9.26739 8.78083 9.19572 8.69397 9.14586 8.60711C9.09911 8.51715 9.07418 8.41789 9.08041 8.32172C9.08665 8.22556 9.12404 8.1356 9.18637 8.07356L9.22065 8.10458C8.96823 8.38376 8.70335 8.53266 8.51949 8.61642C8.426 8.65674 8.35433 8.68156 8.30447 8.69707C8.25461 8.71258 8.22656 8.71568 8.22656 8.71568C8.22656 8.71568 8.25149 8.70327 8.30135 8.68466C8.35121 8.66605 8.42289 8.63813 8.51014 8.5947C8.68777 8.50785 8.9433 8.35274 9.18637 8.07666L9.22065 8.10768C9.11158 8.22246 9.10223 8.42409 9.1926 8.5854C9.23934 8.66605 9.30478 8.7405 9.39515 8.78393C9.48241 8.82736 9.59148 8.84597 9.69743 8.83666C9.91245 8.81805 10.1275 8.70017 10.2864 8.52025C10.4484 8.34034 10.5606 8.10768 10.6728 7.86572L10.7196 7.76336L10.7383 7.87503C10.7881 8.14491 10.838 8.4396 11.025 8.65985C11.1184 8.76531 11.2493 8.84597 11.3896 8.87078C11.5298 8.8987 11.6825 8.85527 11.7791 8.7467C11.9037 8.61021 11.9536 8.42409 11.9941 8.24417C12.0346 8.06115 12.0595 7.88123 12.072 7.69821C12.0969 7.33838 12.0814 6.98474 12.0627 6.64972C12.0471 6.3147 12.0284 5.99519 12.0346 5.69429C12.0408 5.3934 12.0782 5.11421 12.1375 4.86605C12.2496 4.36662 12.4771 3.99748 12.6766 3.79585C12.8791 3.59111 13.0256 3.52287 13.0256 3.52287L13.0318 3.51666Z" fill="#3B1212"/>
<path d="M23.0051 6.76451C23.0051 6.76451 22.9958 6.77382 22.9802 6.78622C22.9584 6.80173 22.9303 6.82035 22.8992 6.84516C22.8649 6.86998 22.8182 6.901 22.7621 6.93202C22.706 6.96304 22.6405 7.00027 22.5626 7.03439C22.2603 7.17398 21.7773 7.30737 21.1759 7.26704C20.5807 7.22671 19.8671 7.00957 19.2314 6.52876C18.5894 6.06035 18.0316 5.37169 17.5766 4.58688C17.346 4.19292 17.159 3.79276 16.9503 3.42051C16.7446 3.04827 16.5171 2.70394 16.2398 2.43096C15.9655 2.15798 15.6446 1.95325 15.3142 1.85708C15.1491 1.80745 14.9839 1.79194 14.8219 1.79504C14.6629 1.80125 14.5102 1.83227 14.37 1.87569C14.0895 1.96565 13.8621 2.11765 13.6907 2.27276C13.5162 2.43096 13.4009 2.59537 13.3198 2.74116C13.1703 3.03586 13.1578 3.22508 13.1484 3.22198C13.1484 3.22198 13.1484 3.20957 13.1484 3.18786C13.1516 3.15994 13.1578 3.12892 13.164 3.08859C13.1796 3.00173 13.2201 2.87765 13.2918 2.72565C13.3697 2.57676 13.485 2.40614 13.6595 2.24173C13.834 2.08043 14.0646 1.92222 14.3513 1.82606C14.4947 1.77953 14.6505 1.74541 14.8156 1.7361C14.9808 1.733 15.1553 1.74541 15.3267 1.79504C15.6695 1.8912 16.0029 2.09904 16.2834 2.37822C16.5701 2.65741 16.8038 3.00484 17.0095 3.38018C17.2183 3.75553 17.4052 4.15569 17.6358 4.54345C18.0877 5.32206 18.6393 6.00451 19.2687 6.46982C19.892 6.94753 20.5869 7.16467 21.1759 7.2112C21.768 7.26084 22.2448 7.13365 22.547 7.00647C22.8524 6.87618 22.9958 6.75831 23.002 6.76761L23.0051 6.76451Z" fill="#3B1212"/>
<path d="M23.3169 5.35309C23.3169 5.35309 23.2764 5.38411 23.1985 5.43374C23.1206 5.48337 23.0022 5.54231 22.8526 5.60435C22.703 5.6695 22.516 5.72844 22.3073 5.77497C22.0953 5.8215 21.8616 5.85252 21.6092 5.85872C21.3599 5.86182 21.1231 5.84011 20.9081 5.80288C20.6962 5.76256 20.5092 5.71293 20.3565 5.65399C20.2038 5.59815 20.0823 5.54231 20.0043 5.49888C19.9233 5.45546 19.8828 5.43064 19.8828 5.42444C19.889 5.41203 20.0667 5.50509 20.3721 5.60435C20.5248 5.65399 20.7117 5.70052 20.9205 5.73464C21.1293 5.76566 21.363 5.78737 21.6061 5.78427C21.8492 5.77807 22.0829 5.74705 22.2886 5.70672C22.4942 5.66329 22.6781 5.61056 22.8308 5.55472C23.1331 5.44305 23.3045 5.34378 23.3138 5.35619L23.3169 5.35309Z" fill="#3B1212"/>
<path d="M7.38277 109.836L15.1734 109.377C15.1734 109.377 15.3105 108.877 15.2856 108.604C15.2669 108.415 15.27 108.223 15.2949 108.034C15.3136 107.888 15.3136 107.755 15.2606 107.733C15.136 107.68 7.20515 108.018 7.20515 108.018C7.20515 108.018 6.89975 108.651 7.37966 109.836H7.38277Z" fill="#6D80A3"/>
<path d="M18.1097 105.692L17.7606 106.995C17.7482 107.041 17.7014 107.069 17.6547 107.06L15.4297 106.628L15.5793 105.09L17.9912 105.509C18.0785 105.524 18.1315 105.608 18.1097 105.695V105.692Z" fill="#6D80A3"/>
<path d="M65.7191 17.7271C65.8718 17.5131 65.8219 17.2153 65.6069 17.0633C65.3919 16.9113 65.0927 16.9609 64.94 17.1749C64.7873 17.389 64.8372 17.6868 65.0522 17.8388C65.2672 17.9908 65.5664 17.9411 65.7191 17.7271Z" fill="#263239"/>
<path d="M64.817 17.4169C64.8793 17.4603 65.1442 17.1501 65.5867 17.054C66.0292 16.9485 66.4032 17.1129 66.4375 17.0477C66.4562 17.0167 66.3845 16.9268 66.2193 16.8523C66.0573 16.7779 65.7986 16.7251 65.5244 16.7903C65.2502 16.8523 65.0383 17.0105 64.9261 17.1501C64.8108 17.2897 64.7859 17.4014 64.817 17.42V17.4169Z" fill="#263239"/>
<path d="M69.8653 16.446C69.6752 16.629 69.669 16.9299 69.8528 17.1191C70.0367 17.3083 70.339 17.3145 70.5291 17.1315C70.7192 16.9485 70.7254 16.6476 70.5415 16.4584C70.3577 16.2692 70.0554 16.263 69.8653 16.446Z" fill="#263239"/>
<path d="M69.7155 16.7686C69.7778 16.812 70.0427 16.5018 70.4852 16.4056C70.9277 16.3002 71.3016 16.4646 71.3359 16.3994C71.3546 16.3684 71.2829 16.2785 71.1178 16.204C70.9557 16.1296 70.6971 16.0768 70.4228 16.142C70.1486 16.204 69.9367 16.3622 69.8245 16.5018C69.7092 16.6414 69.6843 16.7531 69.7155 16.7717V16.7686Z" fill="#263239"/>
<path d="M19.3969 11.5882C19.2567 11.3493 19.3377 11.0453 19.5777 10.9057C19.8176 10.7661 20.123 10.8468 20.2632 11.0856C20.4035 11.3245 20.3224 11.6285 20.0825 11.7681C19.8425 11.9077 19.5371 11.827 19.3969 11.5882Z" fill="#263239"/>
<path d="M20.3675 11.2811C20.2989 11.3214 20.0528 10.9709 19.6009 10.8282C19.149 10.6762 18.7439 10.8127 18.7128 10.7382C18.6972 10.7041 18.7813 10.6172 18.959 10.5552C19.1335 10.4901 19.4108 10.4621 19.6913 10.5552C19.9717 10.6483 20.1774 10.8344 20.2802 10.9895C20.3862 11.1477 20.4018 11.2656 20.3675 11.2811Z" fill="#263239"/>
<path d="M15.3366 10.4807C15.5204 10.6855 15.5049 11.0019 15.2961 11.1849C15.0904 11.3679 14.7725 11.3524 14.5887 11.1446C14.4048 10.9398 14.4204 10.6234 14.6292 10.4404C14.8349 10.2574 15.1527 10.2729 15.3366 10.4807Z" fill="#263239"/>
<path d="M15.4894 10.7848C15.4208 10.8251 15.1684 10.4808 14.7134 10.3443C14.2585 10.1985 13.8565 10.3443 13.8222 10.2698C13.8066 10.2357 13.8876 10.1488 14.0653 10.0837C14.2398 10.0186 14.514 9.98443 14.7976 10.0713C15.0812 10.1581 15.2899 10.3412 15.3928 10.4932C15.5019 10.6483 15.5174 10.7661 15.4863 10.7848H15.4894Z" fill="#263239"/>
<path d="M16.8516 14.6189C16.8516 14.5817 17.1539 14.5661 17.6369 14.5693C17.7615 14.5724 17.8613 14.5599 17.8799 14.4948C17.9142 14.4235 17.8831 14.287 17.8426 14.1319C17.7678 13.803 17.6899 13.4711 17.6088 13.1237C17.2941 11.6906 17.0947 10.518 17.1694 10.5025C17.2411 10.487 17.559 11.6347 17.8737 13.0679C17.9454 13.4184 18.0171 13.7503 18.0856 14.0791C18.1106 14.228 18.1729 14.4048 18.0794 14.5972C18.0295 14.6933 17.9236 14.7523 17.8394 14.7616C17.7553 14.774 17.6836 14.7616 17.6244 14.7585C17.1445 14.7057 16.8485 14.6561 16.8516 14.6189Z" fill="#263239"/>
<path d="M15.2481 14.9167C16.1082 15.4068 17.4607 15.9186 17.4607 15.9186C17.4607 15.9186 16.7813 16.7128 15.8496 16.2102C14.8804 15.6891 15.2481 14.9136 15.2481 14.9136V14.9167Z" fill="white"/>
<path d="M14.1393 8.81804C14.2048 8.93592 14.5413 8.87698 14.9278 8.92971C15.3142 8.97004 15.6258 9.10963 15.7193 9.01037C15.7598 8.96073 15.7255 8.84906 15.5977 8.72808C15.4731 8.6071 15.2518 8.48922 14.987 8.4582C14.7221 8.42718 14.479 8.48612 14.3263 8.57298C14.1736 8.65983 14.1113 8.7622 14.1393 8.81804Z" fill="#192E35"/>
<path d="M19.0925 9.41365C19.1579 9.53153 19.4945 9.47259 19.8809 9.52532C20.2673 9.56565 20.5789 9.70524 20.6724 9.60598C20.7129 9.55634 20.6786 9.44467 20.5509 9.32369C20.4262 9.20271 20.205 9.08483 19.9401 9.05381C19.6752 9.02279 19.4321 9.08173 19.2794 9.16859C19.1267 9.25545 19.0644 9.35781 19.0925 9.41365Z" fill="#192E35"/>
<path d="M4.27761 57.7993L4.09375 58.4941L27.5217 58.218L25.7174 56.27L4.27761 57.7993Z" fill="#F4F4F4"/>
<g clip-path="url(#clip1_2052_3026)">
<path d="M63.4854 12.3051C62.4089 10.2071 64.8632 8.45155 66.0315 7.87606C67.2036 7.30422 68.6732 7.26416 69.7975 7.91613C70.3118 8.2148 70.7601 8.64823 71.3406 8.79028C72.6779 9.12173 74.1182 7.78136 75.3637 8.36413C76.3851 8.84491 76.5578 10.3419 77.5865 10.8118C78.0825 11.0376 78.6594 10.9684 79.1994 11.023C79.7432 11.0813 80.3531 11.369 80.4229 11.9008C80.5001 12.4909 79.8645 13.1137 80.1841 13.62C80.5772 14.2428 81.7456 13.6637 82.2489 14.2027C82.7192 14.7054 82.1644 15.7289 82.7413 16.1149C83.1601 16.399 83.8766 16.0567 84.1852 16.4537C84.5159 16.8798 83.8986 17.4116 83.8361 17.9434C83.77 18.4897 84.2991 18.9086 84.7473 19.24C85.1956 19.5715 85.6658 20.0996 85.4527 20.6059C85.2029 21.1923 84.2219 21.2433 84.0529 21.8589C83.8802 22.489 84.7473 23.1883 84.3579 23.7201C84.097 24.0734 83.5018 23.9714 83.1711 24.2628C82.62 24.7472 83.2887 25.6796 83.0168 26.3535C82.6421 27.2859 81.0108 26.8779 80.3825 27.6683C80.0335 28.109 80.0849 28.8339 79.5889 29.107C79.0819 29.3911 78.4536 28.9468 77.8731 29.0123C76.9289 29.1216 76.3484 30.5239 75.4372 30.2507C74.9706 30.1123 74.6289 29.5368 74.1549 29.6497C73.7471 29.7481 73.5854 30.3199 73.1703 30.3818C72.6081 30.4693 72.4538 29.6643 72.1158 29.2163C71.6676 28.619 70.6866 28.5862 70.2714 27.9634C69.9003 27.4061 70.1685 26.6594 70.4955 26.0766C70.8225 25.4902 71.2157 24.8528 71.054 24.2045C70.874 23.4651 70.0032 22.8277 70.3082 22.1284C70.6425 21.3635 72.0974 21.4436 72.2003 20.6205C72.2958 19.841 70.9621 19.4003 71.1128 18.6281C71.2157 18.1109 71.9395 17.907 72.0754 17.397C72.2334 16.8033 71.4986 16.3007 71.5096 15.6852C71.5169 15.2918 71.8219 14.9785 72.0387 14.6507C72.2554 14.3229 72.373 13.8312 72.068 13.5763C71.5831 13.172 70.8482 13.9114 70.2383 13.7329C69.8122 13.609 69.6542 13.11 69.5035 12.7021C69.5035 12.7021 68.3756 11.0267 66.3512 11.267C64.3304 11.5074 63.4744 12.2942 63.4744 12.2942L63.4854 12.3051Z" fill="#EC7849"/>
<path d="M63.46 11.5475C63.0558 11.9482 63.2432 12.7422 63.7833 12.9279C64.2866 13.0991 64.8194 12.7895 65.2639 12.5018C65.7085 12.2141 66.2596 11.919 66.7519 12.1266C67.6558 12.5018 67.3986 14.0971 68.3134 14.4504C68.6882 14.5925 69.1033 14.4504 69.4965 14.3667C69.8896 14.2829 70.3783 14.2975 70.5987 14.6253C70.8926 15.066 70.4958 15.7762 70.8926 16.1368C71.058 16.2861 71.3151 16.3153 71.4621 16.4792C71.7009 16.7451 71.5135 17.1712 71.249 17.4153C70.9845 17.6593 70.6391 17.8487 70.5105 18.1801C70.3048 18.7083 70.7567 19.2546 71.2196 19.597C71.6826 19.9357 72.2337 20.2781 72.3329 20.8354C72.4945 21.7314 71.3592 22.5946 71.7413 23.4251C71.9581 23.8913 72.6048 24.0515 73.0971 23.8731C73.5894 23.6946 73.9421 23.2648 74.1956 22.8168C75.2354 20.9738 74.9451 18.7156 74.5961 16.6358C74.3646 15.2736 74.1001 13.864 73.2881 12.7385C72.4431 11.5694 71.0984 10.8373 69.7169 10.3638C68.6625 10.0032 67.5345 9.77007 66.4249 9.90484C65.3154 10.0396 64.2205 10.5823 63.6216 11.5074" fill="#EC7849"/>
<path d="M57.9485 26.765C57.9485 26.765 57.9008 26.8269 57.7722 26.8342C57.6509 26.8452 57.4525 26.7577 57.3313 26.5538C57.2063 26.3462 57.2762 26.0402 57.3129 25.6942C57.3313 25.5194 57.3019 25.3154 57.2357 25.1296C57.1733 24.9402 57.0851 24.7472 57.0447 24.5396C56.9969 24.3356 57.0447 24.1134 57.2174 23.9641C57.3864 23.8184 57.6325 23.7419 57.8824 23.6691C58.1285 23.5889 58.4188 23.538 58.6392 23.3085C58.7421 23.1883 58.7899 23.0207 58.7605 22.8641C58.7311 22.7039 58.6356 22.5727 58.5327 22.4598C58.3343 22.2376 58.0698 22.0628 57.9706 21.8042C57.8603 21.5456 58.0624 21.2724 58.3306 21.1413C58.5952 20.992 58.9295 20.9665 59.2491 20.8244C59.4071 20.7552 59.5651 20.6496 59.668 20.4966C59.7745 20.3473 59.8223 20.1615 59.8186 19.9831C59.8186 19.6261 59.679 19.2983 59.532 19.0069C59.3851 18.7155 59.2418 18.4278 59.2051 18.1328C59.161 17.8341 59.2822 17.5536 59.488 17.346C59.6937 17.1348 59.9472 16.9672 60.1677 16.7633C60.3918 16.5629 60.5645 16.2971 60.6306 16.0202C60.7041 15.7434 60.7078 15.4703 60.7041 15.2116C60.6931 14.6944 60.6563 14.2137 60.807 13.8094C60.9466 13.4014 61.1964 13.0845 61.4536 12.8587C61.7108 12.6256 61.9863 12.4872 62.2141 12.4034C62.6807 12.2359 62.971 12.2723 62.9673 12.2505C62.9673 12.2468 62.8975 12.2432 62.7652 12.2395C62.633 12.2505 62.4346 12.265 62.1958 12.3452C61.9569 12.4253 61.6704 12.5601 61.3985 12.7932C61.1229 13.0226 60.8584 13.3504 60.7041 13.7729C60.5387 14.2027 60.5718 14.7017 60.5755 15.2116C60.5755 15.4666 60.5681 15.7325 60.4983 15.9875C60.4322 16.2461 60.2816 16.4755 60.0685 16.6649C59.859 16.858 59.6019 17.0219 59.3777 17.2477C59.1499 17.4699 58.9956 17.8123 59.0507 18.151C59.1352 18.8212 59.668 19.3347 59.6606 19.9831C59.6606 20.1397 59.6202 20.289 59.5357 20.4129C59.4512 20.5367 59.3226 20.6241 59.1793 20.6897C58.8928 20.8208 58.5511 20.8463 58.2498 21.0138C58.1028 21.094 57.9632 21.1996 57.8714 21.3526C57.7758 21.5019 57.7648 21.6949 57.8236 21.8552C57.9559 22.1757 58.2351 22.3433 58.4188 22.5545C58.5143 22.6565 58.5915 22.7694 58.6135 22.8896C58.6356 23.0098 58.6025 23.1373 58.5253 23.2247C58.36 23.4068 58.0808 23.4724 57.8346 23.5525C57.5848 23.629 57.3276 23.7091 57.1292 23.884C57.0337 23.9714 56.9602 24.0879 56.9271 24.2081C56.8941 24.332 56.9051 24.4558 56.9271 24.5651C56.9749 24.7909 57.0704 24.9803 57.1329 25.1624C57.2027 25.3445 57.2284 25.523 57.2174 25.6942C57.1953 26.0293 57.1218 26.3571 57.2725 26.5902C57.4121 26.8087 57.6289 26.8925 57.7685 26.8707C57.9118 26.8488 57.9448 26.765 57.9412 26.7687L57.9485 26.765Z" fill="#8F3922"/>
<path d="M85.8718 17.5522C85.8718 17.5522 85.846 17.6214 85.7836 17.7489C85.7138 17.8727 85.5999 18.0548 85.4015 18.2479C85.2067 18.4409 84.9238 18.6485 84.5528 18.7979C84.1817 18.9436 83.7151 19.0456 83.2007 18.9727C82.9435 18.9399 82.6753 18.8671 82.4255 18.7287C82.3042 18.6704 82.1462 18.5866 82.0948 18.4118C82.0434 18.2406 82.1168 18.0731 82.2013 17.9419C82.3814 17.6724 82.6312 17.4866 82.8333 17.2353C83.039 16.9913 83.2374 16.7218 83.3807 16.4195C83.524 16.1171 83.6012 15.7711 83.5314 15.4287C83.4616 15.09 83.2338 14.7877 82.9251 14.5801C82.6165 14.3725 82.2418 14.2596 81.845 14.2231C81.4518 14.1831 81.0403 14.2159 80.6178 14.2486L80.5002 14.2596L80.526 14.143C80.6472 13.5894 80.7721 13.0175 80.7391 12.4348C80.717 11.8557 80.4745 11.2692 79.9969 10.9014C79.7618 10.7229 79.4752 10.61 79.1776 10.6209C78.88 10.6282 78.5677 10.763 78.2039 10.7265C78.0239 10.7083 77.8402 10.6136 77.7226 10.4716C77.6051 10.3295 77.5389 10.1656 77.4838 10.009C77.3846 9.69577 77.256 9.41167 77.0613 9.15307C76.6865 8.64679 76.1318 8.28256 75.5292 8.15508C74.9267 8.02395 74.2874 8.11501 73.7583 8.38454C73.4901 8.51566 73.266 8.71599 72.9941 8.87989C72.7259 9.04744 72.3879 9.13121 72.0719 9.08022C71.4399 8.98188 70.9586 8.59579 70.481 8.31169C69.5331 7.71436 68.4198 7.56138 67.4389 7.68522C66.4505 7.80541 65.5724 8.19878 64.9074 8.71599C64.2351 9.2332 63.7648 9.85603 63.4304 10.4388C63.1034 11.0252 62.9087 11.5788 62.7875 12.0341C62.6699 12.4931 62.6221 12.8609 62.5927 13.1086C62.5817 13.2252 62.5744 13.3162 62.567 13.3927C62.5597 13.4583 62.556 13.491 62.5523 13.491C62.5523 13.491 62.5009 12.9556 62.714 12.0196C62.8242 11.5533 63.0116 10.9924 63.3349 10.3878C63.6656 9.79047 64.1359 9.14942 64.8229 8.61401C65.5026 8.07494 66.3991 7.66336 67.4168 7.53224C68.4272 7.39748 69.5845 7.55045 70.5729 8.166C71.0578 8.45374 71.5355 8.82162 72.0939 8.90175C72.3732 8.94181 72.6487 8.87261 72.8949 8.72327C73.1447 8.57394 73.3762 8.36269 73.6664 8.22064C74.2359 7.92925 74.9156 7.83091 75.5623 7.96932C76.2126 8.10773 76.8041 8.49745 77.2083 9.04015C77.414 9.31333 77.561 9.63749 77.6565 9.94709C77.752 10.253 77.9247 10.5189 78.2186 10.5408C78.5089 10.5736 78.8212 10.4461 79.1629 10.4352C79.5082 10.4206 79.8426 10.5554 80.1034 10.7557C80.6325 11.16 80.8934 11.8119 80.9117 12.4239C80.9411 13.0394 80.8089 13.6258 80.6876 14.1794L80.5958 14.0738C81.0183 14.0447 81.4371 14.0155 81.8523 14.0556C82.2638 14.0957 82.6716 14.2159 83.006 14.4453C83.3403 14.6675 83.5975 15.0099 83.6747 15.3923C83.7518 15.7748 83.66 16.1572 83.5056 16.4741C83.3513 16.7946 83.1419 17.0714 82.9288 17.3191C82.7231 17.5741 82.4585 17.7744 82.3005 18.0075C82.2234 18.1241 82.172 18.2588 82.205 18.3717C82.2381 18.4883 82.352 18.5611 82.4769 18.6194C82.712 18.7542 82.9656 18.827 83.2117 18.8634C83.704 18.9399 84.156 18.8489 84.5197 18.7141C84.8834 18.5793 85.1627 18.3827 85.3611 18.2005C85.7615 17.829 85.8497 17.5304 85.8718 17.5449V17.5522Z" fill="#8F3922"/>
<path d="M53.3574 17.9142C53.3574 17.9142 53.2435 17.8086 52.979 17.7758C52.8504 17.7613 52.685 17.7904 52.5307 17.896C52.3764 17.998 52.2368 18.1801 52.1707 18.406C52.1045 18.6354 52.1266 18.9122 52.2442 19.1745C52.3617 19.4331 52.5858 19.6844 52.8981 19.7827C53.2068 19.8847 53.5852 19.7937 53.8608 19.5496C54.1363 19.3165 54.3274 18.9268 54.2502 18.5444L54.2171 18.3768L54.3715 18.4497C54.6727 18.5954 55.0512 18.6136 55.3892 18.4861C55.7272 18.3659 56.0064 18.0781 56.1277 17.7139C56.1865 17.5354 56.2122 17.3388 56.1865 17.1494C56.1754 16.9636 56.0505 16.7742 56.0799 16.5083C56.1203 16.2351 56.3812 16.0749 56.6053 16.0312C56.8404 15.9729 57.0829 16.0166 57.2923 16.053C57.5679 16.1004 57.8398 16.1186 58.0419 15.9729C58.2439 15.8345 58.3542 15.5832 58.4019 15.3355C58.5048 14.8292 58.3027 14.312 58.3211 13.7802C58.3248 13.518 58.3872 13.2375 58.5452 13.0226C58.6995 12.8041 58.9126 12.6475 59.1441 12.5491C59.6034 12.3561 60.1508 12.3925 60.5182 12.6839L60.3933 12.7495C60.3602 12.0756 60.4594 11.4127 60.8158 10.9611C61.1538 10.5058 61.6866 10.3055 62.0907 10.4038C62.4912 10.4949 62.719 10.7608 62.8035 10.9538C62.8917 11.1505 62.8586 11.267 62.8586 11.267C62.8439 11.267 62.8586 11.1541 62.7594 10.9757C62.6712 10.8045 62.4434 10.5641 62.0723 10.4949C61.7086 10.4184 61.2236 10.6114 60.915 11.0412C60.5954 11.4637 60.5072 12.0902 60.5476 12.7458L60.5586 12.917L60.4227 12.8114C60.1067 12.5673 59.6254 12.5346 59.2139 12.7094C59.0081 12.7968 58.8208 12.9425 58.6922 13.1283C58.5562 13.314 58.5085 13.5471 58.5048 13.7912C58.4864 14.2792 58.6995 14.8037 58.5893 15.3792C58.5379 15.656 58.4129 15.951 58.1521 16.1368C57.8839 16.3298 57.5385 16.2971 57.263 16.2497C57.0425 16.2133 56.8404 16.1769 56.6494 16.2279C56.4583 16.2679 56.293 16.3845 56.2673 16.5484C56.2379 16.7123 56.3518 16.909 56.3738 17.1348C56.4032 17.357 56.3738 17.5755 56.304 17.7795C56.1681 18.1874 55.8411 18.5225 55.4516 18.6573C55.0659 18.7993 54.6397 18.7738 54.298 18.6063L54.4192 18.5152C54.5699 19.4659 53.5815 20.1834 52.8577 19.9211C52.4977 19.7973 52.2625 19.5132 52.1376 19.2291C52.0164 18.9414 52.0017 18.6354 52.0788 18.3841C52.1597 18.1328 52.3176 17.947 52.494 17.8378C52.6667 17.7285 52.8541 17.7066 52.9937 17.7321C53.1333 17.754 53.2288 17.8086 53.2876 17.8487C53.3464 17.8924 53.3684 17.9215 53.3648 17.9215L53.3574 17.9142Z" fill="#8F3922"/>
<path d="M83.5027 15.2408C83.5027 15.2408 83.4917 15.1752 83.4366 15.0769C83.3815 14.9785 83.2418 14.8547 83.0214 14.8146C82.8083 14.7746 82.5033 14.8037 82.2756 15.0295C82.0367 15.2444 81.8751 15.5868 81.6914 15.962C81.504 16.3408 81.2321 16.7378 80.839 17.0692C80.4532 17.4007 79.9499 17.6811 79.362 17.7722C78.7815 17.8742 78.1091 17.7321 77.5874 17.3315C77.3266 17.1348 77.0951 16.8798 76.9298 16.5775C76.7681 16.2752 76.6799 15.9183 76.7056 15.5577L76.8306 15.6487C76.2574 15.8782 75.5703 15.8709 74.9641 15.6087C74.3505 15.3573 73.8582 14.8001 73.6635 14.1445C73.5239 13.6855 73.5202 13.1938 73.6561 12.764L73.7884 12.8769C73.0169 13.2412 72.1277 13.365 71.3451 13.121C70.5699 12.8769 69.9453 12.2614 69.769 11.5329C69.7212 11.3508 69.7175 11.1723 69.6661 11.0267C69.6183 10.881 69.5118 10.768 69.3722 10.7025C69.0893 10.5677 68.7623 10.6005 68.483 10.7207C68.2001 10.8373 67.9466 11.0084 67.6747 11.1359C67.4065 11.2707 67.131 11.3545 66.8664 11.42C65.7936 11.6604 64.8971 11.42 64.3607 11.1833C63.8096 10.9392 63.5781 10.6952 63.5781 10.6952C63.5891 10.6733 63.839 10.8992 64.3864 11.1177C64.9228 11.3326 65.8009 11.5439 66.837 11.2962C67.0906 11.2306 67.3551 11.1468 67.6123 11.0121C67.8695 10.8882 68.123 10.7098 68.4242 10.5823C68.7218 10.4512 69.104 10.4002 69.442 10.5604C69.611 10.6369 69.7579 10.7935 69.8204 10.9757C69.8829 11.1578 69.8865 11.3362 69.9306 11.4965C70.0923 12.1594 70.6765 12.7312 71.3966 12.9534C72.1241 13.1793 72.9654 13.0627 73.7002 12.713L73.895 12.622L73.8325 12.8259C73.7113 13.2157 73.7113 13.671 73.8435 14.0971C74.0236 14.7054 74.4718 15.2117 75.0339 15.4448C75.5924 15.6888 76.2317 15.6961 76.7571 15.4885L76.893 15.4338L76.882 15.5795C76.8563 15.9001 76.9334 16.2206 77.0804 16.501C77.231 16.7778 77.4441 17.0146 77.6866 17.2004C78.1716 17.5792 78.7852 17.7139 79.3363 17.6229C79.8874 17.5427 80.3724 17.2805 80.7471 16.9672C81.1256 16.654 81.3938 16.2788 81.5848 15.911C81.7759 15.5431 81.9486 15.1898 82.2094 14.964C82.4666 14.7236 82.8046 14.7054 83.0287 14.7564C83.2639 14.8074 83.4108 14.9494 83.4586 15.0623C83.5064 15.1752 83.4953 15.2408 83.4953 15.2408H83.5027Z" fill="#8F3922"/>
</g>
</g>
<defs>
<clipPath id="clip0_2052_3026">
<rect width="89" height="114" fill="white" transform="translate(0.0234375 0.681396)"/>
</clipPath>
<clipPath id="clip1_2052_3026">
<rect width="34" height="29" fill="white" transform="translate(52.0234 6.6814)"/>
</clipPath>
</defs>
</svg>
