<svg width="45" height="136" viewBox="0 0 45 136" fill="none" xmlns="http://www.w3.org/2000/svg">
<g clip-path="url(#clip0_2052_2903)">
<path d="M43.5789 45.9022C43.5152 45.5117 43.236 45.2003 42.8832 45.0273C37.3863 42.3286 32.5948 35.3594 31.3798 29.0772C31.321 28.7164 31.2622 28.3556 31.2034 27.9799C30.3265 22.6517 29.185 17.3482 27.7446 12.1485C27.0244 9.55356 26.4071 6.35069 24.4915 4.3736C21.6108 1.3981 16.9663 0.0586266 12.9587 0.953255C9.86729 1.64523 7.06493 3.74588 5.63436 6.60771C3.88533 10.1121 4.24788 14.3233 4.18419 18.1193C4.12539 21.6434 4.05191 25.1626 3.97842 28.6868C3.96862 29.1959 3.55708 36.4517 3.80694 36.511L5.71275 36.9757C8.68658 43.07 14.1639 47.5827 20.724 49.1199C22.6298 49.5647 24.2073 49.6389 24.8491 48.9469C28.1022 51.4973 31.9824 53.2322 36.0537 53.9094C37.7096 54.1861 39.4195 54.2899 41.0558 53.9094C42.1189 53.6622 43.2066 53.1531 43.7308 52.1893C44.1815 51.3589 44.1178 50.2715 43.5691 49.5005C43.0204 48.7343 42.016 48.329 41.0901 48.502C41.3008 47.2318 43.8092 47.2614 43.5838 45.8923L43.5789 45.9022Z" fill="#4A2525"/>
<path d="M14.0128 15.0103C14.0177 15.376 14.3263 15.6726 14.7036 15.6726C15.0808 15.6726 15.3797 15.381 15.3748 15.0152C15.3699 14.6495 15.0612 14.3529 14.684 14.3529C14.3067 14.3529 14.003 14.6445 14.0079 15.0103H14.0128Z" fill="#4A2525"/>
<path d="M32.7723 33.9705C32.7723 33.9705 33.0222 33.6839 33.2818 33.071C33.5366 32.463 33.7228 31.4794 33.5072 30.3031C33.3063 29.1217 32.6841 27.8268 32.0276 26.3736C31.3809 24.9155 30.7244 23.2894 30.0973 21.5545C28.8431 18.0896 27.9172 14.8868 27.2656 12.5637C26.9422 11.4022 26.6875 10.4581 26.516 9.80567C26.4376 9.49922 26.3788 9.25209 26.3249 9.05438C26.2857 8.88139 26.2661 8.78748 26.2759 8.78748C26.2857 8.78748 26.32 8.8715 26.3739 9.03955C26.4376 9.23726 26.516 9.47945 26.6091 9.78096C26.8148 10.4631 27.0941 11.3873 27.4371 12.5143C28.1327 14.8225 29.0881 18.0155 30.3374 21.4655C30.9645 23.1905 31.6112 24.8167 32.2432 26.2748C32.8801 27.723 33.5023 29.0476 33.6836 30.2685C33.8844 31.4844 33.664 32.4976 33.37 33.1056C33.2279 33.417 33.0712 33.6344 32.9585 33.7728C32.8409 33.9112 32.7772 33.9755 32.7674 33.9656L32.7723 33.9705Z" fill="#4A2525"/>
<path d="M6.25939 29.6011C6.25939 29.6011 6.18591 29.5863 6.05853 29.5319C5.93115 29.4776 5.74987 29.3837 5.52941 29.2354C5.09338 28.9487 4.51037 28.4099 4.03514 27.5845C3.55992 26.764 3.20717 25.6519 3.13858 24.3965C3.0553 23.141 3.22677 21.767 3.45213 20.3533C3.89796 17.5212 4.3144 14.9658 4.62795 13.1123C4.78473 12.2226 4.917 11.4861 5.01499 10.9227C5.11297 10.4086 5.17177 10.122 5.19136 10.1269C5.21096 10.1318 5.18156 10.4185 5.11297 10.9375C5.03459 11.501 4.9317 12.2424 4.80922 13.137C4.53976 14.9955 4.15272 17.5607 3.70689 20.3879C3.48153 21.7966 3.31006 23.1509 3.37865 24.3767C3.43254 25.6025 3.75589 26.68 4.20172 27.4906C4.64265 28.3061 5.18156 28.8449 5.5931 29.1513C6.00463 29.4627 6.27409 29.5764 6.26429 29.6011H6.25939Z" fill="#4A2525"/>
<path d="M11.2002 122.539C11.2002 122.539 11.7195 126.434 11.2002 128.198L15.0853 127.714C15.0853 127.714 14.6444 124.051 15.3352 122.761L11.1953 122.539H11.2002Z" fill="#FAC7A7"/>
<path d="M27.599 78.7069C24.9241 88.2859 17.9868 120.557 17.149 124.462C17.1049 124.674 16.8942 124.812 16.6787 124.763L9.82953 123.275C9.68255 123.246 9.58457 123.102 9.60417 122.954L12.7838 98.4036C12.7838 98.4036 15.9487 67.8182 16.4484 67.7786C16.8746 67.744 18.5943 58.1453 19.0989 55.2884L16.1789 55.5998L7.95312 49.9503L8.29117 49.5796C8.29117 49.5796 23.224 49.7427 23.2681 49.7427C24.5811 49.7575 25.2474 51.2947 25.8059 52.2684C26.5457 53.5535 27.163 54.9128 27.6529 56.3165C29.0198 60.2311 29.0737 64.2495 29.01 68.352C28.9561 71.8415 28.5348 75.341 27.5941 78.7069H27.599Z" fill="#323F5C"/>
<path d="M10.6886 127.62C10.669 127.318 10.7865 127.022 11.007 126.814C11.394 126.458 12.1338 125.994 13.3439 126.013C15.2987 126.048 15.6613 127.62 15.6613 127.62C15.6613 127.62 15.6956 129.192 16.1561 130.091C16.4599 130.684 16.9106 131.495 17.18 131.979C17.3711 132.325 17.4936 132.701 17.5377 133.096C17.572 133.418 17.5818 133.798 17.4985 134.134C17.4544 134.327 17.3564 134.505 17.2143 134.638C16.8567 134.979 15.9405 135.573 13.8339 135.667C11.7272 135.76 10.7914 135.172 10.4289 134.816C10.2966 134.688 10.2182 134.52 10.1986 134.337C10.1692 134.021 10.1447 133.709 10.1349 133.393C10.1251 132.997 10.1447 132.676 10.2868 132.301C10.3505 132.137 10.3897 131.959 10.4289 131.786C10.5661 131.183 10.6347 130.571 10.6788 129.958C10.7327 129.177 10.7278 128.396 10.6788 127.615L10.6886 127.62Z" fill="#5B59E9"/>
<path d="M12.0156 127.383C12.0156 127.383 13.1816 126.518 14.4309 127.284L12.0156 127.383Z" fill="#5B59E9"/>
<path d="M12.1406 128.48C12.6599 127.906 13.5663 127.753 14.262 128.065C14.4139 128.134 14.5755 128.233 14.7029 128.346L14.6931 128.361L14.5412 128.287C13.9876 128.015 13.3262 127.99 12.7481 128.193C12.5375 128.267 12.3317 128.366 12.1504 128.495L12.1406 128.485V128.48Z" fill="white"/>
<path d="M12.1455 129.483C12.5375 129.073 13.1401 128.89 13.6986 128.944C14.0121 128.969 14.3208 129.083 14.5804 129.251C14.6833 129.315 14.7764 129.404 14.8695 129.483L14.8597 129.498L14.7029 129.409C14.1346 129.078 13.4291 128.999 12.7971 129.192C12.5669 129.261 12.3464 129.36 12.1504 129.498L12.1406 129.483H12.1455Z" fill="white"/>
<path d="M12.1406 130.842C12.9294 129.903 14.4531 129.839 15.33 130.684L15.3202 130.699C14.2473 130.017 13.1254 130.121 12.1406 130.842Z" fill="white"/>
<path d="M10.5645 133.19C12.4213 133.778 14.5476 134.065 16.3456 133.161C16.6052 133.042 16.8404 132.879 17.0805 132.721L17.0903 132.731C15.7626 133.897 13.8666 134.085 12.1959 133.714C11.6325 133.596 11.0789 133.427 10.5547 133.2V133.185H10.5596L10.5645 133.19Z" fill="white"/>
<path d="M19.544 123.147C19.544 123.147 20.078 124.709 19.9506 127.056C19.8526 128.885 21.9985 128.124 23.2331 127.57C23.5319 127.437 23.6593 127.165 23.6642 126.844C23.6691 126.616 23.6201 126.389 23.576 126.162C23.336 124.822 23.625 123.478 23.7377 122.138L19.5391 123.142L19.544 123.147Z" fill="#FAC7A7"/>
<path d="M19.4825 127.733C19.4335 127.437 19.5167 127.126 19.7176 126.903C20.0655 126.508 20.7563 125.969 21.9615 125.86C23.9114 125.687 24.4356 127.215 24.4356 127.215C24.4356 127.215 24.6315 128.771 25.1852 129.622C25.5477 130.18 26.0768 130.941 26.4002 131.391C26.6255 131.712 26.7872 132.078 26.8705 132.464C26.9391 132.78 26.9832 133.156 26.9391 133.502C26.9146 133.699 26.8362 133.882 26.7088 134.035C26.3904 134.411 25.5379 135.098 23.4557 135.414C21.3736 135.731 20.379 135.241 19.9822 134.925C19.8401 134.811 19.7421 134.653 19.7078 134.47C19.6441 134.159 19.5902 133.853 19.551 133.536C19.4972 133.141 19.4874 132.82 19.5902 132.434C19.6343 132.261 19.6588 132.083 19.6784 131.91C19.7519 131.297 19.7568 130.679 19.7372 130.062C19.7078 129.281 19.6245 128.5 19.4972 127.729L19.4825 127.733Z" fill="#5B59E9"/>
<path d="M20.7812 127.363C20.7812 127.363 21.8493 126.379 23.177 127.012L20.7812 127.363Z" fill="#5B59E9"/>
<path d="M21.0234 128.44C21.4791 127.817 22.3658 127.57 23.0909 127.803C23.2526 127.857 23.4192 127.941 23.5563 128.035L23.5514 128.05L23.3947 127.995C22.8166 127.783 22.1601 127.827 21.6015 128.089C21.4007 128.183 21.2047 128.302 21.0381 128.45L21.0283 128.44H21.0234Z" fill="white"/>
<path d="M21.125 129.439C21.4728 128.989 22.0559 128.742 22.6144 128.742C22.9279 128.732 23.2464 128.816 23.5256 128.954C23.6383 129.009 23.7363 129.083 23.8392 129.157L23.8343 129.172L23.6677 129.103C23.0651 128.836 22.3596 128.826 21.7521 129.088C21.5316 129.182 21.321 129.305 21.1397 129.458L21.1299 129.449L21.125 129.439Z" fill="white"/>
<path d="M21.2578 130.788C21.9486 129.77 23.4527 129.547 24.4129 130.299L24.408 130.314C23.2714 129.745 22.1642 129.968 21.2578 130.788Z" fill="white"/>
<path d="M19.9268 133.294C21.8326 133.685 23.9784 133.744 25.6785 132.661C25.9234 132.518 26.139 132.33 26.3644 132.147L26.3742 132.157C25.169 133.457 23.3072 133.843 21.6072 133.65C21.034 133.591 20.4706 133.482 19.9219 133.309V133.294H19.9268Z" fill="white"/>
<path d="M11.0444 16.7402C11.1424 17.5903 11.1032 17.4025 11.1473 18.2576C11.211 19.602 11.4119 21.2529 10.4565 22.3156C9.58444 23.2843 8.44782 23.9368 7.3112 24.5497C6.73309 24.861 6.14518 25.1477 5.54748 25.4295C5.18983 25.5975 4.83219 25.7606 4.46965 25.9188C4.25898 26.0127 3.53389 26.4724 3.32812 26.4081C3.32812 26.4081 7.953 28.3951 13.3618 28.7757C16.6736 29.008 20.2795 28.2616 23.2974 27.1792L23.8216 25.8694C23.8216 25.8694 21.4112 24.8512 18.8146 23.052C16.218 21.2529 17.4085 15.4946 17.4085 15.4946L11.0444 16.7402Z" fill="#FAC7A7"/>
<path d="M11.2891 16.7205C11.2891 16.7205 12.7637 20.9662 15.0615 21.6632C17.3543 22.3601 17.7022 19.1918 17.7022 19.1918L11.294 16.7205H11.2891Z" fill="#EAB296"/>
<path d="M22.1643 12.5784C22.0075 14.17 21.5519 15.7516 20.8856 17.2196C20.5475 17.961 20.1605 18.6777 19.7342 19.3746C19.3619 19.9777 18.5094 20.9316 18.2106 21.0898C17.8627 21.2726 16.6036 20.986 15.952 20.7635C15.3004 20.5411 14.6978 20.2396 14.1197 19.8739C12.8753 19.088 11.7975 18.0105 11.0381 16.7402C10.2787 15.4699 9.86719 14.0612 9.86719 12.5982C9.86719 7.60113 13.1154 3.36523 16.4812 3.36523C18.5143 3.36523 20.1507 4.89747 21.0766 6.6027C22.0712 8.43645 22.3553 10.5223 22.1594 12.5784H22.1643Z" fill="#FAC7A7"/>
<path d="M19.5175 23.4622C21.7516 24.2283 24.4118 24.8165 26.3813 26.1412C26.9153 26.497 27.4053 26.932 27.7629 27.4707C28.586 28.7163 28.635 30.382 28.7232 31.8302C28.8016 33.1598 28.826 34.7563 28.1744 35.9623C28.1353 36.0315 28.0569 36.0661 27.9834 36.0513L20.806 35.1468L24.5098 41.938L23.9856 49.9155C23.9856 49.9155 20.5463 50.2764 16.5486 50.5235C10.8116 50.8794 8.29826 49.5794 8.29826 49.5794L8.28847 45.309L4.12412 37.6725L2.68374 38.1223C2.58576 38.1519 2.48287 38.0926 2.46328 37.9888C2.20362 36.7432 0.777942 29.6999 1.6941 28.746C1.90966 28.5235 2.00765 27.8859 2.19382 27.5943C2.58576 26.9814 3.11488 26.5662 3.74198 26.2104C5.63798 25.1279 7.64667 24.426 9.44958 23.1558C9.44958 23.1558 11.8453 26.0275 15.0102 25.7161C18.18 25.4047 19.5273 23.4622 19.5273 23.4622H19.5175Z" fill="white"/>
<path d="M1.39862 29.5665C1.39862 29.5665 0.359984 29.8186 0.105224 30.7923C-0.149536 31.766 0.335488 33.0017 0.335488 33.0017C0.335488 33.0017 0.800915 34.5933 1.88365 34.8799C1.88365 34.8799 0.335488 33.0017 1.40352 29.5665H1.39862Z" fill="#F8BAA0"/>
<path d="M9.60938 25.1873C10.6039 26.161 11.9022 26.7887 13.2544 27.0556C14.6066 27.3027 16.0372 27.1841 17.3257 26.6948C18.3349 26.3142 19.2854 25.7211 20.0202 24.9253C19.1433 25.9336 17.9283 26.6256 16.6594 26.9864C15.5178 27.2978 14.3077 27.3423 13.1515 27.11C11.8287 26.8233 10.5549 26.1758 9.60938 25.1873Z" fill="#E2E1E1"/>
<path d="M4.96875 27.0952C5.9388 27.5301 6.88925 28.316 7.25179 29.354C7.27139 29.4232 7.30568 29.4973 7.31548 29.5665C7.27629 29.5072 7.25179 29.4281 7.2175 29.3639C7.00683 28.9042 6.71288 28.4791 6.36503 28.1133C5.97309 27.6932 5.45377 27.3472 4.96875 27.0902V27.0952Z" fill="#E2E1E1"/>
<path d="M7.79688 30.985C8.13982 31.5189 8.42398 32.1268 8.48277 32.7644C8.48277 32.7644 8.47787 32.7694 8.47297 32.7644C8.44357 32.6903 8.42398 32.6112 8.39948 32.5371C8.32599 32.3196 8.2574 32.0724 8.18391 31.855C8.08593 31.5584 7.92426 31.2421 7.79688 30.9801V30.985Z" fill="#E2E1E1"/>
<path d="M25.1387 26.0769C24.0609 26.2796 23.032 26.932 22.547 27.9452C22.3902 28.2764 22.2824 28.6372 22.2188 29.0079C22.2432 28.7311 22.2971 28.4494 22.3902 28.1825C22.7724 27.0012 23.9335 26.2005 25.1338 26.0769H25.1387Z" fill="#E2E1E1"/>
<path d="M13.1406 30.99C13.1406 30.99 14.6153 32.5321 17.692 32.2207L13.1406 30.99Z" fill="white"/>
<path d="M13.1406 30.99C14.1499 31.8401 15.4923 32.1911 16.7857 32.2356C17.0796 32.2504 17.403 32.2356 17.692 32.2257C17.403 32.2603 17.0796 32.2899 16.7857 32.285C15.4874 32.285 14.1009 31.9192 13.1455 30.99H13.1406Z" fill="#E2E1E1"/>
<path d="M3.555 37.9246C4.90719 40.8655 6.27898 43.8361 8.28766 46.3668C8.59631 46.7523 8.95396 47.1527 9.43408 47.2515C9.9779 47.3652 10.5217 47.0686 10.9871 46.7622C12.4128 45.833 13.7209 44.7258 14.8771 43.4704C15.9256 44.0239 16.6604 45.0174 17.5325 45.8231C18.4046 46.6287 19.6 47.2911 20.7317 46.9451C21.5303 46.7029 22.1035 46.0109 22.5885 45.3239C24.8177 42.1556 25.7681 39.6744 26.9586 35.9772L23.2548 35.5077C23.1911 35.4978 23.1764 35.4137 23.2352 35.389C24.1612 34.9096 25.0773 34.4005 26.0278 33.9705C26.9635 33.5503 28.1149 33.4515 28.9428 32.8139C29.7953 32.1565 30.2117 30.906 29.7414 29.8829C29.2711 28.8597 28.0953 28.232 27.0076 28.4742C27.0615 28.4643 27.1301 28.3803 27.1742 28.3457C27.2281 28.2963 27.282 28.2468 27.331 28.1925C27.429 28.0837 27.5122 27.9651 27.5808 27.8366C27.6886 27.6389 27.7376 27.3571 27.4878 27.2385C27.3653 27.1842 27.2379 27.2138 27.1154 27.2385C26.9733 27.2682 26.8313 27.3077 26.6941 27.3571C26.4148 27.4511 26.1503 27.5796 25.8955 27.7278C25.3713 28.0294 24.8912 28.4099 24.4306 28.8054C24.269 28.9438 24.1122 29.0821 23.9505 29.2205C21.1628 31.6771 18.2233 33.9606 15.1564 36.0514C14.98 36.17 14.7497 36.1799 14.5636 36.0662C11.6093 34.2572 8.74329 32.3097 5.97033 30.2338C4.8631 29.4034 3.62849 28.5829 2.25671 28.5187C2.16362 28.5187 2.08523 28.5928 2.09503 28.6867C2.11463 28.919 2.23711 29.1464 2.41348 29.2947C2.44778 29.3243 2.43308 29.3837 2.38409 29.3886C1.71779 29.4331 0.953512 29.5814 0.478286 30.1003C-0.188009 30.822 -0.0116367 31.8945 0.248023 32.7496C0.541976 33.7184 1.11029 34.791 2.10483 34.9244C3.98124 35.1716 5.81845 35.7103 7.53808 36.5061C7.60667 36.5407 7.60177 36.6445 7.52828 36.6643C6.20059 37.0794 4.8778 37.4996 3.5501 37.9148L3.555 37.9246Z" fill="#FAC7A7"/>
<path d="M19.2458 39.185L19.5741 39.3976C19.5741 39.3976 19.6133 39.3976 19.6182 39.3827L19.8583 38.6018C19.8681 38.5721 19.8338 38.5474 19.8093 38.5721L19.2361 39.101C19.2116 39.1257 19.2116 39.1702 19.2458 39.19V39.185Z" fill="white"/>
<path d="M10.6137 39.5804C10.6137 39.5804 9.75145 40.9249 9.60938 43.1392L10.6137 39.5804Z" fill="#EAB296"/>
<path d="M19.6016 39.3976C19.6016 39.3976 20.7039 40.7667 20.8215 42.5757L19.6016 39.3976Z" fill="#EAB296"/>
<path d="M3.55469 37.9247L3.93193 38.7452C3.93193 38.7452 7.13113 36.3282 10.7076 39.2295L7.54266 36.516L3.55469 37.9247Z" fill="#EAB296"/>
<path d="M26.9576 35.9821L26.6832 36.8174C26.6832 36.8174 22.8716 36.1502 21.25 36.9459L23.2293 35.3939L26.9527 35.9821H26.9576Z" fill="#EAB296"/>
<path d="M14.9034 36.17L10.8125 39.2246C10.8125 39.2246 12.88 37.1339 14.9034 36.17Z" fill="#F8BAA0"/>
<path d="M27.0156 28.4841C27.0156 28.4841 28.2306 28.1777 29.2889 29.2255C30.3422 30.2684 29.8278 31.5486 29.8278 31.5486C29.8278 31.5486 29.6171 32.4235 28.7842 32.9424C28.7842 32.9424 29.9111 30.0015 27.0156 28.4891V28.4841Z" fill="#F8BAA0"/>
<path d="M14.9141 17.1801C14.9141 17.1801 16.7856 17.7337 19.0686 17.4124C19.1617 17.3976 19.2499 17.4668 19.2548 17.5607C19.2646 17.7238 19.2009 17.9561 18.7551 18.0105C18.7208 18.0105 18.7012 18.0451 18.7061 18.0747C18.7796 18.4059 18.7306 18.8112 18.368 18.9348C18.0153 19.0583 17.6233 18.9694 17.2804 18.8705C16.9129 18.7618 16.5749 18.5789 16.2614 18.3565C15.9968 18.1687 15.7469 17.9512 15.5118 17.7337C15.3991 17.6299 15.2815 17.5212 15.1737 17.4124C15.0953 17.3333 15.0267 17.2098 14.9141 17.1752V17.1801Z" fill="#F4A887"/>
<path d="M11.4077 14.9901C12.1074 14.6501 12.19 13.3597 11.5923 12.1079C10.9946 10.8561 9.94296 10.1169 9.24334 10.4569C8.54372 10.7969 8.46108 12.0873 9.05877 13.3391C9.65645 14.5909 10.7081 15.33 11.4077 14.9901Z" fill="#FAC7A7"/>
<path d="M8.29969 49.5796C8.29969 49.5796 0.284547 57.7202 1.2252 68.5003C2.16585 79.2803 7.00139 84.5739 10.426 97.593C13.8505 110.607 17.6621 124.817 17.6621 124.817L25.202 122.564C25.202 122.564 21.606 101.681 20.8417 94.4346C20.0774 87.1935 16.9517 67.7391 16.9517 67.7391L19.2397 54.4976L8.29479 49.5845L8.29969 49.5796Z" fill="#323F5C"/>
<path d="M16.6875 65.7619C17.1431 65.6037 17.7604 65.3566 18.4267 65.0452C19.093 64.7338 19.6809 64.4175 20.0925 64.1753" fill="#385A65"/>
<path d="M12.6484 62.4503C12.7905 62.6085 13.0012 62.8358 13.2755 63.1324L12.6484 62.4503Z" fill="#385A65"/>
<path d="M12.7235 62.4503L14.7566 64.9365C15.2123 65.5741 15.9618 66.1178 16.001 66.9581L16.1382 67.7538C18.5829 82.1025 22.2476 104.142 24.6678 118.594C24.7168 118.95 25.2459 122.069 25.29 122.386C25.2998 122.583 25.1332 122.731 24.9519 122.756C24.8344 122.796 24.5012 122.89 24.3787 122.929C22.4876 123.483 19.7441 124.323 17.8481 124.867C17.6423 124.887 17.51 124.723 17.4855 124.536L17.2797 123.76C14.9232 114.818 11.4252 101.592 8.91675 92.6601C8.91675 92.6749 5.49219 83.6545 5.49219 83.6545L8.99514 92.6354C10.1661 96.7675 11.3419 100.9 12.4736 105.042C13.6935 109.604 16.491 120.038 17.6815 124.486L17.706 124.585C17.7158 124.644 17.7648 124.669 17.8187 124.669L18.1861 124.56C19.8959 124.046 22.6003 123.231 24.3101 122.717C24.4375 122.687 24.7609 122.578 24.8833 122.544C24.9568 122.524 25.0646 122.504 25.0597 122.4C25.0156 122.104 24.4914 119.02 24.4326 118.639C22.0467 104.152 18.4164 82.1717 16.0892 67.7687L15.9618 66.9729C15.9227 66.1326 15.1927 65.6087 14.7419 64.9612L12.7284 62.4553L12.7235 62.4503Z" fill="#385A65"/>
<path d="M15.4194 9.80069C15.3606 9.98357 14.6992 9.91931 13.9251 10.033C13.151 10.1319 12.5337 10.379 12.4259 10.2208C12.3769 10.1467 12.4798 9.96874 12.7297 9.78586C12.9747 9.60298 13.3715 9.42504 13.832 9.36079C14.2974 9.29653 14.7237 9.36079 15.0078 9.46459C15.2969 9.57333 15.4439 9.71172 15.4194 9.79575V9.80069Z" fill="#551B0C"/>
<path d="M21.5025 9.75122C21.3654 9.90938 20.8754 9.70179 20.2777 9.65236C19.68 9.58316 19.1656 9.68696 19.0578 9.50408C19.0137 9.41511 19.1019 9.25695 19.3371 9.11361C19.5674 8.97521 19.9397 8.87142 20.3512 8.91096C20.7628 8.95544 21.1057 9.12844 21.3066 9.31132C21.5074 9.4942 21.5662 9.67213 21.5025 9.75122Z" fill="#551B0C"/>
<path d="M24.8556 14.9806C24.8556 14.9806 23.2095 15.5292 19.6184 8.22885C18.3495 5.64876 14.3125 3.49374 14.3125 3.49374L17.7567 2.81165C17.7567 2.81165 24.0522 4.6009 24.1551 4.67999C24.2628 4.75907 25.7424 7.96194 25.7424 7.96194L24.8556 14.9806Z" fill="#4A2525"/>
<path d="M14.9784 3.36035C14.9784 3.36035 15.3116 5.56974 12.4063 7.15635C9.5011 8.74295 8.874 14.3925 8.874 14.3925H6.25781L9.19245 4.87282L14.9784 3.36035Z" fill="#4A2525"/>
<path d="M16.7896 15.1932C17.1227 15.2129 17.9703 15.2475 18.5876 15.0943C18.6317 15.0844 18.666 15.1338 18.6464 15.1734C18.5386 15.3661 18.2789 15.7665 17.9262 15.8752C17.5734 15.984 16.9855 15.5045 16.7504 15.2871C16.7161 15.2525 16.7406 15.1932 16.7896 15.1932Z" fill="#F4A887"/>
<path d="M14.9844 1.95667C21.5983 4.51698 26.7572 11.8618 27.4235 18.92C27.6293 21.3568 27.3451 23.8874 26.38 26.1413C27.3353 23.8825 27.6097 21.3568 27.399 18.92C26.6935 11.8866 21.5836 4.52687 14.9844 1.95667Z" fill="#A66C0C"/>
<path d="M15.659 12.0644C15.5757 11.9754 15.0515 12.356 14.3117 12.3412C13.5719 12.3412 13.0379 11.9507 12.9546 12.0397C12.9154 12.0792 12.9987 12.2423 13.2339 12.4203C13.4641 12.5982 13.8561 12.7662 14.3166 12.7712C14.7771 12.7712 15.1642 12.6081 15.3895 12.4351C15.6198 12.2621 15.6982 12.099 15.6541 12.0594L15.659 12.0644Z" fill="#192E35"/>
<path d="M21.9715 12.0644C21.8882 11.9754 21.364 12.356 20.6242 12.3412C19.8844 12.3412 19.3504 11.9507 19.2671 12.0397C19.2279 12.0792 19.3112 12.2423 19.5464 12.4203C19.7766 12.5982 20.1686 12.7662 20.6291 12.7712C21.0896 12.7712 21.4767 12.6081 21.702 12.4351C21.9323 12.2621 22.0107 12.099 21.9666 12.0594L21.9715 12.0644Z" fill="#192E35"/>
</g>
<defs>
<clipPath id="clip0_2052_2903">
<rect width="44" height="135" fill="white" transform="translate(0.0234375 0.681396)"/>
</clipPath>
</defs>
</svg>
